<svg viewBox="0 0 642 256">
<path fill="#eee" stroke-width="2" stroke="#000" d="M2 73.382v120l180 49.245v-120L2 73.382z M375 65.21v120l180 49.245v-120L375 65.21z"/>
<path fill="none" stroke="#888" d="M12 76.118v120M22 78.854v120M32 81.59v120M42 84.326v120M2 183.382l180 49.245M52 87.06v120M2 173.382l180 49.245M62 89.797v120M2 163.382l180 49.245M72 92.533v120m-70-59.15l180 49.244M82 95.27v120M2 143.382l180 49.245M92 98.005v120M2 133.382l180 49.245m-80-81.887v120M2 123.382l180 49.245m-70-69.15v120M2 113.38l180 49.245m-60-56.415v120M2 103.382l180 49.245m-50-43.68v120M2 93.383l180 49.245m-40-30.943v120M2 83.382l180 49.245m-30-18.207v120m10-117.264v120m10-117.264v120 M385 67.945v120M395 70.68v120m10-117.263v120m10-117.264v120m-40-20.943l180 49.245M425 78.89v120m-50-33.68l180 49.245M435 81.625v120m-60-46.415l180 49.245M445 84.36v120m-70-59.15l180 49.245M455 87.095v120m-80-71.885l180 49.245m-90-94.623v120m-90-84.622l180 49.245m-80-81.887v120M375 115.21l180 49.245m-70-69.15v120M375 105.21l180 49.245M495 98.04v120M375 95.21l180 49.245m-50-43.68v120M375 85.21l180 49.245m-40-30.945v120M375 75.21l180 49.245m-30-18.208v120m10-117.264v120m10-117.263v120"/>
<path fill="none" stroke="#c20" d="M7 79.75l90-65.377M7 79.75l90-65.377M17 82.486l90-65.378M17 82.486l90-65.378M27 85.222l90-65.378M27 85.222l90-65.378M37 87.957l90-65.377M37 87.957l90-65.377M47 90.693l90-65.377M47 90.693l90-65.377M57 93.43l90-65.378M57 93.43l90-65.378M67 96.165l90-65.377M67 96.165l90-65.377M77 98.9l90-65.377M77 98.9l90-65.377m-80 68.114l90-65.377m-90 65.377l3.553-2.58L177 36.26m-80 68.113l90-65.377m-90 65.377l90-65.377m-80 68.112l90-65.377m-90 65.38l90-65.373m-80 68.114l90-65.377m-90 65.377l90-65.38m-80 68.11l90-65.375m-90 65.377l90-65.375m-80 68.113l90-65.376m-90 65.378l90-65.377m-80 68.113l90-65.377m-80 68.116l90-65.378m-80 68.116l90-65.377m-80 68.113l90-65.378m-90 75.38l90-65.378m-90 75.378l90-65.377m-90 75.378l90-65.376m-90 75.377l90-65.376m-90 75.377l90-65.376m-90 75.376l90-65.377m-90 75.38l90-65.378m-90 75.378l90-65.375m-90 75.378l90-65.376m-90 75.378l90-65.377m-90 75.378l90-65.376 M326.48 250.455l269.31-195.63m-269.31 195.63l74.474-248.91m-74.474 248.91L414.954 5.317M326.48 250.455L428.948 9.34M326.48 250.455L443.693 13.28M326.48 250.455L457.147 17.123M326.48 250.455L471.33 20.98M326.48 250.455L484.67 24.71 326.48 250.454zm0 0L498.948 28.45M326.48 250.455l186.715-218.15M326.48 250.455l200.015-214.62M326.48 250.455L540.7 39.75M326.48 250.455L553.79 43.33M326.48 250.455l242.857-202.94M326.48 250.455l256.87-199.07m-256.87 199.07l284.677-191.63M326.48 250.455L624.61 62.84M326.48 250.455l312.554-183.18M326.48 250.455L639.056 79.848M326.48 250.455L639.615 93.552M326.48 250.455l313.172-142.91M326.48 250.455l312.522-128.633M326.48 250.455l312.768-114.74M326.48 250.455L639.32 148.87M326.48 250.455l312.575-86.702M326.48 250.455l312.766-72.762M326.48 250.455l312.863-58.526M326.48 250.45l312.985-44.808m-312.985 44.81l312.83-30.79"/>
<circle cx="326" cy="250.455" r="5"/>
<path fill="none" stroke-width="2" stroke="#000" d="M555 234.455l-228.52 16L375 65.21 M555 114.455l-228.52 136 48.52-65"/>
</svg>
