<svg viewBox="0 0 1000 340" xmlns="http://www.w3.org/2000/svg" xml:space="preserve" style="fill-rule:evenodd;clip-rule:evenodd;stroke-linecap:round;stroke-linejoin:round;stroke-miterlimit:1.5"><text x="408.371" y="48.865" style="font-family:'Concourse 3';font-weight:600;font-size:30px">da<tspan x="436.271px 445.271px 458.771px 465.371px 484.271px 497.771px 507.071px 520.571px" y="48.865px 48.865px 48.865px 48.865px 48.865px 48.865px 48.865px 48.865px">ta wareh</tspan>ouse</text><text x="61.561" y="48.865" style="font-family:'Concourse 3';font-weight:600;font-size:30px">da<tspan x="89.461px 98.461px 111.961px" y="48.865px 48.865px 48.865px">ta </tspan>sour<tspan x="168.061px 180.061px" y="48.865px 48.865px">ce</tspan>s</text><text x="310.01" y="171.602" style="font-family:'Concourse 3';font-weight:600;font-size:30px" transform="translate(508.279 -137.737)">business</text><text x="292.31" y="201.602" style="font-family:'Concourse 3';font-weight:600;font-size:30px" transform="translate(508.279 -137.737)">in<tspan x="313.31px 322.61px" y="201.602px 201.602px">te</tspan>lligence</text><text x="132.715" y="208.458" style="font-family:'Concourse 3';font-weight:300;font-size:25px">mark<tspan x="181.465px 192.715px" y="208.458px 208.458px">et</tspan>ing</text><text x="52.102" y="252.42" style="font-family:'Concourse 3';font-weight:300;font-size:25px">e<tspan x="63.102px 74.102px" y="252.42px 252.42px">xt</tspan>ernal da<tspan x="158.852" y="252.42">t</tspan>a</text><text x="52.277" y="202.07" style="font-family:'Concourse 3';font-weight:300;font-size:25px">sales</text><text x="96.502" y="151.395" style="font-family:'Concourse 3';font-weight:300;font-size:25px">pr<tspan x="116.502px 128.752px" y="151.395px 151.395px">od</tspan>uc<tspan x="163.252" y="151.395">t</tspan></text><path d="M106.801 104.205c0-14.521 11.789-26.31 26.31-26.31 14.521 0 26.31 11.789 26.31 26.31 7.26-12.575 23.364-16.891 35.94-9.63 12.575 7.26 16.89 23.364 9.63 35.94 12.575-7.261 28.679-2.945 35.94 9.63 7.26 12.575 2.945 28.68-9.63 35.94 14.521 0 26.31 11.789 26.31 26.31 0 14.521-11.789 26.31-26.31 26.31 12.575 7.26 16.89 23.365 9.63 35.94-7.261 12.575-23.365 16.891-35.94 9.63 7.26 12.576 2.945 28.68-9.63 35.94-12.576 7.261-28.68 2.945-35.94-9.63 0 14.521-11.789 26.31-26.31 26.31-14.521 0-26.31-11.789-26.31-26.31-7.261 12.575-23.365 16.891-35.94 9.63-12.576-7.26-16.891-23.364-9.63-35.94-12.576 7.261-28.68 2.945-35.94-9.63-7.261-12.575-2.946-28.68 9.63-35.94-14.521 0-26.31-11.789-26.31-26.31 0-14.521 11.789-26.31 26.31-26.31-12.576-7.26-16.891-23.365-9.63-35.94 7.26-12.575 23.364-16.891 35.94-9.63-7.261-12.576-2.946-28.68 9.63-35.94 12.575-7.261 28.679-2.945 35.94 9.63Z" style="fill:none;stroke:#000;stroke-width:1px"/><text x="769.583" y="153.521" style="font-family:'Concourse 3';font-weight:300;font-size:25px">analysis</text><text x="779.133" y="228.458" style="font-family:'Concourse 3';font-weight:300;font-size:25px">r<tspan x="786.883px 798.133px" y="228.458px 228.458px">ep</tspan>or<tspan x="831.133px 838.883px" y="228.458px 228.458px">ti</tspan>ng</text><text x="877.633" y="175.721" style="font-family:'Concourse 3';font-weight:300;font-size:25px">queries</text><text x="887.133" y="269.658" style="font-family:'Concourse 3';font-weight:300;font-size:25px">mining</text><path d="M403.536 271.395v-138h190v138c0 15.04-42.568 27.25-95 27.25s-95-12.21-95-27.25" style="fill:#ebebeb;stroke:#000;stroke-width:1px"/><path d="M593.536 179.395c0 15.04-42.568 27.25-95 27.25s-95-12.21-95-27.25M593.536 225.395c0 15.04-42.568 27.25-95 27.25s-95-12.21-95-27.25" style="fill:none;stroke:#000;stroke-width:1px"/><ellipse cx="498.536" cy="133.395" rx="95" ry="27.25" style="fill:#ebebeb;stroke:#000;stroke-width:1px"/><path d="m386.202 202.423-7.608 7.609 1.401 1.401 10-10-10-10-1.401 1.401 7.608 7.608H269.995v1.981h116.207ZM385.978 180.284l-8.887 5.03.997 1.775 11.681-6.611-7.117-12.668-1.637.926 5.415 9.638-112.106-36.119-.452 1.91 112.106 36.119ZM385.978 222.581l-8.887-5.03.997-1.775 11.681 6.611-7.117 12.668-1.637-.926 5.415-9.638-112.106 36.119-.452-1.91 112.106-36.119ZM606.995 202.423v-1.981h116.207l-7.608-7.608 1.401-1.401 10 10-10 10-1.401-1.401 7.608-7.609H606.995ZM607.447 181.433l-.452-1.91L719.1 143.404l-8.887-5.03.997-1.775 11.681 6.611-7.117 12.667-1.637-.926 5.415-9.638-112.105 36.12ZM607.447 221.433l-.452 1.909L719.1 259.461l-8.887 5.03.997 1.775 11.681-6.611-7.117-12.667-1.637.926 5.415 9.638-112.105-36.119Z"/><path style="fill:none;stroke:#000;stroke-width:1px" d="M742.389 106.145h249v192.5h-249z"/></svg>
