<svg viewBox="0 0 1000 340" style="font-family:'Concourse 3';font-size:25px" fill="currentColor">
<g style="font-size:30px;font-weight:600">
<text x="408.371" y="48.865">data warehouse</text>
<text x="61.561" y="48.865">data sources</text>
<text x="818.289" y="33.865">business</text>
<text x="800.589" y="63.865">intelligence</text>
</g>
<text x="132.715" y="208.458">marketing</text>
<text x="52.102" y="252.42">external data</text>
<text x="52.277" y="202.07">sales</text>
<text x="96.502" y="151.395">product</text>
<text x="769.583" y="153.521">analysis</text>
<text x="779.133" y="228.458">reporting</text>
<text x="877.633" y="175.721">queries</text>
<text x="887.133" y="269.658">mining</text>
<g fill="none" stroke="currentColor">
<path d="M106.801 104.205c0-14.521 11.789-26.31 26.31-26.31 14.521 0 26.31 11.789 26.31 26.31 7.26-12.575 23.364-16.891 35.94-9.63 12.575 7.26 16.89 23.364 9.63 35.94 12.575-7.261 28.679-2.945 35.94 9.63 7.26 12.575 2.945 28.68-9.63 35.94 14.521 0 26.31 11.789 26.31 26.31 0 14.521-11.789 26.31-26.31 26.31 12.575 7.26 16.89 23.365 9.63 35.94-7.261 12.575-23.365 16.891-35.94 9.63 7.26 12.576 2.945 28.68-9.63 35.94-12.576 7.261-28.68 2.945-35.94-9.63 0 14.521-11.789 26.31-26.31 26.31-14.521 0-26.31-11.789-26.31-26.31-7.261 12.575-23.365 16.891-35.94 9.63-12.576-7.26-16.891-23.364-9.63-35.94-12.576 7.261-28.68 2.945-35.94-9.63-7.261-12.575-2.946-28.68 9.63-35.94-14.521 0-26.31-11.789-26.31-26.31 0-14.521 11.789-26.31 26.31-26.31-12.576-7.26-16.891-23.365-9.63-35.94 7.26-12.575 23.364-16.891 35.94-9.63-7.261-12.576-2.946-28.68 9.63-35.94 12.575-7.261 28.679-2.945 35.94 9.63Z"/>
<path d="M742.389 106.145h249v192.5h-249z"/>
</g>
<g fill="#ebebeb" stroke="#000">
<path d="M403.536 271.395v-138h190v138c0 15.04-42.568 27.25-95 27.25s-95-12.21-95-27.25"/>
<ellipse cx="498.536" cy="133.395" rx="95" ry="27.25"/>
<path fill="none" d="M593.536 179.395c0 15.04-42.568 27.25-95 27.25s-95-12.21-95-27.25M593.536 225.395c0 15.04-42.568 27.25-95 27.25s-95-12.21-95-27.25"/>
</g>
<path d="m386.202 202.423-7.608 7.609 1.401 1.401 10-10-10-10-1.401 1.401 7.608 7.608H269.995v1.981h116.207ZM385.978 180.284l-8.887 5.03.997 1.775 11.681-6.611-7.117-12.668-1.637.926 5.415 9.638-112.106-36.119-.452 1.91 112.106 36.119ZM385.978 222.581l-8.887-5.03.997-1.775 11.681 6.611-7.117 12.668-1.637-.926 5.415-9.638-112.106 36.119-.452-1.91 112.106-36.119ZM606.995 202.423v-1.981h116.207l-7.608-7.608 1.401-1.401 10 10-10 10-1.401-1.401 7.608-7.609H606.995ZM607.447 181.433l-.452-1.91L719.1 143.404l-8.887-5.03.997-1.775 11.681 6.611-7.117 12.667-1.637-.926 5.415-9.638-112.105 36.12ZM607.447 221.433l-.452 1.909L719.1 259.461l-8.887 5.03.997 1.775 11.681-6.611-7.117-12.667-1.637.926 5.415 9.638-112.105-36.119Z"/>
</svg>
