<svg viewBox="0 0 680 410" xmlns="http://www.w3.org/2000/svg" xml:space="preserve" style="fill-rule:evenodd;clip-rule:evenodd;stroke-linecap:round;stroke-linejoin:round;stroke-miterlimit:1.5"><text x="6.19" y="343.317" style="font-family:'Concourse 3';font-weight:600;font-size:25px">T<tspan x="19.94px 25.69px" y="343.317px 343.317px">im</tspan>e</text><text x="60.683" y="122.227" style="font-family:'Concourse 3';font-weight:300;font-size:25px">cr<tspan x="78.433" y="122.227">e</tspan>at<tspan x="108.183" y="122.227">e</tspan> ﬁle</text><circle cx="108.183" cy="116.802" r="54.219" style="fill:none;stroke:#000;stroke-width:1px"/><text x="170.756" y="247.985" style="font-family:'Concourse 3';font-weight:300;font-size:25px">modif<tspan x="228.256" y="247.985">y</tspan></text><circle cx="205.006" cy="242.56" r="42.604" style="fill:none;stroke:#000;stroke-width:1px"/><text x="433.508" y="317.672" style="font-family:'Concourse 3';font-weight:300;font-size:25px;fill:#737373">gr<tspan x="453.508px 464.758px" y="317.672px 317.672px">ac</tspan>e period</text><text x="320.157" y="148.102" style="font-family:'Concourse 3';font-weight:300;font-size:25px">r<tspan x="327.907px 338.907px 350.157px" y="148.102px 148.102px 148.102px">ead</tspan></text><circle cx="341.282" cy="142.677" r="30.604" style="fill:none;stroke:#000;stroke-width:1px"/><text x="303.435" y="171.602" style="font-family:'Concourse 3';font-weight:300;font-size:25px;fill:#d92626" transform="translate(188.138 -53.109)">r<tspan x="311.185px 322.185px 333.435px" y="171.602px 171.602px 171.602px">ead</tspan>:</text><text x="304.31" y="196.602" style="font-family:'Concourse 3';font-weight:300;font-size:25px;fill:#d92626" transform="translate(188.138 -53.109)">err<tspan x="331.31px 343.56px" y="196.602px 196.602px">or</tspan></text><circle cx="516.073" cy="125.568" r="39.712" style="fill:none;stroke:#d92626;stroke-width:1px"/><text x="602.06" y="199.047" style="font-family:'Concourse 3';font-weight:300;font-size:25px;fill:#737373">deleted</text><text x="329.236" y="255.06" style="font-family:'Concourse 3';font-weight:300;font-size:25px">cop<tspan x="363.486" y="255.06">y</tspan></text><circle cx="351.861" cy="249.635" r="32.104" style="fill:none;stroke:#000;stroke-width:1px"/><text x="204.168" y="127.103" style="font-family:'Concourse 3';font-weight:300;font-size:25px;fill:#0d79f2">mo<tspan x="234.918" y="127.103">v</tspan>e</text><text x="204.168" y="127.103" style="font-family:'Concourse 3';font-weight:300;font-size:25px;fill:#0d79f2">mo<tspan x="234.918" y="127.103">v</tspan>e</text><circle cx="230.543" cy="121.678" r="34.604" style="fill:none;stroke:#0d79f2;stroke-width:1px"/><text x="317.56" y="171.602" style="font-family:'Concourse 3';font-weight:300;font-size:25px;fill:#0d79f2" transform="translate(135.8 54.445)">cle<tspan x="344.31px 355.56px" y="171.602px 171.602px">ar</tspan></text><text x="292.31" y="196.602" style="font-family:'Concourse 3';font-weight:300;font-size:25px;fill:#0d79f2" transform="translate(135.8 54.445)">e<tspan x="303.31px 314.31px" y="196.602px 196.602px">xp</tspan>ir<tspan x="340.06px 351.06px 358.81px" y="196.602px 196.602px 196.602px">ati</tspan>on</text><circle cx="476.361" cy="233.122" r="56.604" style="fill:none;stroke:#0d79f2;stroke-width:1px"/><text x="327.935" y="171.602" style="font-family:'Concourse 3';font-weight:300;font-size:25px;fill:#737373" transform="translate(-62.296 227.369)">e<tspan x="338.935px 349.935px" y="171.602px 171.602px">xp</tspan>ir<tspan x="375.685" y="171.602">e</tspan></text><path style="fill:#737373" d="M327.935 164.777h59v1.45h-59z" transform="translate(-62.296 227.369)"/><path d="M332.965 393.286v-.553h27.941l-4.864-4.864.391-.391 5.532 5.531-5.532 5.532-.391-.392 4.864-4.863h-27.941Z" style="fill:#737373;stroke:#737373;stroke-width:1px"/><text x="369.238" y="398.972" style="font-family:'Concourse 3';font-weight:300;font-size:25px">e<tspan x="380.238px 391.238px" y="398.972px 398.972px">xp</tspan>ir<tspan x="416.988" y="398.972">e</tspan></text><text x="559.3" y="401.509" style="font-family:'Concourse 3';font-weight:300;font-size:25px">delete</text><path d="M295.14 58.234v316.375" style="fill:none;stroke:#737373;stroke-width:1px;stroke-dasharray:10,10,0,0"/><path d="M398.738 58.234v316.375M587.504 58.234v316.375" style="fill:none;stroke:#000;stroke-width:1px"/><path d="M68.965 336.587v-.94H662.08l-8.823-8.823.708-.707 10 10-10 10-.708-.707 8.823-8.823H68.965Z"/><text x="310.008" y="22.584" style="font-family:'Concourse 3';font-weight:300;font-size:25px;fill:#0d79f2">no e<tspan x="350.758px 361.758px" y="22.584px 22.584px">xp</tspan>ir<tspan x="387.508px 398.508px 406.258px" y="22.584px 22.584px 22.584px">ati</tspan>on</text><path d="M230.543 87.074V16.622h68.422M454.948 180.715V51.848l-20.315-20.315" style="fill:none;stroke:#0d79f2;stroke-width:1px"/><text x="198.381" y="277.56" style="font-family:'Concourse 3';font-weight:300;font-size:25px;fill:#737373">*</text><text x="340.84" y="391.698" style="font-family:'Concourse 3';font-weight:300;font-size:25px;fill:#737373">*</text></svg>
