<svg viewBox="0 0 360 360" style="font-family:'Concourse 3';font-size:20px" fill="currentColor">
<path fill="none" stroke="#ccc" stroke-width="2" d="M0 160h340M0 100h340M340 40H0M0 220h340M0 280h340M40 0v340M100 0v340M160 0v340M220 0v340M280 0v340"/>
<g style="font-size:25px;font-weight:600;">
<text x="14.375" y="79.425">1</text>
<text x="13.25" y="139.425">2</text>
<text x="13.5" y="199.425">3</text>
<text x="13.125" y="259.363">4</text>
<text x="13.25" y="319.363">5</text>
<text x="64.375" y="29.425">1</text>
<text x="123.25" y="29.425">2</text>
<text x="183.5" y="29.425">3</text>
<text x="243.125" y="29.425">4</text>
<text x="303.25" y="29.425">5</text>
</g>
<text x="173.1" y="130.21">3</text>
<text x="173.1" y="70.26">3</text>
<text x="173.1" y="310.21">3</text>
<text x="173.1" y="250.21">3</text>
<text x="113.1" y="70.26">2</text>
<text x="113.1" y="310.21">2</text>
<text x="113.1" y="190.21">2</text>
<text x="54.1" y="130.21">1</text>
<text x="54.1" y="70.26">1</text>
<text x="54.1" y="310.21">1</text>
<text x="54.1" y="190.21">1</text>
<text x="54.1" y="250.21">1</text>
<text x="233.1" y="70.26">4</text>
<text x="233.1" y="310.21">4</text>
<text x="233.1" y="190.21">4</text>
<text x="293.1" y="130.21">5</text>
<text x="293.1" y="70.26">5</text>
<text x="293.1" y="190.21">5</text>
<text x="293.1" y="250.21">5</text>
<text x="76.9" y="142.71">2</text>
<text x="76.9" y="82.76">1</text>
<text x="76.9" y="322.71">5</text>
<text x="76.9" y="202.71">3</text>
<text x="76.9" y="262.71">4</text>
<text x="197.3" y="142.71">2</text>
<text x="197.3" y="82.76">1</text>
<text x="197.3" y="322.71">5</text>
<text x="197.3" y="262.71">4</text>
<text x="137.7" y="82.76">1</text>
<text x="137.7" y="322.71">5</text>
<text x="137.7" y="202.71">3</text>
<text x="317.7" y="142.71">2</text>
<text x="317.7" y="82.76">1</text>
<text x="317.7" y="202.71">3</text>
<text x="317.7" y="262.71">4</text>
<text x="257.9" y="82.76">1</text>
<text x="257.9" y="322.71">5</text>
<text x="257.9" y="202.71">3</text>
<g fill="#aaa">
<text x="173.1" y="190.21">3</text>
<text x="113.1" y="130.21">2</text>
<text x="113.1" y="250.21">2</text>
<text x="233.1" y="130.21">4</text>
<text x="233.1" y="250.21">4</text>
<text x="293.1" y="310.21">5</text>
<text x="197.3" y="202.71">3</text>
<text x="137.7" y="142.71">2</text>
<text x="137.7" y="262.71">4</text>
<text x="317.7" y="322.71">5</text>
<text x="257.9" y="142.71">2</text>
<text x="257.9" y="262.71">4</text>
</g>
<g style="font-size:30px">
<text x="63.1" y="136.46">/</text>
<text x="63.1" y="76.51">/</text>
<text x="63.1" y="316.46">/</text>
<text x="63.1" y="196.46">/</text>
<text x="63.1" y="256.46">/</text>
<text x="183.5" y="136.46">/</text>
<text x="183.5" y="76.51">/</text>
<text x="183.5" y="316.46">/</text>
<text x="183.5" y="256.46">/</text>
<text x="123.9" y="76.51">/</text>
<text x="123.9" y="316.46">/</text>
<text x="123.9" y="196.46">/</text>
<text x="303.9" y="136.46">/</text>
<text x="303.9" y="76.51">/</text>
<text x="303.9" y="196.46">/</text>
<text x="303.9" y="256.46">/</text>
<text x="244.1" y="76.51">/</text>
<text x="244.1" y="316.46">/</text>
<text x="244.1" y="196.46">/</text>
<g fill="#aaa">
<text x="183.5" y="196.46">/</text>
<text x="123.9" y="136.46">/</text>
<text x="123.9" y="256.46">/</text>
<text x="303.9" y="316.46">/</text>
<text x="244.1" y="136.46">/</text>
<text x="244.1" y="256.46">/</text>
</g>
</g>
<g fill="none" stroke="#c20" stroke-width="2">
<path d="M92 70h16M103.05 74.95 108 70l-4.95-4.95"/>
<path d="M212 70h16M223.05 74.95 228 70l-4.95-4.95"/>
<path d="M343.05 74.95 348 70l-4.95-4.95"/>
<path d="M70 152v16M65.05 163.05 70 168l4.95-4.95"/>
<path d="M70 272v16M65.05 283.05 70 288l4.95-4.95"/>
<path d="m113.659 86.34-28.316 28.317M85.343 107.657v7h7"/>
<path d="m233.659 86.34-28.316 28.317M205.343 107.657v7h7"/>
<path d="m173.659 146.341-28.316 28.316M145.343 167.657v7h7"/>
<path d="m293.659 146.341-28.316 28.316M265.343 167.657v7h7"/>
<path d="m233.659 206.341-28.316 28.316M205.343 227.657v7h7"/>
<path d="m293.659 266.341-28.316 28.316M265.343 287.657v7h7"/>
<path d="m173.659 266.341-28.316 28.316M145.343 287.657v7h7"/>
<path d="M85.343 347.657v7h7"/>
<path d="M325.343 107.657v7h7"/>
<path d="M173.659 333.341v-7h-7"/>
<path d="M353.659 153.341v-7h-7"/>
<path d="M205.343 347.657v7h7"/>
<path d="M325.343 227.657v7h7"/>
<path d="m113.659 206.341-28.316 28.316M85.343 227.657v7h7"/>
<path d="m85.343 174.657 88.316-88.316M173.659 93.34v-7h-7"/>
<path d="M353.659 273.341v-7h-7"/>
<path d="m205.343 294.657 88.316-88.316M293.659 213.341v-7h-7"/>
<path d="M85.343 294.657 293.66 86.341M293.659 93.34v-7h-7"/>
<g stroke-dasharray="2,2">
<path d="M332 70h16"/>
<path d="m113.659 326.341-28.316 28.316"/>
<path d="m353.659 86.34-28.316 28.317"/>
<path d="m145.343 354.657 28.316-28.316"/>
<path d="m325.343 174.657 28.316-28.316"/>
<path d="m233.659 326.341-28.316 28.316"/>
<path d="m353.659 206.341-28.316 28.316"/>
<path d="m265.343 354.657 88.316-88.316"/>
</g>
</g>
</svg>
