<svg viewBox="0 0 360 360" xmlns="http://www.w3.org/2000/svg" xml:space="preserve" style="fill-rule:evenodd;clip-rule:evenodd;stroke-miterlimit:1.41421"><path d="M0 160h340M0 100h340M340 40H0M0 220h340M0 280h340M40 0v340M100 0v340M160 0v340M220 0v340M280 0v340" style="fill:none;stroke-width:2px;stroke:#ccc"/><text x="292.31" y="165.352" style="font-family:'Concourse 3';font-size:20px;font-weight:300;fill:#000" transform="translate(-238.21 -95.092)">1</text><text x="301.31" y="171.602" style="font-family:'Concourse 3';font-size:30px;font-weight:300;fill:#000" transform="translate(-238.21 -95.092)">/</text><text x="315.11" y="177.852" style="font-family:'Concourse 3';font-size:20px;font-weight:300;fill:#000" transform="translate(-238.21 -95.092)">1</text><text x="292.31" y="165.352" style="font-family:'Concourse 3';font-size:20px;font-weight:300;fill:#000" transform="translate(-179.21 -95.092)">2</text><text x="303.11" y="171.602" style="font-family:'Concourse 3';font-size:30px;font-weight:300;fill:#000" transform="translate(-179.21 -95.092)">/</text><text x="316.91" y="177.852" style="font-family:'Concourse 3';font-size:20px;font-weight:300;fill:#000" transform="translate(-179.21 -95.092)">1</text><text x="292.31" y="165.352" style="font-family:'Concourse 3';font-size:20px;font-weight:300;fill:#000" transform="translate(-119.21 -95.092)">3</text><text x="302.71" y="171.602" style="font-family:'Concourse 3';font-size:30px;font-weight:300;fill:#000" transform="translate(-119.21 -95.092)">/</text><text x="316.51" y="177.852" style="font-family:'Concourse 3';font-size:20px;font-weight:300;fill:#000" transform="translate(-119.21 -95.092)">1</text><text x="292.31" y="165.352" style="font-family:'Concourse 3';font-size:20px;font-weight:300;fill:#000" transform="translate(-59.21 -95.092)">4</text><text x="303.31" y="171.602" style="font-family:'Concourse 3';font-size:30px;font-weight:300;fill:#000" transform="translate(-59.21 -95.092)">/</text><text x="317.11" y="177.852" style="font-family:'Concourse 3';font-size:20px;font-weight:300;fill:#000" transform="translate(-59.21 -95.092)">1</text><text x="292.31" y="165.352" style="font-family:'Concourse 3';font-size:20px;font-weight:300;fill:#000" transform="translate(.79 -95.092)">5</text><text x="303.11" y="171.602" style="font-family:'Concourse 3';font-size:30px;font-weight:300;fill:#000" transform="translate(.79 -95.092)">/</text><text x="316.91" y="177.852" style="font-family:'Concourse 3';font-size:20px;font-weight:300;fill:#000" transform="translate(.79 -95.092)">1</text><text x="292.31" y="165.352" style="font-family:'Concourse 3';font-size:20px;font-weight:300;fill:#000" transform="translate(-238.21 -35.142)">1</text><text x="301.31" y="171.602" style="font-family:'Concourse 3';font-size:30px;font-weight:300;fill:#000" transform="translate(-238.21 -35.142)">/</text><text x="315.11" y="177.852" style="font-family:'Concourse 3';font-size:20px;font-weight:300;fill:#000" transform="translate(-238.21 -35.142)">2</text><text x="292.31" y="165.352" style="font-family:'Concourse 3';font-size:20px;font-weight:300;fill:#aaa" transform="translate(-179.21 -35.142)">2</text><text x="303.11" y="171.602" style="font-family:'Concourse 3';font-size:30px;font-weight:300;fill:#aaa" transform="translate(-179.21 -35.142)">/</text><text x="316.91" y="177.852" style="font-family:'Concourse 3';font-size:20px;font-weight:300;fill:#aaa" transform="translate(-179.21 -35.142)">2</text><text x="292.31" y="165.352" style="font-family:'Concourse 3';font-size:20px;font-weight:300;fill:#000" transform="translate(-119.21 -35.142)">3</text><text x="302.71" y="171.602" style="font-family:'Concourse 3';font-size:30px;font-weight:300;fill:#000" transform="translate(-119.21 -35.142)">/</text><text x="316.51" y="177.852" style="font-family:'Concourse 3';font-size:20px;font-weight:300;fill:#000" transform="translate(-119.21 -35.142)">2</text><text x="292.31" y="165.352" style="font-family:'Concourse 3';font-size:20px;font-weight:300;fill:#aaa" transform="translate(-59.21 -35.142)">4</text><text x="303.31" y="171.602" style="font-family:'Concourse 3';font-size:30px;font-weight:300;fill:#aaa" transform="translate(-59.21 -35.142)">/</text><text x="317.11" y="177.852" style="font-family:'Concourse 3';font-size:20px;font-weight:300;fill:#aaa" transform="translate(-59.21 -35.142)">2</text><text x="292.31" y="165.352" style="font-family:'Concourse 3';font-size:20px;font-weight:300;fill:#000" transform="translate(.79 -35.142)">5</text><text x="303.11" y="171.602" style="font-family:'Concourse 3';font-size:30px;font-weight:300;fill:#000" transform="translate(.79 -35.142)">/</text><text x="316.91" y="177.852" style="font-family:'Concourse 3';font-size:20px;font-weight:300;fill:#000" transform="translate(.79 -35.142)">2</text><text x="292.31" y="165.352" style="font-family:'Concourse 3';font-size:20px;font-weight:300;fill:#000" transform="translate(-238.21 24.858)">1</text><text x="301.31" y="171.602" style="font-family:'Concourse 3';font-size:30px;font-weight:300;fill:#000" transform="translate(-238.21 24.858)">/</text><text x="315.11" y="177.852" style="font-family:'Concourse 3';font-size:20px;font-weight:300;fill:#000" transform="translate(-238.21 24.858)">3</text><text x="292.31" y="165.352" style="font-family:'Concourse 3';font-size:20px;font-weight:300;fill:#000" transform="translate(-179.21 24.858)">2</text><text x="303.11" y="171.602" style="font-family:'Concourse 3';font-size:30px;font-weight:300;fill:#000" transform="translate(-179.21 24.858)">/</text><text x="316.91" y="177.852" style="font-family:'Concourse 3';font-size:20px;font-weight:300;fill:#000" transform="translate(-179.21 24.858)">3</text><text x="292.31" y="165.352" style="font-family:'Concourse 3';font-size:20px;font-weight:300;fill:#aaa" transform="translate(-119.21 24.858)">3</text><text x="302.71" y="171.602" style="font-family:'Concourse 3';font-size:30px;font-weight:300;fill:#aaa" transform="translate(-119.21 24.858)">/</text><text x="316.51" y="177.852" style="font-family:'Concourse 3';font-size:20px;font-weight:300;fill:#aaa" transform="translate(-119.21 24.858)">3</text><text x="292.31" y="165.352" style="font-family:'Concourse 3';font-size:20px;font-weight:300;fill:#000" transform="translate(-59.21 24.858)">4</text><text x="303.31" y="171.602" style="font-family:'Concourse 3';font-size:30px;font-weight:300;fill:#000" transform="translate(-59.21 24.858)">/</text><text x="317.11" y="177.852" style="font-family:'Concourse 3';font-size:20px;font-weight:300;fill:#000" transform="translate(-59.21 24.858)">3</text><text x="292.31" y="165.352" style="font-family:'Concourse 3';font-size:20px;font-weight:300;fill:#000" transform="translate(.79 24.858)">5</text><text x="303.11" y="171.602" style="font-family:'Concourse 3';font-size:30px;font-weight:300;fill:#000" transform="translate(.79 24.858)">/</text><text x="316.91" y="177.852" style="font-family:'Concourse 3';font-size:20px;font-weight:300;fill:#000" transform="translate(.79 24.858)">3</text><text x="292.31" y="165.352" style="font-family:'Concourse 3';font-size:20px;font-weight:300;fill:#000" transform="translate(-238.21 84.858)">1</text><text x="301.31" y="171.602" style="font-family:'Concourse 3';font-size:30px;font-weight:300;fill:#000" transform="translate(-238.21 84.858)">/</text><text x="315.11" y="177.852" style="font-family:'Concourse 3';font-size:20px;font-weight:300;fill:#000" transform="translate(-238.21 84.858)">4</text><text x="292.31" y="165.352" style="font-family:'Concourse 3';font-size:20px;font-weight:300;fill:#aaa" transform="translate(-179.21 84.858)">2</text><text x="303.11" y="171.602" style="font-family:'Concourse 3';font-size:30px;font-weight:300;fill:#aaa" transform="translate(-179.21 84.858)">/</text><text x="316.91" y="177.852" style="font-family:'Concourse 3';font-size:20px;font-weight:300;fill:#aaa" transform="translate(-179.21 84.858)">4</text><text x="292.31" y="165.352" style="font-family:'Concourse 3';font-size:20px;font-weight:300;fill:#000" transform="translate(-119.21 84.858)">3</text><text x="302.71" y="171.602" style="font-family:'Concourse 3';font-size:30px;font-weight:300;fill:#000" transform="translate(-119.21 84.858)">/</text><text x="316.51" y="177.852" style="font-family:'Concourse 3';font-size:20px;font-weight:300;fill:#000" transform="translate(-119.21 84.858)">4</text><text x="292.31" y="165.352" style="font-family:'Concourse 3';font-size:20px;font-weight:300;fill:#aaa" transform="translate(-59.21 84.858)">4</text><text x="303.31" y="171.602" style="font-family:'Concourse 3';font-size:30px;font-weight:300;fill:#aaa" transform="translate(-59.21 84.858)">/</text><text x="317.11" y="177.852" style="font-family:'Concourse 3';font-size:20px;font-weight:300;fill:#aaa" transform="translate(-59.21 84.858)">4</text><text x="292.31" y="165.352" style="font-family:'Concourse 3';font-size:20px;font-weight:300;fill:#000" transform="translate(.79 84.858)">5</text><text x="303.11" y="171.602" style="font-family:'Concourse 3';font-size:30px;font-weight:300;fill:#000" transform="translate(.79 84.858)">/</text><text x="316.91" y="177.852" style="font-family:'Concourse 3';font-size:20px;font-weight:300;fill:#000" transform="translate(.79 84.858)">4</text><g><text x="292.31" y="165.352" style="font-family:'Concourse 3';font-size:20px;font-weight:300;fill:#000" transform="translate(-238.21 144.858)">1</text><text x="301.31" y="171.602" style="font-family:'Concourse 3';font-size:30px;font-weight:300;fill:#000" transform="translate(-238.21 144.858)">/</text><text x="315.11" y="177.852" style="font-family:'Concourse 3';font-size:20px;font-weight:300;fill:#000" transform="translate(-238.21 144.858)">5</text></g><g><text x="292.31" y="165.352" style="font-family:'Concourse 3';font-size:20px;font-weight:300;fill:#000" transform="translate(-179.21 144.858)">2</text><text x="303.11" y="171.602" style="font-family:'Concourse 3';font-size:30px;font-weight:300;fill:#000" transform="translate(-179.21 144.858)">/</text><text x="316.91" y="177.852" style="font-family:'Concourse 3';font-size:20px;font-weight:300;fill:#000" transform="translate(-179.21 144.858)">5</text></g><g><text x="292.31" y="165.352" style="font-family:'Concourse 3';font-size:20px;font-weight:300;fill:#000" transform="translate(-119.21 144.858)">3</text><text x="302.71" y="171.602" style="font-family:'Concourse 3';font-size:30px;font-weight:300;fill:#000" transform="translate(-119.21 144.858)">/</text><text x="316.51" y="177.852" style="font-family:'Concourse 3';font-size:20px;font-weight:300;fill:#000" transform="translate(-119.21 144.858)">5</text></g><g><text x="292.31" y="165.352" style="font-family:'Concourse 3';font-size:20px;font-weight:300;fill:#000" transform="translate(-59.21 144.858)">4</text><text x="303.31" y="171.602" style="font-family:'Concourse 3';font-size:30px;font-weight:300;fill:#000" transform="translate(-59.21 144.858)">/</text><text x="317.11" y="177.852" style="font-family:'Concourse 3';font-size:20px;font-weight:300;fill:#000" transform="translate(-59.21 144.858)">5</text></g><g><text x="292.31" y="165.352" style="font-family:'Concourse 3';font-size:20px;font-weight:300;fill:#aaa" transform="translate(.79 144.858)">5</text><text x="303.11" y="171.602" style="font-family:'Concourse 3';font-size:30px;font-weight:300;fill:#aaa" transform="translate(.79 144.858)">/</text><text x="316.91" y="177.852" style="font-family:'Concourse 3';font-size:20px;font-weight:300;fill:#aaa" transform="translate(.79 144.858)">5</text></g><text x="14.375" y="79.425" style="font-family:'Concourse 3';font-size:25px;font-weight:600;fill:#000">1</text><text x="13.25" y="139.425" style="font-family:'Concourse 3';font-size:25px;font-weight:600;fill:#000">2</text><text x="13.5" y="199.425" style="font-family:'Concourse 3';font-size:25px;font-weight:600;fill:#000">3</text><text x="13.125" y="259.363" style="font-family:'Concourse 3';font-size:25px;font-weight:600;fill:#000">4</text><text x="13.25" y="319.363" style="font-family:'Concourse 3';font-size:25px;font-weight:600;fill:#000">5</text><text x="64.375" y="29.425" style="font-family:'Concourse 3';font-size:25px;font-weight:600;fill:#000">1</text><text x="123.25" y="29.425" style="font-family:'Concourse 3';font-size:25px;font-weight:600;fill:#000">2</text><text x="183.5" y="29.425" style="font-family:'Concourse 3';font-size:25px;font-weight:600;fill:#000">3</text><text x="243.125" y="29.425" style="font-family:'Concourse 3';font-size:25px;font-weight:600;fill:#000">4</text><text x="303.25" y="29.425" style="font-family:'Concourse 3';font-size:25px;font-weight:600;fill:#000">5</text><g><path d="M92 70h16M103.05 74.95 108 70l-4.95-4.95" style="fill:none;stroke-width:2px;stroke:#c20"/></g><g><path d="M212 70h16M223.05 74.95 228 70l-4.95-4.95" style="fill:none;stroke-width:2px;stroke:#c20"/></g><g><path d="M332 70h16" style="fill:none;stroke-width:2px;stroke-dasharray:2,2;stroke:#c20"/><path d="M343.05 74.95 348 70l-4.95-4.95" style="fill:none;stroke-width:2px;stroke:#c20"/></g><g><path d="M70 152v16M65.05 163.05 70 168l4.95-4.95" style="fill:none;stroke-width:2px;stroke:#c20"/></g><g><path d="M70 272v16M65.05 283.05 70 288l4.95-4.95" style="fill:none;stroke-width:2px;stroke:#c20"/></g><g><path d="m113.659 86.34-28.316 28.317M85.343 107.657v7h7" style="fill:none;stroke-width:2px;stroke:#c20"/></g><g><path d="m233.659 86.34-28.316 28.317M205.343 107.657v7h7" style="fill:none;stroke-width:2px;stroke:#c20"/></g><g><path d="m173.659 146.341-28.316 28.316M145.343 167.657v7h7" style="fill:none;stroke-width:2px;stroke:#c20"/></g><g><path d="m293.659 146.341-28.316 28.316M265.343 167.657v7h7" style="fill:none;stroke-width:2px;stroke:#c20"/></g><g><path d="m233.659 206.341-28.316 28.316M205.343 227.657v7h7" style="fill:none;stroke-width:2px;stroke:#c20"/></g><g><path d="m293.659 266.341-28.316 28.316M265.343 287.657v7h7" style="fill:none;stroke-width:2px;stroke:#c20"/></g><g><path d="m173.659 266.341-28.316 28.316M145.343 287.657v7h7" style="fill:none;stroke-width:2px;stroke:#c20"/></g><g><path d="m113.659 326.341-28.316 28.316" style="fill:none;stroke-width:2px;stroke-dasharray:2,2;stroke:#c20"/><path d="M85.343 347.657v7h7" style="fill:none;stroke-width:2px;stroke:#c20"/></g><g><path d="m353.659 86.34-28.316 28.317" style="fill:none;stroke-width:2px;stroke-dasharray:2,2;stroke:#c20"/><path d="M325.343 107.657v7h7" style="fill:none;stroke-width:2px;stroke:#c20"/></g><g><path d="m145.343 354.657 28.316-28.316" style="fill:none;stroke-width:2px;stroke-dasharray:2,2;stroke:#c20"/><path d="M173.659 333.341v-7h-7" style="fill:none;stroke-width:2px;stroke:#c20"/></g><g><path d="m325.343 174.657 28.316-28.316" style="fill:none;stroke-width:2px;stroke-dasharray:2,2;stroke:#c20"/><path d="M353.659 153.341v-7h-7" style="fill:none;stroke-width:2px;stroke:#c20"/></g><g><path d="m233.659 326.341-28.316 28.316" style="fill:none;stroke-width:2px;stroke-dasharray:2,2;stroke:#c20"/><path d="M205.343 347.657v7h7" style="fill:none;stroke-width:2px;stroke:#c20"/></g><g><path d="m353.659 206.341-28.316 28.316" style="fill:none;stroke-width:2px;stroke-dasharray:2,2;stroke:#c20"/><path d="M325.343 227.657v7h7" style="fill:none;stroke-width:2px;stroke:#c20"/></g><g><path d="m113.659 206.341-28.316 28.316M85.343 227.657v7h7" style="fill:none;stroke-width:2px;stroke:#c20"/></g><g><path d="m85.343 174.657 88.316-88.316M173.659 93.34v-7h-7" style="fill:none;stroke-width:2px;stroke:#c20"/></g><g><path d="m265.343 354.657 88.316-88.316" style="fill:none;stroke-width:2px;stroke-dasharray:2,2;stroke:#c20"/><path d="M353.659 273.341v-7h-7" style="fill:none;stroke-width:2px;stroke:#c20"/></g><g><path d="m205.343 294.657 88.316-88.316M293.659 213.341v-7h-7" style="fill:none;stroke-width:2px;stroke:#c20"/></g><g><path d="M85.343 294.657 293.66 86.341M293.659 93.34v-7h-7" style="fill:none;stroke-width:2px;stroke:#c20"/></g></svg>
