<svg viewBox="5.5 4.5 147 92" stroke-width=".3" fill="currentColor" font-family="Arial" font-size="3.5">
<g text-anchor="middle">
<text x="21.11" y="95.6">0</text>
<text x="45.97" y="95.6">5.0×10<tspan font-size="0.833em" baseline-shift="super">17</tspan></text>
<text x="70.83" y="95.6">1.0×10<tspan font-size="0.833em" baseline-shift="super">18</tspan></text>
<text x="95.69" y="95.6">1.5×10<tspan font-size="0.833em" baseline-shift="super">18</tspan></text>
<text x="120.54" y="95.6">2.0×10<tspan font-size="0.833em" baseline-shift="super">18</tspan></text>
<text x="145.4" y="95.6">2.5×10<tspan font-size="0.833em" baseline-shift="super">18</tspan></text>
</g>
<g text-anchor="end">
<text x="18.11" y="89.93" dy=".35em">0</text>
<text x="18.11" y="76.11" dy=".35em">1.0×10<tspan font-size="0.833em" baseline-shift="super">3</tspan></text>
<text x="18.11" y="62.28" dy=".35em">2.0×10<tspan font-size="0.833em" baseline-shift="super">3</tspan></text>
<text x="18.11" y="48.46" dy=".35em">3.0×10<tspan font-size="0.833em" baseline-shift="super">3</tspan></text>
<text x="18.11" y="34.64" dy=".35em">4.0×10<tspan font-size="0.833em" baseline-shift="super">3</tspan></text>
<text x="18.11" y="20.82" dy=".35em">5.0×10<tspan font-size="0.833em" baseline-shift="super">3</tspan></text>
<text x="18.11" y="7" dy=".35em">6.0×10<tspan font-size="0.833em" baseline-shift="super">3</tspan></text>
</g>
<path stroke-dasharray=".5 .5" stroke-width=".2" stroke="gray" fill="none" d="M19.11 89.93H147.4M19.11 76.11H147.4M19.11 62.28H147.4M19.11 48.46H147.4M19.11 34.64H147.4M19.11 20.82H147.4M19.11 7H147.4M21.11 5v86.93M45.97 5v86.93M70.83 5v86.93M95.69 5v86.93M120.54 5v86.93M145.4 5v86.93"/>
<g fill="#00BFFF">
<rect x="21.2px" y="24px" width="120.5" height="65.9"/>
<path d="M21.11 18.64h.6v71.29h-.6zm.61 2.91h.6v68.37h-.6zm.6-.8h.6v69.17h-.6zm.61-.26h.6v69.44h-.6zm.6 1.17h.6v68.26h-.6zm.61-.31h.6v68.58h-.6z"/>
<path d="M24.74 22.45h.6v67.47h-.6zm.61-1.41h.6v68.88h-.6zm.6-2.24h.6v71.12h-.6zm.61 1.94h.6v69.19h-.6zm.6-1.37h.6v70.56h-.6zm.61 2.5h.6v68.06h-.6zm.6-2.17h.6v70.23h-.6zm.61 1.22h.6v69.01h-.6z"/>
<path d="M29.58 19.55h.6v70.38h-.6zm.6 1.51h.6v68.87h-.6zm.61-1.5h.6v70.36h-.6zm.6-1.1h.6v71.47h-.6zm.61 2.65h.6v68.82H32zm.6.21h.6v68.61h-.6zm.61-1.18h.6v69.78h-.6zm.6.76h.6v69.02h-.6zm.61-1.34h.6v70.36h-.6zm.6 2.21h.6v68.15h-.6zm.61-.85h.6v69.01h-.6z"/>
<path d="M36.23 22.95h.6v66.98h-.6zm.61-2.49h.6v69.46h-.6zm.6.17h.6v69.3h-.6zm.61 1.2h.6v68.1h-.6zm.6-1.8h.6v69.89h-.6zm.61 1.81h.6v68.08h-.6zm.6-.05h.6v68.14h-.6zm.61.4h.6v67.74h-.6zm.6-.48h.6v68.22h-.6zm.61-.63h.6v68.84h-.6zm.6.14h.6v68.7h-.6zm.6-.09h.6v68.8h-.6zm.61-.68h.6v69.48h-.6zm.6.83h.6v68.65h-.6zm.61-2.5h.6v71.15h-.6z"/>
<path d="M45.3 19.9h.6v70.03h-.6zm.61 1.78h.6v68.25h-.6zm.6-.33h.6v68.58h-.6zm.61-1.36h.6v69.93h-.6zm.6 2.77h.6v67.17h-.6zm.61-2.35h.6v69.52h-.6zm.6-.11h.6v69.63h-.6zm.61-.39h.6v70.02h-.6zm.6 1.53h.6v68.48h-.6zm.61-1.19h.6v69.67h-.6zm.6-.31h.6v69.99h-.6zm.61.34h.6v69.64h-.6zm.6 1.18h.6v68.47h-.6zm.61.94h.6v67.53h-.6zm.6-.79h.6v68.32h-.6z"/>
<path d="M54.37 19.87h.6v70.06h-.6zm.61.81h.6v69.24h-.6zm.6-1.61h.6v70.86h-.6zm.61 4h.6v66.85h-.6zm.6-1.5h.6v68.36h-.6zm.61-.03h.6v68.39h-.6zm.6-1.06h.6v69.45H58zm.61.59h.6v68.86h-.6zm.6-.32h.6v69.17h-.6zm.61.54h.6v68.64h-.6zm.6-2.31h.6v70.94h-.6zm.61 1.7h.6v69.24h-.6zm.6-1.39h.6v70.64h-.6zm.61 1.97h.6v68.66h-.6zm.6-1.05h.6v69.71h-.6zm.61.49h.6v69.23h-.6zm.6-.22h.6v69.45h-.6zm.61.12h.6v69.33h-.6zm.6 1.3h.6v68.03h-.6zm.61.03h.6v68h-.6zm.6-1.48h.6v69.48h-.6zm.6-.06h.6v69.53h-.6zm.61 1.88h.6v67.65h-.6zm.6-.79h.6v68.44h-.6zm.61.97h.6v67.47h-.6zm.6 1.45h.6v66.02h-.6zm.61-2.79h.6v68.82h-.6zm.6.91h.6v67.9h-.6zm.61-.74h.6v68.65h-.6zm.6-.11h.6v68.76h-.6zm.61 1.01h.6v67.75h-.6zm.6-.75h.6v68.5h-.6zm.61 1.63h.6v66.87h-.6zm.6-2.36h.6v69.23h-.6zm.61-.79h.6v70.02h-.6zm.6-.55h.6v70.57h-.6zm.61.95h.6v69.62h-.6zm.6.28h.6v69.34h-.6zm.61-.46h.6v69.8h-.6zm.6.22h.6v69.58h-.6zm.6 0h.6v69.58h-.6zm.61.53h.6v69.05h-.6zm.6-1.77h.6v70.82h-.6zm.61 2.37h.6v68.44h-.6zm.6-.94h.6v69.38h-.6zm.61 1.22h.6v68.17h-.6zm.6 1.92h.6v66.24h-.6zm.61-3.14h.6v69.38h-.6zm.6-.48h.6v69.87h-.6zm.61-.23h.6v70.1h-.6zm.6-.46h.6v70.56h-.6zm.61 1h.6v69.56h-.6zm.6.76h.6v68.8h-.6zm.61.52h.6v68.28h-.6zm.6-.25h.6v68.53h-.6zm.61-1.68h.6v70.21h-.6zm.6 1.78h.6v68.43h-.6zm.61-.6h.6v69.02h-.6zm.6-.34h.6v69.37h-.6zm.61.3h.6v69.06h-.6zm.6.89h.6v68.18h-.6zm.6-1.97h.6v70.14h-.6zm.61.68h.6v69.46h-.6zm.6 1.54h.6v67.93h-.6zm.61-1.54h.6v69.46h-.6zm.6 1.44h.6v68.03h-.6zm.61-.48h.6v68.51h-.6zm.6-1.61h.6v70.11h-.6zm.61-.25h.6v70.36h-.6zm.6 1.27h.6v69.09h-.6zm.61 2.05h.6v67.05h-.6zm.6-1.04h.6v68.08h-.6zm.61-1.39h.6v69.48h-.6zm.6.26h.6v69.22h-.6zm.61.47h.6v68.75h-.6zm.6-1.27h.6v70.02h-.6zm.61.75h.6v69.27h-.6zm.6.08h.6v69.19h-.6zm.61-.96h.6v70.14h-.6zm.6 2.23h.6v67.92h-.6zm.61-3.1h.6v71.01h-.6zm.6 1.57h.6v69.45h-.6zm.6 1h.6v68.44h-.6zm.61-.2h.6v68.65h-.6zm.6-1.76h.6v70.4h-.6zm.61 1.52h.6v68.88h-.6zm.6 1.62h.6v67.27h-.6zm.61-2.81h.6v70.07h-.6zm.6.53h.6v69.55h-.6zm.61-1.01h.6v70.56h-.6zm.6 1.31h.6v69.24h-.6zm.61.21h.6v69.04h-.6zm.6-.64h.6v69.67h-.6zm.61.7h.6v68.98h-.6zm.6-.31h.6v69.29h-.6zm.61.54h.6v68.75h-.6zm.6-2.09h.6v70.83h-.6zm.61 2.19h.6v68.65h-.6zm.6.38h.6v68.26h-.6zm.61-.76h.6v69.02h-.6zm.6-.37h.6v69.4h-.6zm.6-.16h.6v69.56h-.6zm.61.12h.6v69.44h-.6zm.6-2.6h.6v72.04h-.6zm.61 3.32h.6v68.72h-.6zm.6.19h.6v68.53h-.6zm.61-2.78h.6v71.3h-.6zm.6 2.78h.6v68.53h-.6zm.61-1.06h.6v69.59h-.6zm.6-.1h.6v69.69h-.6zm.61.32h.6v69.37h-.6zm.6.62h.6v68.75h-.6zm.61-1.49h.6v70.24h-.6zm.6.5h.6v69.74h-.6zm.61.15h.6v69.59h-.6zm.6.91h.6v68.68h-.6zm.61-.18h.6v68.86h-.6zm.6.21h.6v68.65h-.6zm.61.54h.6v68.11h-.6zm.6.12h.6v67.99h-.6zm.61-.1h.6v68.08h-.6zm.6-.74h.6v68.83h-.6zm.6-1.18h.6v70h-.6zm.61 1.09h.6v68.91h-.6zm.6-.51h.6v69.42h-.6zm.61 1.08h.6v68.35h-.6zm.6-.43h.6v68.77h-.6zm.61-2.36h.6v71.14h-.6zm.6 2.36h.6v68.77h-.6zm.61.38h.6v68.4h-.6zm.6-2.01h.6v70.4h-.6zm.61.61h.6v69.8h-.6zm.6.75h.6v69.05h-.6zm.61 2.22h.6v66.83h-.6zm.6-3.33h.6v70.16h-.6zm.61-1.01h.6v71.16h-.6zm.6 2.32h.6v68.84h-.6zm.61-.33h.6v69.17h-.6zm.6.96h.6v68.22h-.6zm.61.06h.6v68.15h-.6zm.6.42h.6v67.74h-.6zm.6-1.04h.6v68.77h-.6zm.61.45h.6v68.33h-.6zm.6-2.12h.6v70.45h-.6zm.61 1.47h.6v68.98h-.6z"/>
</g>
<path fill="none" d="M19.11 20.82H147.4" stroke="#9ACD32"/>
</svg>
