<svg viewBox="0 0 1140 415" fill="currentColor">
<path d="M1.84 311.55l-1.014-1.755L178.986 1.21h2.027l178.16 308.585-1.012 1.754H1.84zm8.347-5.99h339.626L180 11.435 10.187 305.56zM563 402.7l56.344-97.59h112.688l-56.344-97.592 56.344-97.59H619.344L563 12.338l-56.344 97.59H393.968l56.344 97.59-56.344 97.59h112.688L563 402.7zm-1.165 11.764L502.677 312H384.363l-1.166-2.018 59.158-102.464-59.158-102.463 1.166-2.02h118.314L561.835.575h2.33l59.158 102.462h118.314l1.166 2.02-59.158 102.462 59.158 102.46-1.166 2.02H623.323l-59.158 102.46h-2.33zM960 402.7l17.455-30.234h34.91l-17.455-30.233 21.434-37.124h42.868l17.455 30.23 17.454-30.24h34.92l-17.453-30.235 17.455-30.233h-34.91l-21.434-37.125 21.433-37.125h34.91l-17.454-30.234 17.452-30.234h-34.91l-17.456-30.23-17.455 30.233h-42.866L994.915 72.8l17.456-30.233h-34.91L960 12.335 942.545 42.57h-34.91l17.455 30.233-21.434 37.125h-42.868l-17.455-30.233-17.454 30.233h-34.92l17.452 30.233-17.455 30.24h34.91L847.3 207.53l-21.432 37.125h-34.91l17.456 30.233-17.452 30.234h34.91l17.455 30.232 17.453-30.235h42.866l21.434 37.12-17.454 30.234h34.91L960 402.7zm-1.165 11.764l-20.27-35.106H898.03l-1.166-2.02 20.268-35.105L899.677 312h-34.91L844.5 347.106h-2.332L821.9 312h-40.537l-1.166-2.018 20.268-35.106-20.268-35.106 1.166-2.02H821.9l17.455-30.232-17.455-30.233h-40.537l-1.166-2.018 20.268-35.106-20.268-35.1 1.166-2.02H821.9l20.268-35.1h2.33l20.27 35.107h34.91l17.454-30.233-20.268-35.11 1.165-2.017h40.53L958.83.573h2.33l20.27 35.105h40.538l1.167 2.017L1002.87 72.8l17.454 30.234h34.91L1075.5 67.93h2.332l20.268 35.106h40.537l1.166 2.02-20.268 35.105 20.268 35.11-1.166 2.02H1098.1l-17.455 30.238 17.455 30.233h40.537l1.166 2.02-20.268 35.106 20.268 35.106-1.166 2.02H1098.1l-20.268 35.105h-2.33L1055.23 312h-34.91l-17.454 30.233 20.268 35.106-1.165 2.01h-40.54l-20.27 35.104h-2.33z"/>
</svg>
