<svg viewBox="0 0 720 287" xml:space="preserve" style="clip-rule:evenodd;fill-rule:evenodd;stroke-linecap:square;stroke-miterlimit:1.41421"><rect x="1" y="1" width="101" height="50" style="fill:none;stroke-width:1;stroke:black"/><path d="M51.5 51L51.5 1" style="fill:none;stroke-width:1;stroke:black"/><text x="11.51" y="40.76" style="fill:black;font-family:'Concourse 3';font-size:43.5588px;font-weight:300">A</text><path d="M77 21.5C79.21 21.5 81 23.29 81 25.5 81 27.71 79.21 29.5 77 29.5 74.79 29.5 73 27.71 73 25.5 73 23.29 74.79 21.5 77 21.5Z" fill="black"/><path d="M77 25.5L155 25.5" style="fill:none;stroke-width:1;stroke:black"/><path d="M154 25L149 20" style="fill:none;stroke-width:1;stroke:black"/><path d="M154 26L149 31" style="fill:none;stroke-width:1;stroke:black"/><rect x="155.04" y="1" width="101" height="50" style="fill:none;stroke-width:1;stroke:black"/><path d="M205.54 51L205.54 1" style="fill:none;stroke-width:1;stroke:black"/><text x="167.55" y="40.76" style="fill:black;font-family:'Concourse 3';font-size:43.5588px;font-weight:300">B</text><path d="M231.04 21.5C233.25 21.5 235.04 23.29 235.04 25.5 235.04 27.71 233.25 29.5 231.04 29.5 228.83 29.5 227.04 27.71 227.04 25.5 227.04 23.29 228.83 21.5 231.04 21.5Z" fill="black"/><path d="M231.04 25.5L309.04 25.5" style="fill:none;stroke-width:1;stroke:black"/><path d="M308.04 25L303.04 20" style="fill:none;stroke-width:1;stroke:black"/><path d="M308.04 26L303.04 31" style="fill:none;stroke-width:1;stroke:black"/><rect x="309" y="1" width="101" height="50" style="fill:none;stroke-width:1;stroke:black"/><path d="M359.5 51L359.5 1" style="fill:none;stroke-width:1;stroke:black"/><text x="319.51" y="40.76" style="fill:black;font-family:'Concourse 3';font-size:43.5588px;font-weight:300">C</text><path d="M385 21.5C387.21 21.5 389 23.29 389 25.5 389 27.71 387.21 29.5 385 29.5 382.79 29.5 381 27.71 381 25.5 381 23.29 382.79 21.5 385 21.5Z" fill="black"/><path d="M385 25.5L463 25.5" style="fill:none;stroke-width:1;stroke:black"/><path d="M462 25L457 20" style="fill:none;stroke-width:1;stroke:black"/><path d="M462 26L457 31" style="fill:none;stroke-width:1;stroke:black"/><rect x="463" y="1" width="101" height="50" style="fill:none;stroke-width:1;stroke:black"/><path d="M513.5 51L513.5 1" style="fill:none;stroke-width:1;stroke:black"/><text x="473.51" y="40.76" style="fill:black;font-family:'Concourse 3';font-size:43.5588px;font-weight:300">D</text><path d="M539 21.5C541.21 21.5 543 23.29 543 25.5 543 27.71 541.21 29.5 539 29.5 536.79 29.5 535 27.71 535 25.5 535 23.29 536.79 21.5 539 21.5Z" fill="black"/><path d="M539 25.5L617 25.5" style="fill:none;stroke-width:1;stroke:black"/><path d="M616 25L611 20" style="fill:none;stroke-width:1;stroke:black"/><path d="M616 26L611 31" style="fill:none;stroke-width:1;stroke:black"/><rect x="617" y="1" width="101" height="50" style="fill:none;stroke-width:1;stroke:black"/><path d="M667.5 51L667.5 1" style="fill:none;stroke-width:1;stroke:black"/><text x="629.51" y="40.76" style="fill:black;font-family:'Concourse 3';font-size:43.5588px;font-weight:300">E</text><path d="M667.5 1.44L717.61 50.64" style="fill:none;stroke-width:1;stroke:black"/><path d="M717.94 1.42L667.93 50.28" style="fill:none;stroke-width:1;stroke:black"/><rect x="34" y="236" width="101" height="50" style="fill:none;stroke-width:1;stroke:black"/><path d="M84.5 286L84.5 236" style="fill:none;stroke-width:1;stroke:black"/><text x="44.51" y="275.76" style="fill:black;font-family:'Concourse 3';font-size:43.5588px;font-weight:300">C</text><path d="M110 256.5C112.21 256.5 114 258.29 114 260.5 114 262.71 112.21 264.5 110 264.5 107.79 264.5 106 262.71 106 260.5 106 258.29 107.79 256.5 110 256.5Z" fill="black"/><path d="M169 191L164 196" style="fill:none;stroke-width:1;stroke:black"/><path d="M170 191L175 196" style="fill:none;stroke-width:1;stroke:black"/><path d="M110 260.5C153.24 260.5 169.52 237.77 169.52 190.75" style="fill:none;stroke-linejoin:round;stroke-width:1;stroke:black"/><rect x="254" y="236" width="101" height="50" style="fill:none;stroke-width:1;stroke:black"/><path d="M304.5 286L304.5 236" style="fill:none;stroke-width:1;stroke:black"/><text x="264.51" y="275.76" style="fill:black;font-family:'Concourse 3';font-size:43.5588px;font-weight:300">C</text><path d="M330 256.5C332.21 256.5 334 258.29 334 260.5 334 262.71 332.21 264.5 330 264.5 327.79 264.5 326 262.71 326 260.5 326 258.29 327.79 256.5 330 256.5Z" fill="black"/><path d="M389 191L384 196" style="fill:none;stroke-width:1;stroke:black"/><path d="M390 191L395 196" style="fill:none;stroke-width:1;stroke:black"/><path d="M330 260.5C373.24 260.5 389.52 237.77 389.52 190.75" style="fill:none;stroke-width:1;stroke:black"/><rect x="474" y="236" width="101" height="50" style="fill:none;stroke-width:1;stroke:black"/><path d="M524.5 286L524.5 236" style="fill:none;stroke-width:1;stroke:black"/><text x="487.51" y="275.76" style="fill:black;font-family:'Concourse 3';font-size:43.5588px;font-weight:300">E</text><path d="M550 256.5C552.21 256.5 554 258.29 554 260.5 554 262.71 552.21 264.5 550 264.5 547.79 264.5 546 262.71 546 260.5 546 258.29 547.79 256.5 550 256.5Z" fill="black"/><path d="M609 191L604 196" style="fill:none;stroke-width:1;stroke:black"/><path d="M610 191L615 196" style="fill:none;stroke-width:1;stroke:black"/><path d="M550 260.5C593.24 260.5 609.52 237.77 609.52 190.75" style="fill:none;stroke-width:1;stroke:black"/><rect x="145" y="141" width="101" height="50" style="fill:none;stroke-width:1;stroke:black"/><path d="M195.5 191L195.5 141" style="fill:none;stroke-width:1;stroke:black"/><text x="157.51" y="180.76" style="fill:black;font-family:'Concourse 3';font-size:43.5588px;font-weight:300">Y</text><path d="M221 161.5C223.21 161.5 225 163.29 225 165.5 225 167.71 223.21 169.5 221 169.5 218.79 169.5 217 167.71 217 165.5 217 163.29 218.79 161.5 221 161.5Z" fill="black"/><rect x="365" y="141" width="101" height="50" style="fill:none;stroke-width:1;stroke:black"/><path d="M415.5 191L415.5 141" style="fill:none;stroke-width:1;stroke:black"/><text x="379.51" y="180.76" style="fill:black;font-family:'Concourse 3';font-size:43.5588px;font-weight:300">L</text><path d="M441 161.5C443.21 161.5 445 163.29 445 165.5 445 167.71 443.21 169.5 441 169.5 438.79 169.5 437 167.71 437 165.5 437 163.29 438.79 161.5 441 161.5Z" fill="black"/><rect x="585" y="141" width="101" height="50" style="fill:none;stroke-width:1;stroke:black"/><path d="M635.5 191L635.5 141" style="fill:none;stroke-width:1;stroke:black"/><text x="603.51" y="180.76" style="fill:black;font-family:'Concourse 3';font-size:43.5588px;font-weight:300">!</text><path d="M661 161.5C663.21 161.5 665 163.29 665 165.5 665 167.71 663.21 169.5 661 169.5 658.79 169.5 657 167.71 657 165.5 657 163.29 658.79 161.5 661 161.5Z" fill="black"/><path d="M279 234.52L274 229.52" style="fill:none;stroke-width:1;stroke:black"/><path d="M499 234.52L494 229.52" style="fill:none;stroke-width:1;stroke:black"/><path d="M280 234.52L285 229.52" style="fill:none;stroke-width:1;stroke:black"/><path d="M500 234.52L505 229.52" style="fill:none;stroke-width:1;stroke:black"/><path d="M220 166.02C258.05 166.02 275.22 183.8 278.8 220.1 279.08 222.99 279.28 226 279.4 229.12 279.48 231.35 279.52 233.65 279.52 236" style="fill:none;stroke-width:1;stroke:black"/><path d="M440 166.02C478.05 166.02 495.22 183.8 498.8 220.1 499.08 222.99 499.28 226 499.4 229.12 499.48 231.35 499.52 233.65 499.52 236" style="fill:none;stroke-width:1;stroke:black"/><path d="M661 165.13C661 126.09 647.94 100.5 607.91 100.5 567.88 100.5 487.06 100.5 445.52 100.5 403.98 100.5 390.38 112.55 390.38 141.38" style="fill:none;stroke-width:1;stroke:black"/><path d="M390 140.52L385 135.52" style="fill:none;stroke-width:1;stroke:black"/><path d="M391 140.52L396 135.52" style="fill:none;stroke-width:1;stroke:black"/></svg>
