<svg viewBox="-2.4 -1058.401 1475.237 1060.801" fill="none" stroke="#63a100" stroke-width="7.376">
<path d="M0 0 13.258 -13.258 26.517 -26.517 39.775 -39.775 53.033 -53.033 66.291 -66.291 79.55 -79.55 92.808 -92.808 106.066 -106.066 119.324 -119.324 132.583 -132.583 145.841 -145.841 159.099 -159.099 172.357 -172.357 185.616 -185.616 198.874 -198.874 212.132 -212.132 218.545 -229.751 224.958 -247.371 231.371 -264.99 237.784 -282.609 244.196 -300.228 250.609 -317.847 257.022 -335.467 263.435 -353.086 261.801 -371.765 260.167 -390.443 258.533 -409.122 256.898 -427.801 247.523 -444.039 238.148 -460.276 222.789 -471.031 M222.789 -471.031 M222.789 -471.031 207.43 -481.786 198.055 -498.024 M207.43 -481.786 M238.148 -460.276 228.773 -476.514 M228.773 -476.514 M228.773 -476.514 219.398 -492.752 217.764 -511.431 M219.398 -492.752 M238.148 -460.276 228.773 -476.514 219.398 -492.752 217.764 -511.431 216.13 -530.11 214.496 -548.788 M214.496 -548.788 M214.496 -548.788 212.862 -567.467 219.275 -585.086 M212.862 -567.467 M219.398 -492.752 204.039 -503.507 M204.039 -503.507 M204.039 -503.507 188.68 -514.262 179.305 -530.5 M188.68 -514.262 M256.898 -427.801 255.264 -446.479 253.63 -465.158 244.255 -481.396 M244.255 -481.396 M244.255 -481.396 234.88 -497.634 233.246 -516.312 M234.88 -497.634 M253.63 -465.158 251.996 -483.836 M251.996 -483.836 M251.996 -483.836 250.362 -502.515 256.775 -520.134 M250.362 -502.515 M253.63 -465.158 251.996 -483.836 250.362 -502.515 256.775 -520.134 263.187 -537.754 269.6 -555.373 M269.6 -555.373 M269.6 -555.373 276.013 -572.992 289.271 -586.25 M276.013 -572.992 M250.362 -502.515 240.987 -518.753 M240.987 -518.753 M240.987 -518.753 231.612 -534.991 229.978 -553.67 M231.612 -534.991 M256.898 -427.801 255.264 -446.479 253.63 -465.158 251.996 -483.836 250.362 -502.515 256.775 -520.134 263.187 -537.754 269.6 -555.373 276.013 -572.992 282.426 -590.611 288.839 -608.231 287.205 -626.909 M287.205 -626.909 M287.205 -626.909 285.571 -645.588 291.983 -663.207 M285.571 -645.588 M288.839 -608.231 295.252 -625.85 M295.252 -625.85 M295.252 -625.85 301.665 -643.469 314.923 -656.727 M301.665 -643.469 M288.839 -608.231 295.252 -625.85 301.665 -643.469 314.923 -656.727 328.181 -669.986 341.439 -683.244 M341.439 -683.244 M341.439 -683.244 354.698 -696.502 372.317 -702.915 M354.698 -696.502 M301.665 -643.469 300.031 -662.148 M300.031 -662.148 M300.031 -662.148 298.396 -680.826 304.809 -698.446 M298.396 -680.826 M250.362 -502.515 240.987 -518.753 231.612 -534.991 216.253 -545.746 M216.253 -545.746 M216.253 -545.746 200.893 -556.5 191.518 -572.738 M200.893 -556.5 M231.612 -534.991 222.237 -551.229 M222.237 -551.229 M222.237 -551.229 212.862 -567.467 211.228 -586.146 M212.862 -567.467 M231.612 -534.991 222.237 -551.229 212.862 -567.467 211.228 -586.146 209.593 -604.824 207.959 -623.503 M207.959 -623.503 M207.959 -623.503 206.325 -642.182 212.738 -659.801 M206.325 -642.182 M212.862 -567.467 197.503 -578.222 M197.503 -578.222 M197.503 -578.222 182.143 -588.976 172.768 -605.214 M182.143 -588.976 M263.435 -353.086 269.848 -370.705 276.261 -388.324 282.674 -405.944 289.087 -423.563 287.452 -442.242 285.818 -460.92 276.443 -477.158 M276.443 -477.158 M276.443 -477.158 267.068 -493.396 265.434 -512.075 M267.068 -493.396 M285.818 -460.92 284.184 -479.599 M284.184 -479.599 M284.184 -479.599 282.55 -498.277 288.963 -515.897 M282.55 -498.277 M285.818 -460.92 284.184 -479.599 282.55 -498.277 288.963 -515.897 295.376 -533.516 301.789 -551.135 M301.789 -551.135 M301.789 -551.135 308.201 -568.754 321.46 -582.013 M308.201 -568.754 M282.55 -498.277 273.175 -514.515 M273.175 -514.515 M273.175 -514.515 263.8 -530.753 262.166 -549.432 M263.8 -530.753 M289.087 -423.563 295.499 -441.182 301.912 -458.801 300.278 -477.48 M300.278 -477.48 M300.278 -477.48 298.644 -496.159 305.057 -513.778 M298.644 -496.159 M301.912 -458.801 308.325 -476.421 M308.325 -476.421 M308.325 -476.421 314.738 -494.04 327.996 -507.298 M314.738 -494.04 M301.912 -458.801 308.325 -476.421 314.738 -494.04 327.996 -507.298 341.255 -520.556 354.513 -533.815 M354.513 -533.815 M354.513 -533.815 367.771 -547.073 385.39 -553.486 M367.771 -547.073 M314.738 -494.04 313.104 -512.718 M313.104 -512.718 M313.104 -512.718 311.47 -531.397 317.883 -549.016 M311.47 -531.397 M289.087 -423.563 295.499 -441.182 301.912 -458.801 308.325 -476.421 314.738 -494.04 327.996 -507.298 341.255 -520.556 354.513 -533.815 367.771 -547.073 381.029 -560.331 394.288 -573.589 400.7 -591.209 M400.7 -591.209 M400.7 -591.209 407.113 -608.828 420.372 -622.086 M407.113 -608.828 M394.288 -573.589 407.546 -586.848 M407.546 -586.848 M407.546 -586.848 420.804 -600.106 438.423 -606.519 M420.804 -600.106 M394.288 -573.589 407.546 -586.848 420.804 -600.106 438.423 -606.519 456.043 -612.932 473.662 -619.344 M473.662 -619.344 M473.662 -619.344 491.281 -625.757 509.96 -624.123 M491.281 -625.757 M420.804 -600.106 427.217 -617.725 M427.217 -617.725 M427.217 -617.725 433.63 -635.344 446.888 -648.603 M433.63 -635.344 M314.738 -494.04 313.104 -512.718 311.47 -531.397 302.095 -547.635 M302.095 -547.635 M302.095 -547.635 292.72 -563.873 291.086 -582.552 M292.72 -563.873 M311.47 -531.397 309.836 -550.076 M309.836 -550.076 M309.836 -550.076 308.201 -568.754 314.614 -586.374 M308.201 -568.754 M311.47 -531.397 309.836 -550.076 308.201 -568.754 314.614 -586.374 321.027 -603.993 327.44 -621.612 M327.44 -621.612 M327.44 -621.612 333.853 -639.231 347.111 -652.49 M333.853 -639.231 M308.201 -568.754 298.826 -584.992 M298.826 -584.992 M298.826 -584.992 289.451 -601.23 287.817 -619.909 M289.451 -601.23 M263.435 -353.086 269.848 -370.705 276.261 -388.324 282.674 -405.944 289.087 -423.563 295.499 -441.182 301.912 -458.801 308.325 -476.421 314.738 -494.04 327.996 -507.298 341.255 -520.556 354.513 -533.815 367.771 -547.073 381.029 -560.331 394.288 -573.589 407.546 -586.848 420.804 -600.106 434.062 -613.364 447.321 -626.622 460.579 -639.881 473.837 -653.139 480.25 -670.758 486.663 -688.377 485.029 -707.056 M485.029 -707.056 M485.029 -707.056 483.395 -725.735 489.807 -743.354 M483.395 -725.735 M486.663 -688.377 493.076 -705.997 M493.076 -705.997 M493.076 -705.997 499.489 -723.616 512.747 -736.874 M499.489 -723.616 M486.663 -688.377 493.076 -705.997 499.489 -723.616 512.747 -736.874 526.005 -750.132 539.263 -763.391 M539.263 -763.391 M539.263 -763.391 552.522 -776.649 570.141 -783.062 M552.522 -776.649 M499.489 -723.616 497.854 -742.294 M497.854 -742.294 M497.854 -742.294 496.22 -760.973 502.633 -778.592 M496.22 -760.973 M473.837 -653.139 487.095 -666.397 500.354 -679.655 506.766 -697.275 M506.766 -697.275 M506.766 -697.275 513.179 -714.894 526.438 -728.152 M513.179 -714.894 M500.354 -679.655 513.612 -692.914 M513.612 -692.914 M513.612 -692.914 526.87 -706.172 544.489 -712.585 M526.87 -706.172 M500.354 -679.655 513.612 -692.914 526.87 -706.172 544.489 -712.585 562.109 -718.998 579.728 -725.41 M579.728 -725.41 M579.728 -725.41 597.347 -731.823 616.026 -730.189 M597.347 -731.823 M526.87 -706.172 533.283 -723.791 M533.283 -723.791 M533.283 -723.791 539.696 -741.41 552.954 -754.669 M539.696 -741.41 M473.837 -653.139 487.095 -666.397 500.354 -679.655 513.612 -692.914 526.87 -706.172 544.489 -712.585 562.109 -718.998 579.728 -725.41 597.347 -731.823 614.966 -738.236 632.586 -744.649 645.844 -757.907 M645.844 -757.907 M645.844 -757.907 659.102 -771.166 676.721 -777.579 M659.102 -771.166 M632.586 -744.649 650.205 -751.062 M650.205 -751.062 M650.205 -751.062 667.824 -757.475 686.503 -755.841 M667.824 -757.475 M632.586 -744.649 650.205 -751.062 667.824 -757.475 686.503 -755.841 705.181 -754.207 723.86 -752.572 M723.86 -752.572 M723.86 -752.572 742.539 -750.938 758.777 -741.563 M742.539 -750.938 M667.824 -757.475 681.082 -770.733 M681.082 -770.733 M681.082 -770.733 694.341 -783.991 711.96 -790.404 M694.341 -783.991 M526.87 -706.172 533.283 -723.791 539.696 -741.41 538.062 -760.089 M538.062 -760.089 M538.062 -760.089 536.428 -778.768 542.84 -796.387 M536.428 -778.768 M539.696 -741.41 546.109 -759.03 M546.109 -759.03 M546.109 -759.03 552.522 -776.649 565.78 -789.907 M552.522 -776.649 M539.696 -741.41 546.109 -759.03 552.522 -776.649 565.78 -789.907 579.038 -803.165 592.296 -816.424 M592.296 -816.424 M592.296 -816.424 605.555 -829.682 623.174 -836.095 M605.555 -829.682 M552.522 -776.649 550.887 -795.327 M550.887 -795.327 M550.887 -795.327 549.253 -814.006 555.666 -831.625 M549.253 -814.006 M314.738 -494.04 313.104 -512.718 311.47 -531.397 309.836 -550.076 308.201 -568.754 298.826 -584.992 289.451 -601.23 274.092 -611.985 M274.092 -611.985 M274.092 -611.985 258.733 -622.739 249.358 -638.977 M258.733 -622.739 M289.451 -601.23 280.076 -617.468 M280.076 -617.468 M280.076 -617.468 270.701 -633.706 269.067 -652.385 M270.701 -633.706 M289.451 -601.23 280.076 -617.468 270.701 -633.706 269.067 -652.385 267.433 -671.064 265.799 -689.742 M265.799 -689.742 M265.799 -689.742 264.165 -708.421 270.578 -726.04 M264.165 -708.421 M270.701 -633.706 255.342 -644.461 M255.342 -644.461 M255.342 -644.461 239.983 -655.215 230.608 -671.453 M239.983 -655.215 M308.201 -568.754 306.567 -587.433 304.933 -606.112 295.558 -622.35 M295.558 -622.35 M295.558 -622.35 286.183 -638.588 284.549 -657.266 M286.183 -638.588 M304.933 -606.112 303.299 -624.79 M303.299 -624.79 M303.299 -624.79 301.665 -643.469 308.078 -661.088 M301.665 -643.469 M304.933 -606.112 303.299 -624.79 301.665 -643.469 308.078 -661.088 314.49 -678.707 320.903 -696.327 M320.903 -696.327 M320.903 -696.327 327.316 -713.946 340.574 -727.204 M327.316 -713.946 M301.665 -643.469 292.29 -659.707 M292.29 -659.707 M292.29 -659.707 282.915 -675.945 281.281 -694.624 M282.915 -675.945 M308.201 -568.754 306.567 -587.433 304.933 -606.112 303.299 -624.79 301.665 -643.469 308.078 -661.088 314.49 -678.707 320.903 -696.327 327.316 -713.946 333.729 -731.565 340.142 -749.184 338.508 -767.863 M338.508 -767.863 M338.508 -767.863 336.874 -786.542 343.287 -804.161 M336.874 -786.542 M340.142 -749.184 346.555 -766.804 M346.555 -766.804 M346.555 -766.804 352.968 -784.423 366.226 -797.681 M352.968 -784.423 M340.142 -749.184 346.555 -766.804 352.968 -784.423 366.226 -797.681 379.484 -810.939 392.742 -824.198 M392.742 -824.198 M392.742 -824.198 406.001 -837.456 423.62 -843.869 M406.001 -837.456 M352.968 -784.423 351.334 -803.102 M351.334 -803.102 M351.334 -803.102 349.699 -821.78 356.112 -839.399 M349.699 -821.78 M301.665 -643.469 292.29 -659.707 282.915 -675.945 267.556 -686.7 M267.556 -686.7 M267.556 -686.7 252.197 -697.454 242.822 -713.692 M252.197 -697.454 M282.915 -675.945 273.54 -692.183 M273.54 -692.183 M273.54 -692.183 264.165 -708.421 262.531 -727.1 M264.165 -708.421 M282.915 -675.945 273.54 -692.183 264.165 -708.421 262.531 -727.1 260.896 -745.778 259.262 -764.457 M259.262 -764.457 M259.262 -764.457 257.628 -783.136 264.041 -800.755 M257.628 -783.136 M264.165 -708.421 248.806 -719.175 M248.806 -719.175 M248.806 -719.175 233.447 -729.93 224.072 -746.168 M233.447 -729.93 M212.132 -212.132 225.39 -225.39 238.649 -238.649 251.907 -251.907 265.165 -265.165 278.423 -278.423 291.682 -291.682 304.94 -304.94 318.198 -318.198 324.611 -335.817 331.024 -353.437 337.437 -371.056 343.85 -388.675 342.215 -407.354 340.581 -426.032 331.206 -442.27 M331.206 -442.27 M331.206 -442.27 321.831 -458.508 320.197 -477.187 M321.831 -458.508 M340.581 -426.032 338.947 -444.711 M338.947 -444.711 M338.947 -444.711 337.313 -463.39 343.726 -481.009 M337.313 -463.39 M340.581 -426.032 338.947 -444.711 337.313 -463.39 343.726 -481.009 350.139 -498.628 356.552 -516.247 M356.552 -516.247 M356.552 -516.247 362.964 -533.867 376.223 -547.125 M362.964 -533.867 M337.313 -463.39 327.938 -479.628 M327.938 -479.628 M327.938 -479.628 318.563 -495.866 316.929 -514.544 M318.563 -495.866 M343.85 -388.675 350.262 -406.294 356.675 -423.913 355.041 -442.592 M355.041 -442.592 M355.041 -442.592 353.407 -461.271 359.82 -478.89 M353.407 -461.271 M356.675 -423.913 363.088 -441.533 M363.088 -441.533 M363.088 -441.533 369.501 -459.152 382.759 -472.41 M369.501 -459.152 M356.675 -423.913 363.088 -441.533 369.501 -459.152 382.759 -472.41 396.018 -485.668 409.276 -498.927 M409.276 -498.927 M409.276 -498.927 422.534 -512.185 440.153 -518.598 M422.534 -512.185 M369.501 -459.152 367.867 -477.831 M367.867 -477.831 M367.867 -477.831 366.233 -496.509 372.646 -514.128 M366.233 -496.509 M343.85 -388.675 350.262 -406.294 356.675 -423.913 363.088 -441.533 369.501 -459.152 382.759 -472.41 396.018 -485.668 409.276 -498.927 422.534 -512.185 435.792 -525.443 449.051 -538.701 455.463 -556.321 M455.463 -556.321 M455.463 -556.321 461.876 -573.94 475.135 -587.198 M461.876 -573.94 M449.051 -538.701 462.309 -551.96 M462.309 -551.96 M462.309 -551.96 475.567 -565.218 493.186 -571.631 M475.567 -565.218 M449.051 -538.701 462.309 -551.96 475.567 -565.218 493.186 -571.631 510.806 -578.044 528.425 -584.457 M528.425 -584.457 M528.425 -584.457 546.044 -590.869 564.723 -589.235 M546.044 -590.869 M475.567 -565.218 481.98 -582.837 M481.98 -582.837 M481.98 -582.837 488.393 -600.456 501.651 -613.715 M488.393 -600.456 M369.501 -459.152 367.867 -477.831 366.233 -496.509 356.858 -512.747 M356.858 -512.747 M356.858 -512.747 347.483 -528.985 345.849 -547.664 M347.483 -528.985 M366.233 -496.509 364.599 -515.188 M364.599 -515.188 M364.599 -515.188 362.964 -533.867 369.377 -551.486 M362.964 -533.867 M366.233 -496.509 364.599 -515.188 362.964 -533.867 369.377 -551.486 375.79 -569.105 382.203 -586.724 M382.203 -586.724 M382.203 -586.724 388.616 -604.343 401.874 -617.602 M388.616 -604.343 M362.964 -533.867 353.589 -550.105 M353.589 -550.105 M353.589 -550.105 344.214 -566.342 342.58 -585.021 M344.214 -566.342 M318.198 -318.198 331.456 -331.456 344.715 -344.715 357.973 -357.973 371.231 -371.231 377.644 -388.85 384.057 -406.47 382.423 -425.148 M382.423 -425.148 M382.423 -425.148 380.788 -443.827 387.201 -461.446 M380.788 -443.827 M384.057 -406.47 390.47 -424.089 M390.47 -424.089 M390.47 -424.089 396.883 -441.708 410.141 -454.966 M396.883 -441.708 M384.057 -406.47 390.47 -424.089 396.883 -441.708 410.141 -454.966 423.399 -468.225 436.657 -481.483 M436.657 -481.483 M436.657 -481.483 449.916 -494.741 467.535 -501.154 M449.916 -494.741 M396.883 -441.708 395.248 -460.387 M395.248 -460.387 M395.248 -460.387 393.614 -479.065 400.027 -496.685 M393.614 -479.065 M371.231 -371.231 384.489 -384.489 397.748 -397.748 404.16 -415.367 M404.16 -415.367 M404.16 -415.367 410.573 -432.986 423.832 -446.244 M410.573 -432.986 M397.748 -397.748 411.006 -411.006 M411.006 -411.006 M411.006 -411.006 424.264 -424.264 441.883 -430.677 M424.264 -424.264 M397.748 -397.748 411.006 -411.006 424.264 -424.264 441.883 -430.677 459.503 -437.09 477.122 -443.503 M477.122 -443.503 M477.122 -443.503 494.741 -449.916 513.42 -448.281 M494.741 -449.916 M424.264 -424.264 430.677 -441.883 M430.677 -441.883 M430.677 -441.883 437.09 -459.503 450.348 -472.761 M437.09 -459.503 M371.231 -371.231 384.489 -384.489 397.748 -397.748 411.006 -411.006 424.264 -424.264 441.883 -430.677 459.503 -437.09 477.122 -443.503 494.741 -449.916 512.36 -456.328 529.979 -462.741 543.238 -476 M543.238 -476 M543.238 -476 556.496 -489.258 574.115 -495.671 M556.496 -489.258 M529.979 -462.741 547.599 -469.154 M547.599 -469.154 M547.599 -469.154 565.218 -475.567 583.897 -473.933 M565.218 -475.567 M529.979 -462.741 547.599 -469.154 565.218 -475.567 583.897 -473.933 602.575 -472.299 621.254 -470.665 M621.254 -470.665 M621.254 -470.665 639.933 -469.03 656.171 -459.655 M639.933 -469.03 M565.218 -475.567 578.476 -488.825 M578.476 -488.825 M578.476 -488.825 591.734 -502.084 609.354 -508.496 M591.734 -502.084 M424.264 -424.264 430.677 -441.883 437.09 -459.503 435.456 -478.181 M435.456 -478.181 M435.456 -478.181 433.821 -496.86 440.234 -514.479 M433.821 -496.86 M437.09 -459.503 443.503 -477.122 M443.503 -477.122 M443.503 -477.122 449.916 -494.741 463.174 -507.999 M449.916 -494.741 M437.09 -459.503 443.503 -477.122 449.916 -494.741 463.174 -507.999 476.432 -521.258 489.69 -534.516 M489.69 -534.516 M489.69 -534.516 502.949 -547.774 520.568 -554.187 M502.949 -547.774 M449.916 -494.741 448.281 -513.42 M448.281 -513.42 M448.281 -513.42 446.647 -532.098 453.06 -549.718 M446.647 -532.098 M318.198 -318.198 331.456 -331.456 344.715 -344.715 357.973 -357.973 371.231 -371.231 384.489 -384.489 397.748 -397.748 411.006 -411.006 424.264 -424.264 441.883 -430.677 459.503 -437.09 477.122 -443.503 494.741 -449.916 512.36 -456.328 529.979 -462.741 547.599 -469.154 565.218 -475.567 582.837 -481.98 600.456 -488.393 618.076 -494.806 635.695 -501.219 648.953 -514.477 662.211 -527.735 668.624 -545.354 M668.624 -545.354 M668.624 -545.354 675.037 -562.974 688.295 -576.232 M675.037 -562.974 M662.211 -527.735 675.47 -540.993 M675.47 -540.993 M675.47 -540.993 688.728 -554.252 706.347 -560.664 M688.728 -554.252 M662.211 -527.735 675.47 -540.993 688.728 -554.252 706.347 -560.664 723.966 -567.077 741.586 -573.49 M741.586 -573.49 M741.586 -573.49 759.205 -579.903 777.884 -578.269 M759.205 -579.903 M688.728 -554.252 695.141 -571.871 M695.141 -571.871 M695.141 -571.871 701.554 -589.49 714.812 -602.748 M701.554 -589.49 M635.695 -501.219 653.314 -507.631 670.933 -514.044 684.192 -527.303 M684.192 -527.303 M684.192 -527.303 697.45 -540.561 715.069 -546.974 M697.45 -540.561 M670.933 -514.044 688.553 -520.457 M688.553 -520.457 M688.553 -520.457 706.172 -526.87 724.851 -525.236 M706.172 -526.87 M670.933 -514.044 688.553 -520.457 706.172 -526.87 724.851 -525.236 743.529 -523.602 762.208 -521.968 M762.208 -521.968 M762.208 -521.968 780.886 -520.333 797.124 -510.958 M780.886 -520.333 M706.172 -526.87 719.43 -540.128 M719.43 -540.128 M719.43 -540.128 732.688 -553.387 750.308 -559.799 M732.688 -553.387 M635.695 -501.219 653.314 -507.631 670.933 -514.044 688.553 -520.457 706.172 -526.87 724.851 -525.236 743.529 -523.602 762.208 -521.968 780.886 -520.333 799.565 -518.699 818.244 -517.065 835.863 -523.478 M835.863 -523.478 M835.863 -523.478 853.482 -529.891 872.161 -528.257 M853.482 -529.891 M818.244 -517.065 836.922 -515.431 M836.922 -515.431 M836.922 -515.431 855.601 -513.797 871.839 -504.422 M855.601 -513.797 M818.244 -517.065 836.922 -515.431 855.601 -513.797 871.839 -504.422 888.077 -495.047 904.315 -485.672 M904.315 -485.672 M904.315 -485.672 920.553 -476.297 931.308 -460.938 M920.553 -476.297 M855.601 -513.797 873.22 -520.21 M873.22 -520.21 M873.22 -520.21 890.84 -526.623 909.518 -524.988 M890.84 -526.623 M706.172 -526.87 719.43 -540.128 732.688 -553.387 739.101 -571.006 M739.101 -571.006 M739.101 -571.006 745.514 -588.625 758.772 -601.883 M745.514 -588.625 M732.688 -553.387 745.947 -566.645 M745.947 -566.645 M745.947 -566.645 759.205 -579.903 776.824 -586.316 M759.205 -579.903 M732.688 -553.387 745.947 -566.645 759.205 -579.903 776.824 -586.316 794.443 -592.729 812.063 -599.142 M812.063 -599.142 M812.063 -599.142 829.682 -605.555 848.36 -603.92 M829.682 -605.555 M759.205 -579.903 765.618 -597.522 M765.618 -597.522 M765.618 -597.522 772.031 -615.142 785.289 -628.4 M772.031 -615.142 M424.264 -424.264 430.677 -441.883 437.09 -459.503 443.503 -477.122 449.916 -494.741 448.281 -513.42 446.647 -532.098 437.272 -548.336 M437.272 -548.336 M437.272 -548.336 427.897 -564.574 426.263 -583.253 M427.897 -564.574 M446.647 -532.098 445.013 -550.777 M445.013 -550.777 M445.013 -550.777 443.379 -569.456 449.792 -587.075 M443.379 -569.456 M446.647 -532.098 445.013 -550.777 443.379 -569.456 449.792 -587.075 456.205 -604.694 462.618 -622.313 M462.618 -622.313 M462.618 -622.313 469.03 -639.933 482.289 -653.191 M469.03 -639.933 M443.379 -569.456 434.004 -585.694 M434.004 -585.694 M434.004 -585.694 424.629 -601.932 422.995 -620.61 M424.629 -601.932 M449.916 -494.741 456.328 -512.36 462.741 -529.979 461.107 -548.658 M461.107 -548.658 M461.107 -548.658 459.473 -567.337 465.886 -584.956 M459.473 -567.337 M462.741 -529.979 469.154 -547.599 M469.154 -547.599 M469.154 -547.599 475.567 -565.218 488.825 -578.476 M475.567 -565.218 M462.741 -529.979 469.154 -547.599 475.567 -565.218 488.825 -578.476 502.084 -591.734 515.342 -604.993 M515.342 -604.993 M515.342 -604.993 528.6 -618.251 546.219 -624.664 M528.6 -618.251 M475.567 -565.218 473.933 -583.897 M473.933 -583.897 M473.933 -583.897 472.299 -602.575 478.712 -620.194 M472.299 -602.575 M449.916 -494.741 456.328 -512.36 462.741 -529.979 469.154 -547.599 475.567 -565.218 488.825 -578.476 502.084 -591.734 515.342 -604.993 528.6 -618.251 541.858 -631.509 555.117 -644.767 561.529 -662.387 M561.529 -662.387 M561.529 -662.387 567.942 -680.006 581.201 -693.264 M567.942 -680.006 M555.117 -644.767 568.375 -658.026 M568.375 -658.026 M568.375 -658.026 581.633 -671.284 599.252 -677.697 M581.633 -671.284 M555.117 -644.767 568.375 -658.026 581.633 -671.284 599.252 -677.697 616.872 -684.11 634.491 -690.523 M634.491 -690.523 M634.491 -690.523 652.11 -696.935 670.789 -695.301 M652.11 -696.935 M581.633 -671.284 588.046 -688.903 M588.046 -688.903 M588.046 -688.903 594.459 -706.522 607.717 -719.781 M594.459 -706.522 M475.567 -565.218 473.933 -583.897 472.299 -602.575 462.924 -618.813 M462.924 -618.813 M462.924 -618.813 453.549 -635.051 451.915 -653.73 M453.549 -635.051 M472.299 -602.575 470.665 -621.254 M470.665 -621.254 M470.665 -621.254 469.03 -639.933 475.443 -657.552 M469.03 -639.933 M472.299 -602.575 470.665 -621.254 469.03 -639.933 475.443 -657.552 481.856 -675.171 488.269 -692.79 M488.269 -692.79 M488.269 -692.79 494.682 -710.41 507.94 -723.668 M494.682 -710.41 M469.03 -639.933 459.655 -656.171 M459.655 -656.171 M459.655 -656.171 450.28 -672.409 448.646 -691.087 M450.28 -672.409 M212.132 -212.132 225.39 -225.39 238.649 -238.649 251.907 -251.907 265.165 -265.165 278.423 -278.423 291.682 -291.682 304.94 -304.94 318.198 -318.198 331.456 -331.456 344.715 -344.715 357.973 -357.973 371.231 -371.231 384.489 -384.489 397.748 -397.748 411.006 -411.006 424.264 -424.264 441.883 -430.677 459.503 -437.09 477.122 -443.503 494.741 -449.916 512.36 -456.328 529.979 -462.741 547.599 -469.154 565.218 -475.567 582.837 -481.98 600.456 -488.393 618.076 -494.806 635.695 -501.219 653.314 -507.631 670.933 -514.044 688.553 -520.457 706.172 -526.87 723.791 -533.283 741.41 -539.696 759.03 -546.109 776.649 -552.522 794.268 -558.935 811.887 -565.347 829.507 -571.76 847.126 -578.173 860.384 -591.431 873.642 -604.69 886.901 -617.948 900.159 -631.206 906.572 -648.825 912.985 -666.445 911.35 -685.123 M911.35 -685.123 M911.35 -685.123 909.716 -703.802 916.129 -721.421 M909.716 -703.802 M912.985 -666.445 919.397 -684.064 M919.397 -684.064 M919.397 -684.064 925.81 -701.683 939.069 -714.941 M925.81 -701.683 M912.985 -666.445 919.397 -684.064 925.81 -701.683 939.069 -714.941 952.327 -728.2 965.585 -741.458 M965.585 -741.458 M965.585 -741.458 978.843 -754.716 996.463 -761.129 M978.843 -754.716 M925.81 -701.683 924.176 -720.362 M924.176 -720.362 M924.176 -720.362 922.542 -739.04 928.955 -756.66 M922.542 -739.04 M900.159 -631.206 913.417 -644.464 926.675 -657.723 933.088 -675.342 M933.088 -675.342 M933.088 -675.342 939.501 -692.961 952.759 -706.219 M939.501 -692.961 M926.675 -657.723 939.934 -670.981 M939.934 -670.981 M939.934 -670.981 953.192 -684.239 970.811 -690.652 M953.192 -684.239 M926.675 -657.723 939.934 -670.981 953.192 -684.239 970.811 -690.652 988.43 -697.065 1006.049 -703.478 M1006.049 -703.478 M1006.049 -703.478 1023.669 -709.891 1042.347 -708.256 M1023.669 -709.891 M953.192 -684.239 959.605 -701.858 M959.605 -701.858 M959.605 -701.858 966.018 -719.478 979.276 -732.736 M966.018 -719.478 M900.159 -631.206 913.417 -644.464 926.675 -657.723 939.934 -670.981 953.192 -684.239 970.811 -690.652 988.43 -697.065 1006.049 -703.478 1023.669 -709.891 1041.288 -716.304 1058.907 -722.716 1072.165 -735.975 M1072.165 -735.975 M1072.165 -735.975 1085.424 -749.233 1103.043 -755.646 M1085.424 -749.233 M1058.907 -722.716 1076.526 -729.129 M1076.526 -729.129 M1076.526 -729.129 1094.146 -735.542 1112.824 -733.908 M1094.146 -735.542 M1058.907 -722.716 1076.526 -729.129 1094.146 -735.542 1112.824 -733.908 1131.503 -732.274 1150.182 -730.64 M1150.182 -730.64 M1150.182 -730.64 1168.86 -729.005 1185.098 -719.63 M1168.86 -729.005 M1094.146 -735.542 1107.404 -748.8 M1107.404 -748.8 M1107.404 -748.8 1120.662 -762.059 1138.281 -768.472 M1120.662 -762.059 M953.192 -684.239 959.605 -701.858 966.018 -719.478 964.383 -738.156 M964.383 -738.156 M964.383 -738.156 962.749 -756.835 969.162 -774.454 M962.749 -756.835 M966.018 -719.478 972.43 -737.097 M972.43 -737.097 M972.43 -737.097 978.843 -754.716 992.102 -767.974 M978.843 -754.716 M966.018 -719.478 972.43 -737.097 978.843 -754.716 992.102 -767.974 1005.36 -781.233 1018.618 -794.491 M1018.618 -794.491 M1018.618 -794.491 1031.876 -807.749 1049.496 -814.162 M1031.876 -807.749 M978.843 -754.716 977.209 -773.395 M977.209 -773.395 M977.209 -773.395 975.575 -792.073 981.988 -809.693 M975.575 -792.073 M847.126 -578.173 864.745 -584.586 882.364 -590.999 899.983 -597.412 917.603 -603.825 930.861 -617.083 944.119 -630.341 950.532 -647.96 M950.532 -647.96 M950.532 -647.96 956.945 -665.58 970.203 -678.838 M956.945 -665.58 M944.119 -630.341 957.377 -643.599 M957.377 -643.599 M957.377 -643.599 970.636 -656.858 988.255 -663.271 M970.636 -656.858 M944.119 -630.341 957.377 -643.599 970.636 -656.858 988.255 -663.271 1005.874 -669.683 1023.493 -676.096 M1023.493 -676.096 M1023.493 -676.096 1041.113 -682.509 1059.791 -680.875 M1041.113 -682.509 M970.636 -656.858 977.049 -674.477 M977.049 -674.477 M977.049 -674.477 983.461 -692.096 996.72 -705.354 M983.461 -692.096 M917.603 -603.825 935.222 -610.238 952.841 -616.65 966.099 -629.909 M966.099 -629.909 M966.099 -629.909 979.358 -643.167 996.977 -649.58 M979.358 -643.167 M952.841 -616.65 970.46 -623.063 M970.46 -623.063 M970.46 -623.063 988.08 -629.476 1006.758 -627.842 M988.08 -629.476 M952.841 -616.65 970.46 -623.063 988.08 -629.476 1006.758 -627.842 1025.437 -626.208 1044.116 -624.574 M1044.116 -624.574 M1044.116 -624.574 1062.794 -622.939 1079.032 -613.564 M1062.794 -622.939 M988.08 -629.476 1001.338 -642.734 M1001.338 -642.734 M1001.338 -642.734 1014.596 -655.993 1032.215 -662.406 M1014.596 -655.993 M917.603 -603.825 935.222 -610.238 952.841 -616.65 970.46 -623.063 988.08 -629.476 1006.758 -627.842 1025.437 -626.208 1044.116 -624.574 1062.794 -622.939 1081.473 -621.305 1100.152 -619.671 1117.771 -626.084 M1117.771 -626.084 M1117.771 -626.084 1135.39 -632.497 1154.069 -630.863 M1135.39 -632.497 M1100.152 -619.671 1118.83 -618.037 M1118.83 -618.037 M1118.83 -618.037 1137.509 -616.403 1153.747 -607.028 M1137.509 -616.403 M1100.152 -619.671 1118.83 -618.037 1137.509 -616.403 1153.747 -607.028 1169.985 -597.653 1186.223 -588.278 M1186.223 -588.278 M1186.223 -588.278 1202.461 -578.903 1213.215 -563.544 M1202.461 -578.903 M1137.509 -616.403 1155.128 -622.816 M1155.128 -622.816 M1155.128 -622.816 1172.747 -629.229 1191.426 -627.594 M1172.747 -629.229 M988.08 -629.476 1001.338 -642.734 1014.596 -655.993 1021.009 -673.612 M1021.009 -673.612 M1021.009 -673.612 1027.422 -691.231 1040.68 -704.489 M1027.422 -691.231 M1014.596 -655.993 1027.854 -669.251 M1027.854 -669.251 M1027.854 -669.251 1041.113 -682.509 1058.732 -688.922 M1041.113 -682.509 M1014.596 -655.993 1027.854 -669.251 1041.113 -682.509 1058.732 -688.922 1076.351 -695.335 1093.97 -701.748 M1093.97 -701.748 M1093.97 -701.748 1111.59 -708.161 1130.268 -706.527 M1111.59 -708.161 M1041.113 -682.509 1047.526 -700.128 M1047.526 -700.128 M1047.526 -700.128 1053.938 -717.748 1067.197 -731.006 M1053.938 -717.748 M847.126 -578.173 864.745 -584.586 882.364 -590.999 899.983 -597.412 917.603 -603.825 935.222 -610.238 952.841 -616.65 970.46 -623.063 988.08 -629.476 1006.758 -627.842 1025.437 -626.208 1044.116 -624.574 1062.794 -622.939 1081.473 -621.305 1100.152 -619.671 1118.83 -618.037 1137.509 -616.403 1156.187 -614.769 1174.866 -613.134 1193.545 -611.5 1212.223 -609.866 1229.843 -616.279 1247.462 -622.692 1260.72 -635.95 M1260.72 -635.95 M1260.72 -635.95 1273.978 -649.208 1291.598 -655.621 M1273.978 -649.208 M1247.462 -622.692 1265.081 -629.105 M1265.081 -629.105 M1265.081 -629.105 1282.7 -635.518 1301.379 -633.883 M1282.7 -635.518 M1247.462 -622.692 1265.081 -629.105 1282.7 -635.518 1301.379 -633.883 1320.058 -632.249 1338.736 -630.615 M1338.736 -630.615 M1338.736 -630.615 1357.415 -628.981 1373.653 -619.606 M1357.415 -628.981 M1282.7 -635.518 1295.959 -648.776 M1295.959 -648.776 M1295.959 -648.776 1309.217 -662.034 1326.836 -668.447 M1309.217 -662.034 M1212.223 -609.866 1230.902 -608.232 1249.581 -606.598 1267.2 -613.011 M1267.2 -613.011 M1267.2 -613.011 1284.819 -619.424 1303.498 -617.789 M1284.819 -619.424 M1249.581 -606.598 1268.259 -604.964 M1268.259 -604.964 M1268.259 -604.964 1286.938 -603.329 1303.176 -593.954 M1286.938 -603.329 M1249.581 -606.598 1268.259 -604.964 1286.938 -603.329 1303.176 -593.954 1319.414 -584.579 1335.652 -575.204 M1335.652 -575.204 M1335.652 -575.204 1351.89 -565.829 1362.645 -550.47 M1351.89 -565.829 M1286.938 -603.329 1304.557 -609.742 M1304.557 -609.742 M1304.557 -609.742 1322.177 -616.155 1340.855 -614.521 M1322.177 -616.155 M1212.223 -609.866 1230.902 -608.232 1249.581 -606.598 1268.259 -604.964 1286.938 -603.329 1303.176 -593.954 1319.414 -584.579 1335.652 -575.204 1351.89 -565.829 1368.128 -556.454 1384.366 -547.079 1403.045 -545.445 M1403.045 -545.445 M1403.045 -545.445 1421.723 -543.811 1437.961 -534.436 M1421.723 -543.811 M1384.366 -547.079 1400.604 -537.704 M1400.604 -537.704 M1400.604 -537.704 1416.842 -528.329 1427.596 -512.97 M1416.842 -528.329 M1384.366 -547.079 1400.604 -537.704 1416.842 -528.329 1427.596 -512.97 1438.351 -497.611 1449.106 -482.252 M1449.106 -482.252 M1449.106 -482.252 1459.86 -466.893 1463.116 -448.428 M1459.86 -466.893 M1416.842 -528.329 1435.521 -526.695 M1435.521 -526.695 M1435.521 -526.695 1454.199 -525.061 1470.437 -515.686 M1454.199 -525.061 M1286.938 -603.329 1304.557 -609.742 1322.177 -616.155 1335.435 -629.413 M1335.435 -629.413 M1335.435 -629.413 1348.693 -642.672 1366.312 -649.085 M1348.693 -642.672 M1322.177 -616.155 1339.796 -622.568 M1339.796 -622.568 M1339.796 -622.568 1357.415 -628.981 1376.094 -627.347 M1357.415 -628.981 M1322.177 -616.155 1339.796 -622.568 1357.415 -628.981 1376.094 -627.347 1394.772 -625.713 1413.451 -624.078 M1413.451 -624.078 M1413.451 -624.078 1432.13 -622.444 1448.368 -613.069 M1432.13 -622.444 M1357.415 -628.981 1370.673 -642.239 M1370.673 -642.239 M1370.673 -642.239 1383.932 -655.497 1401.551 -661.91 M1383.932 -655.497 M988.08 -629.476 1001.338 -642.734 1014.596 -655.993 1027.854 -669.251 1041.113 -682.509 1047.526 -700.128 1053.938 -717.748 1052.304 -736.426 M1052.304 -736.426 M1052.304 -736.426 1050.67 -755.105 1057.083 -772.724 M1050.67 -755.105 M1053.938 -717.748 1060.351 -735.367 M1060.351 -735.367 M1060.351 -735.367 1066.764 -752.986 1080.022 -766.244 M1066.764 -752.986 M1053.938 -717.748 1060.351 -735.367 1066.764 -752.986 1080.022 -766.244 1093.281 -779.503 1106.539 -792.761 M1106.539 -792.761 M1106.539 -792.761 1119.797 -806.019 1137.416 -812.432 M1119.797 -806.019 M1066.764 -752.986 1065.13 -771.665 M1065.13 -771.665 M1065.13 -771.665 1063.496 -790.343 1069.909 -807.963 M1063.496 -790.343 M1041.113 -682.509 1054.371 -695.767 1067.629 -709.026 1074.042 -726.645 M1074.042 -726.645 M1074.042 -726.645 1080.455 -744.264 1093.713 -757.522 M1080.455 -744.264 M1067.629 -709.026 1080.887 -722.284 M1080.887 -722.284 M1080.887 -722.284 1094.146 -735.542 1111.765 -741.955 M1094.146 -735.542 M1067.629 -709.026 1080.887 -722.284 1094.146 -735.542 1111.765 -741.955 1129.384 -748.368 1147.003 -754.781 M1147.003 -754.781 M1147.003 -754.781 1164.623 -761.194 1183.301 -759.56 M1164.623 -761.194 M1094.146 -735.542 1100.559 -753.161 M1100.559 -753.161 M1100.559 -753.161 1106.971 -770.781 1120.23 -784.039 M1106.971 -770.781 M1041.113 -682.509 1054.371 -695.767 1067.629 -709.026 1080.887 -722.284 1094.146 -735.542 1111.765 -741.955 1129.384 -748.368 1147.003 -754.781 1164.623 -761.194 1182.242 -767.607 1199.861 -774.019 1213.119 -787.278 M1213.119 -787.278 M1213.119 -787.278 1226.378 -800.536 1243.997 -806.949 M1226.378 -800.536 M1199.861 -774.019 1217.48 -780.432 M1217.48 -780.432 M1217.48 -780.432 1235.1 -786.845 1253.778 -785.211 M1235.1 -786.845 M1199.861 -774.019 1217.48 -780.432 1235.1 -786.845 1253.778 -785.211 1272.457 -783.577 1291.136 -781.943 M1291.136 -781.943 M1291.136 -781.943 1309.814 -780.309 1326.052 -770.934 M1309.814 -780.309 M1235.1 -786.845 1248.358 -800.103 M1248.358 -800.103 M1248.358 -800.103 1261.616 -813.362 1279.235 -819.775 M1261.616 -813.362 M1094.146 -735.542 1100.559 -753.161 1106.971 -770.781 1105.337 -789.459 M1105.337 -789.459 M1105.337 -789.459 1103.703 -808.138 1110.116 -825.757 M1103.703 -808.138 M1106.971 -770.781 1113.384 -788.4 M1113.384 -788.4 M1113.384 -788.4 1119.797 -806.019 1133.055 -819.277 M1119.797 -806.019 M1106.971 -770.781 1113.384 -788.4 1119.797 -806.019 1133.055 -819.277 1146.314 -832.536 1159.572 -845.794 M1159.572 -845.794 M1159.572 -845.794 1172.83 -859.052 1190.449 -865.465 M1172.83 -859.052 M1119.797 -806.019 1118.163 -824.698 M1118.163 -824.698 M1118.163 -824.698 1116.529 -843.376 1122.942 -860.996 M1116.529 -843.376 M424.264 -424.264 430.677 -441.883 437.09 -459.503 443.503 -477.122 449.916 -494.741 456.328 -512.36 462.741 -529.979 469.154 -547.599 475.567 -565.218 473.933 -583.897 472.299 -602.575 470.665 -621.254 469.03 -639.933 459.655 -656.171 450.28 -672.409 434.921 -683.163 M434.921 -683.163 M434.921 -683.163 419.562 -693.918 410.187 -710.156 M419.562 -693.918 M450.28 -672.409 440.905 -688.646 M440.905 -688.646 M440.905 -688.646 431.53 -704.884 429.896 -723.563 M431.53 -704.884 M450.28 -672.409 440.905 -688.646 431.53 -704.884 429.896 -723.563 428.262 -742.242 426.628 -760.92 M426.628 -760.92 M426.628 -760.92 424.994 -779.599 431.407 -797.218 M424.994 -779.599 M431.53 -704.884 416.171 -715.639 M416.171 -715.639 M416.171 -715.639 400.812 -726.394 391.437 -742.632 M400.812 -726.394 M469.03 -639.933 467.396 -658.611 465.762 -677.29 456.387 -693.528 M456.387 -693.528 M456.387 -693.528 447.012 -709.766 445.378 -728.444 M447.012 -709.766 M465.762 -677.29 464.128 -695.969 M464.128 -695.969 M464.128 -695.969 462.494 -714.647 468.907 -732.266 M462.494 -714.647 M465.762 -677.29 464.128 -695.969 462.494 -714.647 468.907 -732.266 475.319 -749.886 481.732 -767.505 M481.732 -767.505 M481.732 -767.505 488.145 -785.124 501.403 -798.382 M488.145 -785.124 M462.494 -714.647 453.119 -730.885 M453.119 -730.885 M453.119 -730.885 443.744 -747.123 442.11 -765.802 M443.744 -747.123 M469.03 -639.933 467.396 -658.611 465.762 -677.29 464.128 -695.969 462.494 -714.647 468.907 -732.266 475.319 -749.886 481.732 -767.505 488.145 -785.124 494.558 -802.743 500.971 -820.363 499.337 -839.041 M499.337 -839.041 M499.337 -839.041 497.703 -857.72 504.116 -875.339 M497.703 -857.72 M500.971 -820.363 507.384 -837.982 M507.384 -837.982 M507.384 -837.982 513.797 -855.601 527.055 -868.859 M513.797 -855.601 M500.971 -820.363 507.384 -837.982 513.797 -855.601 527.055 -868.859 540.313 -882.118 553.572 -895.376 M553.572 -895.376 M553.572 -895.376 566.83 -908.634 584.449 -915.047 M566.83 -908.634 M513.797 -855.601 512.163 -874.28 M512.163 -874.28 M512.163 -874.28 510.528 -892.958 516.941 -910.578 M510.528 -892.958 M462.494 -714.647 453.119 -730.885 443.744 -747.123 428.385 -757.878 M428.385 -757.878 M428.385 -757.878 413.026 -768.632 403.651 -784.87 M413.026 -768.632 M443.744 -747.123 434.369 -763.361 M434.369 -763.361 M434.369 -763.361 424.994 -779.599 423.36 -798.278 M424.994 -779.599 M443.744 -747.123 434.369 -763.361 424.994 -779.599 423.36 -798.278 421.725 -816.956 420.091 -835.635 M420.091 -835.635 M420.091 -835.635 418.457 -854.314 424.87 -871.933 M418.457 -854.314 M424.994 -779.599 409.635 -790.354 M409.635 -790.354 M409.635 -790.354 394.276 -801.108 384.901 -817.346 M394.276 -801.108 M475.567 -565.218 481.98 -582.837 488.393 -600.456 494.806 -618.076 501.219 -635.695 499.584 -654.374 497.95 -673.052 488.575 -689.29 M488.575 -689.29 M488.575 -689.29 479.2 -705.528 477.566 -724.207 M479.2 -705.528 M497.95 -673.052 496.316 -691.731 M496.316 -691.731 M496.316 -691.731 494.682 -710.41 501.095 -728.029 M494.682 -710.41 M497.95 -673.052 496.316 -691.731 494.682 -710.41 501.095 -728.029 507.508 -745.648 513.921 -763.267 M513.921 -763.267 M513.921 -763.267 520.333 -780.886 533.592 -794.145 M520.333 -780.886 M494.682 -710.41 485.307 -726.647 M485.307 -726.647 M485.307 -726.647 475.932 -742.885 474.298 -761.564 M475.932 -742.885 M501.219 -635.695 507.631 -653.314 514.044 -670.933 512.41 -689.612 M512.41 -689.612 M512.41 -689.612 510.776 -708.291 517.189 -725.91 M510.776 -708.291 M514.044 -670.933 520.457 -688.553 M520.457 -688.553 M520.457 -688.553 526.87 -706.172 540.128 -719.43 M526.87 -706.172 M514.044 -670.933 520.457 -688.553 526.87 -706.172 540.128 -719.43 553.387 -732.688 566.645 -745.947 M566.645 -745.947 M566.645 -745.947 579.903 -759.205 597.522 -765.618 M579.903 -759.205 M526.87 -706.172 525.236 -724.851 M525.236 -724.851 M525.236 -724.851 523.602 -743.529 530.015 -761.148 M523.602 -743.529 M501.219 -635.695 507.631 -653.314 514.044 -670.933 520.457 -688.553 526.87 -706.172 540.128 -719.43 553.387 -732.688 566.645 -745.947 579.903 -759.205 593.161 -772.463 606.42 -785.721 612.833 -803.341 M612.833 -803.341 M612.833 -803.341 619.245 -820.96 632.504 -834.218 M619.245 -820.96 M606.42 -785.721 619.678 -798.98 M619.678 -798.98 M619.678 -798.98 632.936 -812.238 650.555 -818.651 M632.936 -812.238 M606.42 -785.721 619.678 -798.98 632.936 -812.238 650.555 -818.651 668.175 -825.064 685.794 -831.477 M685.794 -831.477 M685.794 -831.477 703.413 -837.889 722.092 -836.255 M703.413 -837.889 M632.936 -812.238 639.349 -829.857 M639.349 -829.857 M639.349 -829.857 645.762 -847.476 659.02 -860.735 M645.762 -847.476 M526.87 -706.172 525.236 -724.851 523.602 -743.529 514.227 -759.767 M514.227 -759.767 M514.227 -759.767 504.852 -776.005 503.218 -794.684 M504.852 -776.005 M523.602 -743.529 521.968 -762.208 M521.968 -762.208 M521.968 -762.208 520.333 -780.886 526.746 -798.506 M520.333 -780.886 M523.602 -743.529 521.968 -762.208 520.333 -780.886 526.746 -798.506 533.159 -816.125 539.572 -833.744 M539.572 -833.744 M539.572 -833.744 545.985 -851.363 559.243 -864.622 M545.985 -851.363 M520.333 -780.886 510.958 -797.124 M510.958 -797.124 M510.958 -797.124 501.583 -813.362 499.949 -832.041 M501.583 -813.362 M475.567 -565.218 481.98 -582.837 488.393 -600.456 494.806 -618.076 501.219 -635.695 507.631 -653.314 514.044 -670.933 520.457 -688.553 526.87 -706.172 540.128 -719.43 553.387 -732.688 566.645 -745.947 579.903 -759.205 593.161 -772.463 606.42 -785.721 619.678 -798.98 632.936 -812.238 646.194 -825.496 659.453 -838.754 672.711 -852.013 685.969 -865.271 692.382 -882.89 698.795 -900.509 697.161 -919.188 M697.161 -919.188 M697.161 -919.188 695.527 -937.867 701.939 -955.486 M695.527 -937.867 M698.795 -900.509 705.208 -918.129 M705.208 -918.129 M705.208 -918.129 711.621 -935.748 724.879 -949.006 M711.621 -935.748 M698.795 -900.509 705.208 -918.129 711.621 -935.748 724.879 -949.006 738.137 -962.264 751.395 -975.523 M751.395 -975.523 M751.395 -975.523 764.654 -988.781 782.273 -995.194 M764.654 -988.781 M711.621 -935.748 709.986 -954.426 M709.986 -954.426 M709.986 -954.426 708.352 -973.105 714.765 -990.724 M708.352 -973.105 M685.969 -865.271 699.227 -878.529 712.486 -891.787 718.899 -909.407 M718.899 -909.407 M718.899 -909.407 725.311 -927.026 738.57 -940.284 M725.311 -927.026 M712.486 -891.787 725.744 -905.046 M725.744 -905.046 M725.744 -905.046 739.002 -918.304 756.621 -924.717 M739.002 -918.304 M712.486 -891.787 725.744 -905.046 739.002 -918.304 756.621 -924.717 774.241 -931.13 791.86 -937.543 M791.86 -937.543 M791.86 -937.543 809.479 -943.955 828.158 -942.321 M809.479 -943.955 M739.002 -918.304 745.415 -935.923 M745.415 -935.923 M745.415 -935.923 751.828 -953.542 765.086 -966.801 M751.828 -953.542 M685.969 -865.271 699.227 -878.529 712.486 -891.787 725.744 -905.046 739.002 -918.304 756.621 -924.717 774.241 -931.13 791.86 -937.543 809.479 -943.955 827.098 -950.368 844.718 -956.781 857.976 -970.039 M857.976 -970.039 M857.976 -970.039 871.234 -983.298 888.853 -989.711 M871.234 -983.298 M844.718 -956.781 862.337 -963.194 M862.337 -963.194 M862.337 -963.194 879.956 -969.607 898.635 -967.973 M879.956 -969.607 M844.718 -956.781 862.337 -963.194 879.956 -969.607 898.635 -967.973 917.313 -966.339 935.992 -964.704 M935.992 -964.704 M935.992 -964.704 954.671 -963.07 970.909 -953.695 M954.671 -963.07 M879.956 -969.607 893.214 -982.865 M893.214 -982.865 M893.214 -982.865 906.473 -996.123 924.092 -1002.536 M906.473 -996.123 M739.002 -918.304 745.415 -935.923 751.828 -953.542 750.194 -972.221 M750.194 -972.221 M750.194 -972.221 748.56 -990.9 754.972 -1008.519 M748.56 -990.9 M751.828 -953.542 758.241 -971.162 M758.241 -971.162 M758.241 -971.162 764.654 -988.781 777.912 -1002.039 M764.654 -988.781 M751.828 -953.542 758.241 -971.162 764.654 -988.781 777.912 -1002.039 791.17 -1015.297 804.428 -1028.556 M804.428 -1028.556 M804.428 -1028.556 817.687 -1041.814 835.306 -1048.227 M817.687 -1041.814 M764.654 -988.781 763.019 -1007.459 M763.019 -1007.459 M763.019 -1007.459 761.385 -1026.138 767.798 -1043.757 M761.385 -1026.138 M526.87 -706.172 525.236 -724.851 523.602 -743.529 521.968 -762.208 520.333 -780.886 510.958 -797.124 501.583 -813.362 486.224 -824.117 M486.224 -824.117 M486.224 -824.117 470.865 -834.872 461.49 -851.11 M470.865 -834.872 M501.583 -813.362 492.208 -829.6 M492.208 -829.6 M492.208 -829.6 482.833 -845.838 481.199 -864.517 M482.833 -845.838 M501.583 -813.362 492.208 -829.6 482.833 -845.838 481.199 -864.517 479.565 -883.196 477.931 -901.874 M477.931 -901.874 M477.931 -901.874 476.297 -920.553 482.71 -938.172 M476.297 -920.553 M482.833 -845.838 467.474 -856.593 M467.474 -856.593 M467.474 -856.593 452.115 -867.347 442.74 -883.585 M452.115 -867.347 M520.333 -780.886 518.699 -799.565 517.065 -818.244 507.69 -834.482 M507.69 -834.482 M507.69 -834.482 498.315 -850.72 496.681 -869.398 M498.315 -850.72 M517.065 -818.244 515.431 -836.922 M515.431 -836.922 M515.431 -836.922 513.797 -855.601 520.21 -873.22 M513.797 -855.601 M517.065 -818.244 515.431 -836.922 513.797 -855.601 520.21 -873.22 526.623 -890.84 533.035 -908.459 M533.035 -908.459 M533.035 -908.459 539.448 -926.078 552.707 -939.336 M539.448 -926.078 M513.797 -855.601 504.422 -871.839 M504.422 -871.839 M504.422 -871.839 495.047 -888.077 493.413 -906.756 M495.047 -888.077 M520.333 -780.886 518.699 -799.565 517.065 -818.244 515.431 -836.922 513.797 -855.601 520.21 -873.22 526.623 -890.84 533.035 -908.459 539.448 -926.078 545.861 -943.697 552.274 -961.316 550.64 -979.995 M550.64 -979.995 M550.64 -979.995 549.006 -998.674 555.419 -1016.293 M549.006 -998.674 M552.274 -961.316 558.687 -978.936 M558.687 -978.936 M558.687 -978.936 565.1 -996.555 578.358 -1009.813 M565.1 -996.555 M552.274 -961.316 558.687 -978.936 565.1 -996.555 578.358 -1009.813 591.616 -1023.071 604.875 -1036.33 M604.875 -1036.33 M604.875 -1036.33 618.133 -1049.588 635.752 -1056.001 M618.133 -1049.588 M565.1 -996.555 563.466 -1015.234 M563.466 -1015.234 M563.466 -1015.234 561.831 -1033.912 568.244 -1051.531 M561.831 -1033.912 M513.797 -855.601 504.422 -871.839 495.047 -888.077 479.688 -898.832 M479.688 -898.832 M479.688 -898.832 464.329 -909.586 454.954 -925.824 M464.329 -909.586 M495.047 -888.077 485.672 -904.315 M485.672 -904.315 M485.672 -904.315 476.297 -920.553 474.663 -939.232 M476.297 -920.553 M495.047 -888.077 485.672 -904.315 476.297 -920.553 474.663 -939.232 473.028 -957.91 471.394 -976.589 M471.394 -976.589 M471.394 -976.589 469.76 -995.268 476.173 -1012.887 M469.76 -995.268 M476.297 -920.553 460.938 -931.308 M460.938 -931.308 M460.938 -931.308 445.579 -942.062 436.204 -958.3 M445.579 -942.062"/>
</svg>
