<svg viewBox="6 4.5 146 92" stroke-width=".3">
<g font-size="3.5" style="font-family:'Concourse 3'" fill="#6C606B" text-anchor="middle">
<text x="18.77" y="95.6">0</text>
<text x="44.09" y="95.6">5.0×10¹⁷</text>
<text x="69.42" y="95.6">1.0×10¹⁸</text>
<text x="94.75" y="95.6">1.5×10¹⁸</text>
<text x="120.07" y="95.6">2.0×10¹⁸</text>
<text x="145.4" y="95.6">2.5×10¹⁸</text>
</g>
<path d="M16.77 5H147.4v86.93H16.77z" fill="none"/>
<path d="M16.77 89.93H147.4M16.77 69.2H147.4M16.77 48.46H147.4M16.77 27.73H147.4M16.77 7H147.4" stroke-dasharray=".5 .5" stroke-width=".2" stroke="#D0D0E0" fill="none"/>
<path d="M18.77 5v86.93M44.09 5v86.93M69.42 5v86.93M94.75 5v86.93M120.07 5v86.93M145.4 5v86.93" stroke-dasharray=".5 .5" stroke-width=".2" stroke="#D0D0E0" fill="none"/>
<path fill="none" d="M16.77 79.56H147.4" stroke="#9ACD32"/>
<g fill="#00BFFF">
<path d="M18.77 20.2h.62v69.72h-.62z"/>
<path d="M19.38 59.19H20v30.73h-.62zm.62.27h.62v30.47H20zm.62-.31h.62v30.77h-.62z"/>
<path d="M21.23 59.46h.62v30.47h-.62zm.62-.06h.62v30.53h-.62z"/>
<path d="M22.46 59.41h.62v30.51h-.62z"/>
<path d="M23.08 59.24h.62v30.68h-.62zm.62.22h.62v30.47h-.62z"/>
<path d="M24.31 61h.62v28.93h-.62zm.62 16.38h.62v12.54h-.62z"/>
<path d="M25.54 81.12h.62v8.81h-.62zm.62.15h.62v8.66h-.62zm.62-.24h.62v8.89h-.62z"/>
<path d="M27.39 80.95h.62v8.97h-.62zm.62.03h.62v8.94h-.62z"/>
<path d="M28.63 81.01h.62v8.91h-.62z"/>
<path d="M29.24 81.19h.62v8.74h-.62zm.62-.02h.62v8.76h-.62z"/>
<path d="M30.47 81.96h.62v7.97h-.62zm.62-11.21h.62v19.18h-.62zm.62 10.27h.62v8.91h-.62z"/>
<path d="M32.32 82.16h.62v7.76h-.62zm.62-.05h.62v7.82h-.62z"/>
<path d="M33.55 82.04h.62v7.89h-.62zm.62.08h.62v7.81h-.62zm.62-.25h.62v8.06h-.62z"/>
<path d="M35.4 82.05h.62v7.88h-.62zm.62.14h.62v7.73h-.62zm.62-.07h.62v7.81h-.62z"/>
<path d="M37.25 70.65h.62v19.28h-.62zm.62 10.28h.62v9h-.62z"/>
<path d="M38.48 81.69h.62v8.24h-.62zm.62.56h.62v7.67h-.62zm.62-.2h.62v7.87h-.62z"/>
<path d="M40.33 81.96h.62v7.96h-.62zm.62.05h.62v7.92h-.62zm.62-.14h.62v8.05h-.62z"/>
<path d="M42.18 82.59h.62v7.33h-.62zm.62-.56h.62v7.9h-.62z"/>
<path d="M43.41 70.37h.62v19.56h-.62zm.62 10.72h.62v8.84h-.62zm.62.83h.62v8.01h-.62z"/>
<path d="M45.26 81.72h.62v8.21h-.62zm.62.13h.62v8.08h-.62z"/>
<path d="M46.49 81.88h.62v8.05h-.62zm.62.04h.62v8.01h-.62zm.62.16h.62v7.84h-.62z"/>
<path d="M48.34 82.53h.62v7.39h-.62zm.62-.51h.62v7.91h-.62zm.62-11.12h.62v19.03h-.62z"/>
<path d="M50.19 81.11h.62v8.82h-.62zm.62.75h.62v8.07h-.62z"/>
<path d="M51.42 81.83h.62v8.09h-.62zm.62.15h.62v7.95h-.62zm.62-.14h.62v8.09h-.62z"/>
<path d="M53.27 81.85h.62v8.07h-.62zm.62.29h.62v7.79h-.62z"/>
<path d="M54.5 82.47h.62v7.46h-.62zm.62-.4h.62v7.86h-.62zm.62-11.62h.62v19.48h-.62z"/>
<path d="M56.35 81.04h.62v8.89h-.62zm.62.98h.62v7.9h-.62zm.62.19h.62v7.71h-.62z"/>
<path d="M58.2 82.08h.62v7.84h-.62zm.62-.31h.62v8.16h-.62z"/>
<path d="M59.43 81.94h.62v7.98h-.62zm.62-.09h.62v8.07h-.62zm.62.56h.62v7.52h-.62z"/>
<path d="M61.28 82.26h.62v7.67h-.62zm.62-11.74h.62v19.41h-.62z"/>
<path d="M62.51 81.02h.62v8.9h-.62zm.62 1.23h.62v7.68h-.62zm.62-.36h.62v8.03h-.62z"/>
<path d="M64.36 81.85h.62v8.08h-.62zm.62.12h.62v7.95h-.62z"/>
<path d="M65.6 82.07h.62v7.86h-.62z"/>
<path d="M66.21 81.83h.62v8.1h-.62zm.62.73h.62v7.37h-.62z"/>
<path d="M67.44 82.16h.62v7.76h-.62zm.62-11.26h.62v19.03h-.62zm.62 10.17h.62v8.86h-.62z"/>
<path d="M69.29 81.98h.62v7.95h-.62z"/>
<path d="M69.91 81.7h.62v8.22h-.62zm.62.43h.62v7.8h-.62z"/>
<path d="M71.14 81.98h.62v7.94h-.62zm.62-.04h.62v7.98h-.62z"/>
<path d="M72.37 81.79h.62v8.14h-.62z"/>
<path d="M72.99 82.6h.62v7.32h-.62zm.62-.27h.62v7.6h-.62z"/>
<path d="M74.22 70.32h.62v19.6h-.62zm.62 10.55h.62v9.06h-.62z"/>
<path d="M75.45 82.07h.62v7.86h-.62z"/>
<path d="M76.07 81.96h.62v7.97h-.62zm.62.02h.62v7.95h-.62z"/>
<path d="M77.3 82.03h.62v7.89h-.62zm.62-.22h.62v8.12h-.62zm.62.27h.62v7.85h-.62z"/>
<path d="M79.15 82.62h.62v7.3h-.62z"/>
<path d="M79.77 82.17h.62v7.76h-.62z"/>
<path d="M80.38 70.94H81v18.99h-.62zm.62 9.9h.62v9.08H81zm.62 1.38h.62v7.71h-.62z"/>
<path d="M82.23 82.04h.62v7.89h-.62z"/>
<path d="M82.85 82.03h.62v7.89h-.62z"/>
<path d="M83.46 82.03h.62v7.9h-.62zm.62.07h.62v7.82h-.62zm.62-.32h.62v8.14h-.62z"/>
<path d="M85.31 82.57h.62v7.36h-.62zm.62-.39h.62v7.75h-.62z"/>
<path d="M86.55 70.66h.62v19.27h-.62z"/>
<path d="M87.16 80.74h.62v9.18h-.62zm.62 1.23h.62v7.96h-.62z"/>
<path d="M88.39 82.02h.62v7.91h-.62zm.62-.17h.62v8.08h-.62z"/>
<path d="M89.63 82.36h.62v7.56h-.62z"/>
<path d="M90.24 81.92h.62v8.01h-.62zm.62-.15h.62v8.16h-.62z"/>
<path d="M91.47 82.68h.62v7.25h-.62zm.62-.51h.62v7.76h-.62z"/>
<path d="M92.71 70.51h.62v19.41h-.62z"/>
<path d="M93.32 81.3h.62v8.63h-.62zm.62.82h.62v7.81h-.62zm.62.04h.62v7.76h-.62z"/>
<path d="M95.17 82.05h.62v7.88h-.62zm.62.04h.62v7.83h-.62z"/>
<path d="M96.4 81.97h.62v7.96h-.62z"/>
<path d="M97.02 82.04h.62v7.89h-.62zm.62.5h.62v7.39h-.62z"/>
<path d="M98.25 82.15h.62v7.78h-.62zm.62-11.66h.62v19.44h-.62z"/>
<path d="M99.49 81.16h.62v8.76h-.62z"/>
<path d="M100.1 81.95h.62v7.98h-.62zm.62-.04h.62v8.02h-.62z"/>
<path d="M101.33 82.04h.62v7.89h-.62zm.62.17h.62v7.72h-.62z"/>
<path d="M102.57 82.06h.62v7.87h-.62z"/>
<path d="M103.18 81.99h.62v7.94h-.62z"/>
<path d="M103.8 82.46h.62v7.47h-.62z"/>
<path d="M104.41 82.19h.62v7.74h-.62zm.62-11.79h.62v19.53h-.62zm.62 10.61h.62v8.91h-.62z"/>
<path d="M106.26 82.03h.62v7.89h-.62z"/>
<path d="M106.88 82.11h.62v7.82h-.62zm.62-.2h.62v8.02h-.62z"/>
<path d="M108.11 81.78h.62v8.15h-.62zm.62.18h.62v7.97h-.62z"/>
<path d="M109.34 81.88h.62v8.05h-.62z"/>
<path d="M109.96 82.62h.62v7.31h-.62zm.62-.55h.62v7.86h-.62z"/>
<path d="M111.19 70.42h.62v19.5h-.62zm.62 10.46h.62v9.05h-.62z"/>
<path d="M112.42 81.95h.62v7.98h-.62zm.62-.06h.62v8.04h-.62z"/>
<path d="M113.66 82.01h.62v7.92h-.62z"/>
<path d="M114.27 82.06h.62v7.87h-.62zm.62-.05h.62v7.91h-.62zm.62.28h.62v7.64h-.62z"/>
<path d="M116.12 82.46h.62v7.47h-.62z"/>
<path d="M116.74 82.21h.62v7.72h-.62z"/>
<path d="M117.35 70.5h.62v19.43h-.62zm.62 10.44h.62v8.98h-.62zm.62.9h.62v8.09h-.62z"/>
<path d="M119.2 82.17h.62v7.76h-.62z"/>
<path d="M119.82 81.88h.62v8.05h-.62zm.62.25h.62v7.8h-.62z"/>
<path d="M121.05 82.05h.62v7.88h-.62zm.62-.11h.62v7.98h-.62z"/>
<path d="M122.28 82.54h.62v7.39h-.62zm.62-.38h.62v7.77h-.62z"/>
<path d="M123.52 70.89h.62v19.04h-.62z"/>
<path d="M124.13 80.94h.62v8.99h-.62zm.62 1.28h.62v7.7h-.62z"/>
<path d="M125.36 82.21h.62v7.72h-.62zm.62-.12h.62v7.83h-.62z"/>
<path d="M126.6 82.04h.62v7.88h-.62z"/>
<path d="M127.21 82.02h.62v7.9h-.62zm.62.09h.62v7.81h-.62zm.62.56h.62v7.25h-.62z"/>
<path d="M129.06 81.84h.62v8.08h-.62zm.62-11.41h.62v19.49h-.62z"/>
<path d="M130.29 80.57h.62v9.35h-.62zm.62 1.33h.62v8.02h-.62zm.62.23h.62v7.8h-.62z"/>
<path d="M132.14 82.11h.62v7.82h-.62zm.62-.14h.62v7.95h-.62z"/>
<path d="M133.37 82.08h.62v7.84h-.62zm.62-.06h.62v7.91h-.62zm.62.52h.62v7.39h-.62z"/>
<path d="M135.22 81.97h.62v7.96h-.62zm.62-11.37h.62v19.32h-.62zm.62 10.48h.62v8.85h-.62z"/>
<path d="M137.07 81.84h.62v8.09h-.62zm.62.26h.62v7.83h-.62z"/>
<path d="M138.3 82.03h.62v7.9h-.62z"/>
<path d="M138.92 81.98h.62v7.94h-.62zm.62.11h.62v7.84h-.62z"/>
<path d="M140.15 82.14h.62v7.79h-.62zm.62.43h.62v7.35h-.62z"/>
<path d="M141.38 82.2h.62v7.72h-.62z"/>
</g>
<g font-size="3.5" style="font-family:'Concourse 3'" fill="#6C606B" text-anchor="end">
<text x="15.77" y="89.93" dy=".35em">0</text>
<text x="15.77" y="69.2" dy=".35em">1×10⁴</text>
<text x="15.77" y="48.46" dy=".35em">2×10⁴</text>
<text x="15.77" y="27.73" dy=".35em">3×10⁴</text>
<text x="15.77" y="7" dy=".35em">4×10⁴</text>
</g>
</svg>
