<svg viewBox="0 0 558 252" fill-rule="evenodd" clip-rule="evenodd" stroke-linecap="round" stroke-linejoin="round" stroke-miterlimit="1.414"><g stroke="#000"><path d="M432 251l-75-25-25-25-15-25-7.5-25-2.5-25 2.5-25 7.5-25 15-25 25-25 75-25 75 25 25 25 15 25 7.5 25 2.5 25-2.5 25-7.5 25-15 25-25 25-75 25z" fill="#ebebeb"/><path d="M307 126h250m-247.5-25h245M317 76h230M332 51h200M357 26h150M309.5 151h245M317 176h230m-215 25h200m-175 25h150" fill="none"/><g fill="none"><path d="M432 1l21 25 7 25 4.2 25 2.1 25 .7 25-.7 25-2.1 25-4.2 25-7 25-21 25"/><path d="M432 1l39 25 13 25 7.8 25 3.9 25 1.3 25-1.3 25-3.9 25-7.8 25-13 25-39 25"/><path d="M432 1l55.2 25 18.4 25 11.04 25 5.52 25 1.84 25-1.84 25-5.52 25-11.04 25-18.4 25-55.2 25"/><path d="M432 1l67.2 25 22.4 25 13.44 25 6.72 25 2.24 25-2.24 25-6.72 25-13.44 25-22.4 25-67.2 25"/></g><g fill="none"><path d="M432 1l-21 25-7 25-4.2 25-2.1 25-.7 25 .7 25 2.1 25 4.2 25 7 25 21 25"/><path d="M432 1l-39 25-13 25-7.8 25-3.9 25-1.3 25 1.3 25 3.9 25 7.8 25 13 25 39 25"/><path d="M432 1l-55.2 25-18.4 25-11.04 25-5.52 25-1.84 25 1.84 25 5.52 25 11.04 25 18.4 25 55.2 25"/><path d="M432 1l-67.2 25-22.4 25-13.44 25-6.72 25-2.24 25 2.24 25 6.72 25 13.44 25 22.4 25 67.2 25"/></g><path d="M432 1v250" fill="none"/><circle cx="126" cy="126" r="125" fill="#ebebeb"/></g></svg>
