<svg viewBox="0 0 535 280" fill="currentColor" font-family="Arial" font-size="30" text-anchor="middle">
<path d="M0 159h535M0 99h535m0-60H0m0 180h535M104 0v280M319 0v280M211 0v280M426 0v280" fill="none" stroke-width="1" stroke="currentColor"/>
<g font-size="22" font-weight="600">
<text x="51" y="75">nice</text>
<text x="51" y="135">mean</text>
<text x="51" y="195">alternate</text>
<text x="51" y="255">tit for tat</text>
<text x="157" y="25">nice</text>
<text x="265" y="25">mean</text>
<text x="373" y="25">alternate</text>
<text x="480" y="25">tit for tat</text>
</g>
<text x="157" y="78">2</text>
<text x="157" y="138">3</text>
<text x="157" y="198">2.5</text>
<text x="157" y="258">2</text>
<text x="265" y="78">0</text>
<text x="265" y="138">1</text>
<text x="265" y="198">0.5</text>
<text x="265" y="258">1</text>
<text x="373" y="78">1</text>
<text x="373" y="138">2</text>
<text x="373" y="198">1.5</text>
<text x="373" y="258">1.5</text>
<text x="480" y="78">2</text>
<text x="480" y="138">1</text>
<text x="480" y="198">1.5</text>
<text x="480" y="258">2</text>
</svg>
