<svg viewBox="0 0 708 210" xmlns="http://www.w3.org/2000/svg" fill-rule="evenodd" clip-rule="evenodd" stroke-miterlimit="1.414"><path d="M24 87.465s30.623-57 62-57 54.678 106 78 106c23.323 0 33.564-49 58-49s23.148 114 102 114" fill="none" stroke-width="2" stroke="#c20"/><path d="M24 1.465v200h300m-308-130h8m-8 130h8" fill="none" stroke-width="2" stroke="#000"/><text x="4.727" y="78.84" font-family="Concourse T3" font-size="20" font-weight="300">1</text><text x=".727" y="208.84" font-family="Concourse T3" font-size="20" font-weight="300">0</text><path d="M35 71.96h87" fill="none" stroke-width="2" stroke-dasharray="4 2 0 0" stroke="#c20"/><path d="M406 87.465s30.623-57 62-57 54.678 106 78 106c23.323 0 33.564-49 58-49s23.148 114 102 114" fill="none" stroke-width="2" stroke="#c20"/><path d="M406 113.465s30.623-44 62-44 54.678 81.825 78 81.825c23.323 0 33.564-37.825 58-37.825s23.148 88 102 88" fill="none" stroke-width="2" stroke-dasharray="4 2 0 0" stroke="#c20"/><path d="M406 1.465v200h300m-308-130h8m-8 130h8" fill="none" stroke-width="2" stroke="#000"/><text x="386.727" y="78.84" font-family="Concourse T3" font-size="20" font-weight="300">1</text><text x="382.727" y="208.84" font-family="Concourse T3" font-size="20" font-weight="300">0</text></svg>
