<?xml version="1.0" encoding="UTF-8" standalone="no"?><!DOCTYPE svg PUBLIC "-//W3C//DTD SVG 1.1//EN" "http://www.w3.org/Graphics/SVG/1.1/DTD/svg11.dtd"><svg width="100%" height="100%" viewBox="0 0 1000 340" version="1.1" xmlns="http://www.w3.org/2000/svg" xmlns:xlink="http://www.w3.org/1999/xlink" xml:space="preserve" style="fill-rule:evenodd;clip-rule:evenodd;stroke-linecap:round;stroke-linejoin:round;stroke-miterlimit:1.5;"><text x="408.371px" y="48.865px" style="font-family:'ConcourseT3-Bold', 'Concourse T3';font-weight:600;font-size:30px;">da<tspan x="436.271px 445.271px 458.771px 465.371px 484.271px 497.771px 507.071px 520.571px " y="48.865px 48.865px 48.865px 48.865px 48.865px 48.865px 48.865px 48.865px ">ta wareh</tspan>ouse</text><text x="61.561px" y="48.865px" style="font-family:'ConcourseT3-Bold', 'Concourse T3';font-weight:600;font-size:30px;">da<tspan x="89.461px 98.461px 111.961px " y="48.865px 48.865px 48.865px ">ta </tspan>sour<tspan x="168.061px 180.061px " y="48.865px 48.865px ">ce</tspan>s</text><g transform="matrix(1,0,0,1,508.279,-137.737)"><text x="310.01px" y="171.602px" style="font-family:'ConcourseT3-Bold', 'Concourse T3';font-weight:600;font-size:30px;">business</text><text x="292.31px" y="201.602px" style="font-family:'ConcourseT3-Bold', 'Concourse T3';font-weight:600;font-size:30px;">in<tspan x="313.31px 322.61px " y="201.602px 201.602px ">te</tspan>lligence</text></g><g><text x="132.715px" y="208.458px" style="font-family:'ConcourseT3', 'Concourse T3';font-weight:300;font-size:25px;">mark<tspan x="181.465px 192.715px " y="208.458px 208.458px ">et</tspan>ing</text><text x="52.102px" y="252.42px" style="font-family:'ConcourseT3', 'Concourse T3';font-weight:300;font-size:25px;">e<tspan x="63.102px 74.102px " y="252.42px 252.42px ">xt</tspan>ernal da<tspan x="158.852px " y="252.42px ">t</tspan>a</text><text x="52.277px" y="202.07px" style="font-family:'ConcourseT3', 'Concourse T3';font-weight:300;font-size:25px;">sales</text><text x="96.502px" y="151.395px" style="font-family:'ConcourseT3', 'Concourse T3';font-weight:300;font-size:25px;">pr<tspan x="116.502px 128.752px " y="151.395px 151.395px ">od</tspan>uc<tspan x="163.252px " y="151.395px ">t</tspan></text><path d="M106.801,104.205c0,-14.521 11.789,-26.31 26.31,-26.31c14.521,0 26.31,11.789 26.31,26.31c7.26,-12.575 23.364,-16.891 35.94,-9.63c12.575,7.26 16.89,23.364 9.63,35.94c12.575,-7.261 28.679,-2.945 35.94,9.63c7.26,12.575 2.945,28.68 -9.63,35.94c14.521,0 26.31,11.789 26.31,26.31c0,14.521 -11.789,26.31 -26.31,26.31c12.575,7.26 16.89,23.365 9.63,35.94c-7.261,12.575 -23.365,16.891 -35.94,9.63c7.26,12.576 2.945,28.68 -9.63,35.94c-12.576,7.261 -28.68,2.945 -35.94,-9.63c0,14.521 -11.789,26.31 -26.31,26.31c-14.521,0 -26.31,-11.789 -26.31,-26.31c-7.261,12.575 -23.365,16.891 -35.94,9.63c-12.576,-7.26 -16.891,-23.364 -9.63,-35.94c-12.576,7.261 -28.68,2.945 -35.94,-9.63c-7.261,-12.575 -2.946,-28.68 9.63,-35.94c-14.521,0 -26.31,-11.789 -26.31,-26.31c0,-14.521 11.789,-26.31 26.31,-26.31c-12.576,-7.26 -16.891,-23.365 -9.63,-35.94c7.26,-12.575 23.364,-16.891 35.94,-9.63c-7.261,-12.576 -2.946,-28.68 9.63,-35.94c12.575,-7.261 28.679,-2.945 35.94,9.63Z" style="fill:none;stroke:#000;stroke-width:1px;"/></g><text x="769.583px" y="153.521px" style="font-family:'ConcourseT3', 'Concourse T3';font-weight:300;font-size:25px;">analysis</text><text x="779.133px" y="228.458px" style="font-family:'ConcourseT3', 'Concourse T3';font-weight:300;font-size:25px;">r<tspan x="786.883px 798.133px " y="228.458px 228.458px ">ep</tspan>or<tspan x="831.133px 838.883px " y="228.458px 228.458px ">ti</tspan>ng</text><text x="877.633px" y="175.721px" style="font-family:'ConcourseT3', 'Concourse T3';font-weight:300;font-size:25px;">queries</text><text x="887.133px" y="269.658px" style="font-family:'ConcourseT3', 'Concourse T3';font-weight:300;font-size:25px;">mining</text><g><path d="M403.536,271.395l0,-138l190,0l0,138c0,15.04 -42.568,27.25 -95,27.25c-52.432,0 -95,-12.21 -95,-27.25" style="fill:#ebebeb;stroke:#000;stroke-width:1px;"/><path d="M593.536,179.395c0,15.04 -42.568,27.25 -95,27.25c-52.432,0 -95,-12.21 -95,-27.25" style="fill:none;stroke:#000;stroke-width:1px;"/><path d="M593.536,225.395c0,15.04 -42.568,27.25 -95,27.25c-52.432,0 -95,-12.21 -95,-27.25" style="fill:none;stroke:#000;stroke-width:1px;"/><ellipse cx="498.536" cy="133.395" rx="95" ry="27.25" style="fill:#ebebeb;stroke:#000;stroke-width:1px;"/></g><path d="M386.202,202.423l-7.608,7.609l1.401,1.401l10,-10l-10,-10l-1.401,1.401l7.608,7.608l-116.207,0l0,1.981l116.207,0Z"/><path d="M385.978,180.284l-8.887,5.03l0.997,1.775l11.681,-6.611l-7.117,-12.668l-1.637,0.926l5.415,9.638l-112.106,-36.119l-0.452,1.91l112.106,36.119Z"/><path d="M385.978,222.581l-8.887,-5.03l0.997,-1.775l11.681,6.611l-7.117,12.668l-1.637,-0.926l5.415,-9.638l-112.106,36.119l-0.452,-1.91l112.106,-36.119Z"/><path d="M606.995,202.423l0,-1.981l116.207,0l-7.608,-7.608l1.401,-1.401l10,10l-10,10l-1.401,-1.401l7.608,-7.609l-116.207,0Z"/><path d="M607.447,181.433l-0.452,-1.91l112.105,-36.119l-8.887,-5.03l0.997,-1.775l11.681,6.611l-7.117,12.667l-1.637,-0.926l5.415,-9.638l-112.105,36.12Z"/><path d="M607.447,221.433l-0.452,1.909l112.105,36.119l-8.887,5.03l0.997,1.775l11.681,-6.611l-7.117,-12.667l-1.637,0.926l5.415,9.638l-112.105,-36.119Z"/><rect x="742.389" y="106.145" width="249" height="192.5" style="fill:none;stroke:#000;stroke-width:1px;"/></svg>