<?xml version="1.0" encoding="UTF-8" standalone="no"?><!DOCTYPE svg PUBLIC "-//W3C//DTD SVG 1.1//EN" "http://www.w3.org/Graphics/SVG/1.1/DTD/svg11.dtd"><svg width="100%" height="100%" viewBox="0 0 680 410" version="1.1" xmlns="http://www.w3.org/2000/svg" xmlns:xlink="http://www.w3.org/1999/xlink" xml:space="preserve" style="fill-rule:evenodd;clip-rule:evenodd;stroke-linecap:round;stroke-linejoin:round;stroke-miterlimit:1.5;"><text x="6.19px" y="343.317px" style="font-family:'ConcourseT3-Bold', 'Concourse T3';font-weight:600;font-size:25px;">T<tspan x="19.94px 25.69px " y="343.317px 343.317px ">im</tspan>e</text><g><text x="60.683px" y="122.227px" style="font-family:'ConcourseT3', 'Concourse T3';font-weight:300;font-size:25px;">cr<tspan x="78.433px " y="122.227px ">e</tspan>at<tspan x="108.183px " y="122.227px ">e</tspan> ﬁle</text><circle cx="108.183" cy="116.802" r="54.219" style="fill:none;stroke:#000;stroke-width:1px;"/></g><g><text x="170.756px" y="247.985px" style="font-family:'ConcourseT3', 'Concourse T3';font-weight:300;font-size:25px;">modif<tspan x="228.256px " y="247.985px ">y</tspan></text><circle cx="205.006" cy="242.56" r="42.604" style="fill:none;stroke:#000;stroke-width:1px;"/></g><text x="433.508px" y="317.672px" style="font-family:'ConcourseT3', 'Concourse T3';font-weight:300;font-size:25px;fill:#737373;">gr<tspan x="453.508px 464.758px " y="317.672px 317.672px ">ac</tspan>e period</text><g><text x="320.157px" y="148.102px" style="font-family:'ConcourseT3', 'Concourse T3';font-weight:300;font-size:25px;">r<tspan x="327.907px 338.907px 350.157px " y="148.102px 148.102px 148.102px ">ead</tspan></text><circle cx="341.282" cy="142.677" r="30.604" style="fill:none;stroke:#000;stroke-width:1px;"/></g><g><g transform="matrix(1,0,0,1,188.138,-53.1089)"><text x="303.435px" y="171.602px" style="font-family:'ConcourseT3', 'Concourse T3';font-weight:300;font-size:25px;fill:#d92626;">r<tspan x="311.185px 322.185px 333.435px " y="171.602px 171.602px 171.602px ">ead</tspan>:</text><text x="304.31px" y="196.602px" style="font-family:'ConcourseT3', 'Concourse T3';font-weight:300;font-size:25px;fill:#d92626;">err<tspan x="331.31px 343.56px " y="196.602px 196.602px ">or</tspan></text></g><circle cx="516.073" cy="125.568" r="39.712" style="fill:none;stroke:#d92626;stroke-width:1px;"/></g><text x="602.06px" y="199.047px" style="font-family:'ConcourseT3', 'Concourse T3';font-weight:300;font-size:25px;fill:#737373;">deleted</text><g><text x="329.236px" y="255.06px" style="font-family:'ConcourseT3', 'Concourse T3';font-weight:300;font-size:25px;">cop<tspan x="363.486px " y="255.06px ">y</tspan></text><circle cx="351.861" cy="249.635" r="32.104" style="fill:none;stroke:#000;stroke-width:1px;"/></g><g><text x="204.168px" y="127.103px" style="font-family:'ConcourseT3', 'Concourse T3';font-weight:300;font-size:25px;fill:#0d79f2;">mo<tspan x="234.918px " y="127.103px ">v</tspan>e</text><text x="204.168px" y="127.103px" style="font-family:'ConcourseT3', 'Concourse T3';font-weight:300;font-size:25px;fill:#0d79f2;">mo<tspan x="234.918px " y="127.103px ">v</tspan>e</text><circle cx="230.543" cy="121.678" r="34.604" style="fill:none;stroke:#0d79f2;stroke-width:1px;"/></g><g><g transform="matrix(1,0,0,1,135.8,54.445)"><text x="317.56px" y="171.602px" style="font-family:'ConcourseT3', 'Concourse T3';font-weight:300;font-size:25px;fill:#0d79f2;">cle<tspan x="344.31px 355.56px " y="171.602px 171.602px ">ar</tspan></text><text x="292.31px" y="196.602px" style="font-family:'ConcourseT3', 'Concourse T3';font-weight:300;font-size:25px;fill:#0d79f2;">e<tspan x="303.31px 314.31px " y="196.602px 196.602px ">xp</tspan>ir<tspan x="340.06px 351.06px 358.81px " y="196.602px 196.602px 196.602px ">ati</tspan>on</text></g><circle cx="476.361" cy="233.122" r="56.604" style="fill:none;stroke:#0d79f2;stroke-width:1px;"/></g><g transform="matrix(1,0,0,1,-62.2958,227.369)"><text x="327.935px" y="171.602px" style="font-family:'ConcourseT3', 'Concourse T3';font-weight:300;font-size:25px;fill:#737373;">e<tspan x="338.935px 349.935px " y="171.602px 171.602px ">xp</tspan>ir<tspan x="375.685px " y="171.602px ">e</tspan></text><rect x="327.935" y="164.777" width="59" height="1.45" style="fill:#737373;"/></g><path d="M332.965,393.286l0,-0.553l27.941,0l-4.864,-4.864l0.391,-0.391l5.532,5.531l-5.532,5.532l-0.391,-0.392l4.864,-4.863l-27.941,0Z" style="fill:#737373;stroke:#737373;stroke-width:1px;"/><text x="369.238px" y="398.972px" style="font-family:'ConcourseT3', 'Concourse T3';font-weight:300;font-size:25px;">e<tspan x="380.238px 391.238px " y="398.972px 398.972px ">xp</tspan>ir<tspan x="416.988px " y="398.972px ">e</tspan></text><text x="559.3px" y="401.509px" style="font-family:'ConcourseT3', 'Concourse T3';font-weight:300;font-size:25px;">delete</text><path d="M295.14,58.234l0,316.375" style="fill:none;stroke:#737373;stroke-width:1px;stroke-dasharray:10,10,0,0;"/><path d="M398.738,58.234l0,316.375" style="fill:none;stroke:#000;stroke-width:1px;"/><path d="M587.504,58.234l0,316.375" style="fill:none;stroke:#000;stroke-width:1px;"/><path d="M68.965,336.587l0,-0.94l593.115,0l-8.823,-8.823l0.708,-0.707l10,10l-10,10l-0.708,-0.707l8.823,-8.823l-593.115,0Z"/><text x="310.008px" y="22.584px" style="font-family:'ConcourseT3', 'Concourse T3';font-weight:300;font-size:25px;fill:#0d79f2;">no e<tspan x="350.758px 361.758px " y="22.584px 22.584px ">xp</tspan>ir<tspan x="387.508px 398.508px 406.258px " y="22.584px 22.584px 22.584px ">ati</tspan>on</text><path d="M230.543,87.074l0,-70.452l68.422,0" style="fill:none;stroke:#0d79f2;stroke-width:1px;"/><path d="M454.948,180.715l0,-128.867l-20.315,-20.315" style="fill:none;stroke:#0d79f2;stroke-width:1px;"/><text x="198.381px" y="277.56px" style="font-family:'ConcourseT3', 'Concourse T3';font-weight:300;font-size:25px;fill:#737373;">*</text><text x="340.84px" y="391.698px" style="font-family:'ConcourseT3', 'Concourse T3';font-weight:300;font-size:25px;fill:#737373;">*</text></svg>