<?xml version="1.0" standalone="no"?><!DOCTYPE svg PUBLIC "-//W3C//DTD SVG 1.1//EN" "http://www.w3.org/Graphics/SVG/1.1/DTD/svg11.dtd"><svg width="100%" height="100%" viewBox="0 0 360 360" version="1.1" xmlns="http://www.w3.org/2000/svg" xmlns:xlink="http://www.w3.org/1999/xlink" xml:space="preserve" style="fill-rule:evenodd;clip-rule:evenodd;stroke-miterlimit:1.41421;"><g id="Layer1"><path d="M-2.84217e-14,160l340,0" style="fill:none;stroke-width:2px;stroke:#ccc;"/><path d="M-2.84217e-14,100l340,0" style="fill:none;stroke-width:2px;stroke:#ccc;"/><path d="M340,40l-340,0" style="fill:none;stroke-width:2px;stroke:#ccc;"/><path d="M-2.84217e-14,220l340,0" style="fill:none;stroke-width:2px;stroke:#ccc;"/><path d="M-4.26326e-14,280l340,0" style="fill:none;stroke-width:2px;stroke:#ccc;"/><path d="M40,1.7053e-13l1.42109e-13,340" style="fill:none;stroke-width:2px;stroke:#ccc;"/><path d="M100,1.7053e-13l1.42109e-13,340" style="fill:none;stroke-width:2px;stroke:#ccc;"/><path d="M160,1.7053e-13l1.42109e-13,340" style="fill:none;stroke-width:2px;stroke:#ccc;"/><path d="M220,1.7053e-13l1.42109e-13,340" style="fill:none;stroke-width:2px;stroke:#ccc;"/><path d="M280,1.7053e-13l1.7053e-13,340" style="fill:none;stroke-width:2px;stroke:#ccc;"/><g transform="matrix(1,0,0,1,-238.21,-95.0923)"><text x="292.31px" y="165.352px" style="font-family:Concourse T3;font-size:20px;font-weight:300;fill:#000;">1</text><text x="301.31px" y="171.602px" style="font-family:Concourse T3;font-size:30px;font-weight:300;fill:#000;">/</text><text x="315.11px" y="177.852px" style="font-family:Concourse T3;font-size:20px;font-weight:300;fill:#000;">1</text></g><g transform="matrix(1,0,0,1,-179.21,-95.0923)"><text x="292.31px" y="165.352px" style="font-family:Concourse T3;font-size:20px;font-weight:300;fill:#000;">2</text><text x="303.11px" y="171.602px" style="font-family:Concourse T3;font-size:30px;font-weight:300;fill:#000;">/</text><text x="316.91px" y="177.852px" style="font-family:Concourse T3;font-size:20px;font-weight:300;fill:#000;">1</text></g><g transform="matrix(1,0,0,1,-119.21,-95.0923)"><text x="292.31px" y="165.352px" style="font-family:Concourse T3;font-size:20px;font-weight:300;fill:#000;">3</text><text x="302.71px" y="171.602px" style="font-family:Concourse T3;font-size:30px;font-weight:300;fill:#000;">/</text><text x="316.51px" y="177.852px" style="font-family:Concourse T3;font-size:20px;font-weight:300;fill:#000;">1</text></g><g transform="matrix(1,0,0,1,-59.2104,-95.0923)"><text x="292.31px" y="165.352px" style="font-family:Concourse T3;font-size:20px;font-weight:300;fill:#000;">4</text><text x="303.31px" y="171.602px" style="font-family:Concourse T3;font-size:30px;font-weight:300;fill:#000;">/</text><text x="317.11px" y="177.852px" style="font-family:Concourse T3;font-size:20px;font-weight:300;fill:#000;">1</text></g><g transform="matrix(1,0,0,1,0.789618,-95.0923)"><text x="292.31px" y="165.352px" style="font-family:Concourse T3;font-size:20px;font-weight:300;fill:#000;">5</text><text x="303.11px" y="171.602px" style="font-family:Concourse T3;font-size:30px;font-weight:300;fill:#000;">/</text><text x="316.91px" y="177.852px" style="font-family:Concourse T3;font-size:20px;font-weight:300;fill:#000;">1</text></g><g transform="matrix(1,0,0,1,-238.21,-35.1423)"><text x="292.31px" y="165.352px" style="font-family:Concourse T3;font-size:20px;font-weight:300;fill:#000;">1</text><text x="301.31px" y="171.602px" style="font-family:Concourse T3;font-size:30px;font-weight:300;fill:#000;">/</text><text x="315.11px" y="177.852px" style="font-family:Concourse T3;font-size:20px;font-weight:300;fill:#000;">2</text></g><g transform="matrix(1,0,0,1,-179.21,-35.1423)"><text x="292.31px" y="165.352px" style="font-family:Concourse T3;font-size:20px;font-weight:300;fill:#aaa;">2</text><text x="303.11px" y="171.602px" style="font-family:Concourse T3;font-size:30px;font-weight:300;fill:#aaa;">/</text><text x="316.91px" y="177.852px" style="font-family:Concourse T3;font-size:20px;font-weight:300;fill:#aaa;">2</text></g><g transform="matrix(1,0,0,1,-119.21,-35.1423)"><text x="292.31px" y="165.352px" style="font-family:Concourse T3;font-size:20px;font-weight:300;fill:#000;">3</text><text x="302.71px" y="171.602px" style="font-family:Concourse T3;font-size:30px;font-weight:300;fill:#000;">/</text><text x="316.51px" y="177.852px" style="font-family:Concourse T3;font-size:20px;font-weight:300;fill:#000;">2</text></g><g transform="matrix(1,0,0,1,-59.2104,-35.1423)"><text x="292.31px" y="165.352px" style="font-family:Concourse T3;font-size:20px;font-weight:300;fill:#aaa;">4</text><text x="303.31px" y="171.602px" style="font-family:Concourse T3;font-size:30px;font-weight:300;fill:#aaa;">/</text><text x="317.11px" y="177.852px" style="font-family:Concourse T3;font-size:20px;font-weight:300;fill:#aaa;">2</text></g><g transform="matrix(1,0,0,1,0.789618,-35.1423)"><text x="292.31px" y="165.352px" style="font-family:Concourse T3;font-size:20px;font-weight:300;fill:#000;">5</text><text x="303.11px" y="171.602px" style="font-family:Concourse T3;font-size:30px;font-weight:300;fill:#000;">/</text><text x="316.91px" y="177.852px" style="font-family:Concourse T3;font-size:20px;font-weight:300;fill:#000;">2</text></g><g transform="matrix(1,0,0,1,-238.21,24.8577)"><text x="292.31px" y="165.352px" style="font-family:Concourse T3;font-size:20px;font-weight:300;fill:#000;">1</text><text x="301.31px" y="171.602px" style="font-family:Concourse T3;font-size:30px;font-weight:300;fill:#000;">/</text><text x="315.11px" y="177.852px" style="font-family:Concourse T3;font-size:20px;font-weight:300;fill:#000;">3</text></g><g transform="matrix(1,0,0,1,-179.21,24.8577)"><text x="292.31px" y="165.352px" style="font-family:Concourse T3;font-size:20px;font-weight:300;fill:#000;">2</text><text x="303.11px" y="171.602px" style="font-family:Concourse T3;font-size:30px;font-weight:300;fill:#000;">/</text><text x="316.91px" y="177.852px" style="font-family:Concourse T3;font-size:20px;font-weight:300;fill:#000;">3</text></g><g transform="matrix(1,0,0,1,-119.21,24.8577)"><text x="292.31px" y="165.352px" style="font-family:Concourse T3;font-size:20px;font-weight:300;fill:#aaa;">3</text><text x="302.71px" y="171.602px" style="font-family:Concourse T3;font-size:30px;font-weight:300;fill:#aaa;">/</text><text x="316.51px" y="177.852px" style="font-family:Concourse T3;font-size:20px;font-weight:300;fill:#aaa;">3</text></g><g transform="matrix(1,0,0,1,-59.2104,24.8577)"><text x="292.31px" y="165.352px" style="font-family:Concourse T3;font-size:20px;font-weight:300;fill:#000;">4</text><text x="303.31px" y="171.602px" style="font-family:Concourse T3;font-size:30px;font-weight:300;fill:#000;">/</text><text x="317.11px" y="177.852px" style="font-family:Concourse T3;font-size:20px;font-weight:300;fill:#000;">3</text></g><g transform="matrix(1,0,0,1,0.789618,24.8577)"><text x="292.31px" y="165.352px" style="font-family:Concourse T3;font-size:20px;font-weight:300;fill:#000;">5</text><text x="303.11px" y="171.602px" style="font-family:Concourse T3;font-size:30px;font-weight:300;fill:#000;">/</text><text x="316.91px" y="177.852px" style="font-family:Concourse T3;font-size:20px;font-weight:300;fill:#000;">3</text></g><g transform="matrix(1,0,0,1,-238.21,84.8577)"><text x="292.31px" y="165.352px" style="font-family:Concourse T3;font-size:20px;font-weight:300;fill:#000;">1</text><text x="301.31px" y="171.602px" style="font-family:Concourse T3;font-size:30px;font-weight:300;fill:#000;">/</text><text x="315.11px" y="177.852px" style="font-family:Concourse T3;font-size:20px;font-weight:300;fill:#000;">4</text></g><g transform="matrix(1,0,0,1,-179.21,84.8577)"><text x="292.31px" y="165.352px" style="font-family:Concourse T3;font-size:20px;font-weight:300;fill:#aaa;">2</text><text x="303.11px" y="171.602px" style="font-family:Concourse T3;font-size:30px;font-weight:300;fill:#aaa;">/</text><text x="316.91px" y="177.852px" style="font-family:Concourse T3;font-size:20px;font-weight:300;fill:#aaa;">4</text></g><g transform="matrix(1,0,0,1,-119.21,84.8577)"><text x="292.31px" y="165.352px" style="font-family:Concourse T3;font-size:20px;font-weight:300;fill:#000;">3</text><text x="302.71px" y="171.602px" style="font-family:Concourse T3;font-size:30px;font-weight:300;fill:#000;">/</text><text x="316.51px" y="177.852px" style="font-family:Concourse T3;font-size:20px;font-weight:300;fill:#000;">4</text></g><g transform="matrix(1,0,0,1,-59.2104,84.8577)"><text x="292.31px" y="165.352px" style="font-family:Concourse T3;font-size:20px;font-weight:300;fill:#aaa;">4</text><text x="303.31px" y="171.602px" style="font-family:Concourse T3;font-size:30px;font-weight:300;fill:#aaa;">/</text><text x="317.11px" y="177.852px" style="font-family:Concourse T3;font-size:20px;font-weight:300;fill:#aaa;">4</text></g><g transform="matrix(1,0,0,1,0.789618,84.8577)"><text x="292.31px" y="165.352px" style="font-family:Concourse T3;font-size:20px;font-weight:300;fill:#000;">5</text><text x="303.11px" y="171.602px" style="font-family:Concourse T3;font-size:30px;font-weight:300;fill:#000;">/</text><text x="316.91px" y="177.852px" style="font-family:Concourse T3;font-size:20px;font-weight:300;fill:#000;">4</text></g><g transform="matrix(1,0,0,1,-238.21,144.858)"><text x="292.31px" y="165.352px" style="font-family:Concourse T3;font-size:20px;font-weight:300;fill:#000;">1</text><text x="301.31px" y="171.602px" style="font-family:Concourse T3;font-size:30px;font-weight:300;fill:#000;">/</text><text x="315.11px" y="177.852px" style="font-family:Concourse T3;font-size:20px;font-weight:300;fill:#000;">5</text></g><g transform="matrix(1,0,0,1,-179.21,144.858)"><text x="292.31px" y="165.352px" style="font-family:Concourse T3;font-size:20px;font-weight:300;fill:#000;">2</text><text x="303.11px" y="171.602px" style="font-family:Concourse T3;font-size:30px;font-weight:300;fill:#000;">/</text><text x="316.91px" y="177.852px" style="font-family:Concourse T3;font-size:20px;font-weight:300;fill:#000;">5</text></g><g transform="matrix(1,0,0,1,-119.21,144.858)"><text x="292.31px" y="165.352px" style="font-family:Concourse T3;font-size:20px;font-weight:300;fill:#000;">3</text><text x="302.71px" y="171.602px" style="font-family:Concourse T3;font-size:30px;font-weight:300;fill:#000;">/</text><text x="316.51px" y="177.852px" style="font-family:Concourse T3;font-size:20px;font-weight:300;fill:#000;">5</text></g><g transform="matrix(1,0,0,1,-59.2104,144.858)"><text x="292.31px" y="165.352px" style="font-family:Concourse T3;font-size:20px;font-weight:300;fill:#000;">4</text><text x="303.31px" y="171.602px" style="font-family:Concourse T3;font-size:30px;font-weight:300;fill:#000;">/</text><text x="317.11px" y="177.852px" style="font-family:Concourse T3;font-size:20px;font-weight:300;fill:#000;">5</text></g><g transform="matrix(1,0,0,1,0.789618,144.858)"><text x="292.31px" y="165.352px" style="font-family:Concourse T3;font-size:20px;font-weight:300;fill:#aaa;">5</text><text x="303.11px" y="171.602px" style="font-family:Concourse T3;font-size:30px;font-weight:300;fill:#aaa;">/</text><text x="316.91px" y="177.852px" style="font-family:Concourse T3;font-size:20px;font-weight:300;fill:#aaa;">5</text></g><text x="14.375px" y="79.425px" style="font-family:Concourse T3;font-size:25px;font-weight:600;fill:#000;">1</text><text x="13.25px" y="139.425px" style="font-family:Concourse T3;font-size:25px;font-weight:600;fill:#000;">2</text><text x="13.5px" y="199.425px" style="font-family:Concourse T3;font-size:25px;font-weight:600;fill:#000;">3</text><text x="13.125px" y="259.363px" style="font-family:Concourse T3;font-size:25px;font-weight:600;fill:#000;">4</text><text x="13.25px" y="319.363px" style="font-family:Concourse T3;font-size:25px;font-weight:600;fill:#000;">5</text><text x="64.375px" y="29.425px" style="font-family:Concourse T3;font-size:25px;font-weight:600;fill:#000;">1</text><text x="123.25px" y="29.425px" style="font-family:Concourse T3;font-size:25px;font-weight:600;fill:#000;">2</text><text x="183.5px" y="29.425px" style="font-family:Concourse T3;font-size:25px;font-weight:600;fill:#000;">3</text><text x="243.125px" y="29.425px" style="font-family:Concourse T3;font-size:25px;font-weight:600;fill:#000;">4</text><text x="303.25px" y="29.425px" style="font-family:Concourse T3;font-size:25px;font-weight:600;fill:#000;">5</text><g><path d="M92,70l16,0" style="fill:none;stroke-width:2px;stroke:#c20;"/><path d="M103.05,74.9497l4.94975,-4.94975c1.29319e-12,5.96856e-13 -4.94975,-4.94975 -4.94975,-4.94975" style="fill:none;stroke-width:2px;stroke:#c20;"/></g><g><path d="M212,70l16,0" style="fill:none;stroke-width:2px;stroke:#c20;"/><path d="M223.05,74.9497l4.94975,-4.94975c1.27898e-12,5.96856e-13 -4.94975,-4.94975 -4.94975,-4.94975" style="fill:none;stroke-width:2px;stroke:#c20;"/></g><g><path d="M332,70l16,0" style="fill:none;stroke-width:2px;stroke-dasharray:2,2;stroke:#c20;"/><path d="M343.05,74.9497l4.94975,-4.94975c1.25056e-12,5.96856e-13 -4.94975,-4.94975 -4.94975,-4.94975" style="fill:none;stroke-width:2px;stroke:#c20;"/></g><g><path d="M70,152l1.42109e-14,16" style="fill:none;stroke-width:2px;stroke:#c20;"/><path d="M65.0503,163.05l4.94975,4.94975c-5.96856e-13,1.3074e-12 4.94975,-4.94975 4.94975,-4.94975" style="fill:none;stroke-width:2px;stroke:#c20;"/></g><g><path d="M70,272l1.42109e-14,16" style="fill:none;stroke-width:2px;stroke:#c20;"/><path d="M65.0503,283.05l4.94975,4.94975c-5.96856e-13,1.3074e-12 4.94975,-4.94975 4.94975,-4.94975" style="fill:none;stroke-width:2px;stroke:#c20;"/></g><g><path d="M113.659,86.3405l-28.3163,28.3163" style="fill:none;stroke-width:2px;stroke:#c20;"/><path d="M85.3431,107.657l-1.42109e-14,7c-1.35003e-12,4.9738e-13 7,4.68958e-13 7,4.68958e-13" style="fill:none;stroke-width:2px;stroke:#c20;"/></g><g><path d="M233.659,86.3405l-28.3163,28.3163" style="fill:none;stroke-width:2px;stroke:#c20;"/><path d="M205.343,107.657l0,7c-1.36424e-12,4.9738e-13 7,4.68958e-13 7,4.68958e-13" style="fill:none;stroke-width:2px;stroke:#c20;"/></g><g><path d="M173.659,146.341l-28.3163,28.3163" style="fill:none;stroke-width:2px;stroke:#c20;"/><path d="M145.343,167.657l0,7c-1.36424e-12,4.83169e-13 7,4.54747e-13 7,4.54747e-13" style="fill:none;stroke-width:2px;stroke:#c20;"/></g><g><path d="M293.659,146.341l-28.3163,28.3163" style="fill:none;stroke-width:2px;stroke:#c20;"/><path d="M265.343,167.657l0,7c-1.36424e-12,4.83169e-13 7,4.54747e-13 7,4.54747e-13" style="fill:none;stroke-width:2px;stroke:#c20;"/></g><g><path d="M233.659,206.341l-28.3163,28.3163" style="fill:none;stroke-width:2px;stroke:#c20;"/><path d="M205.343,227.657l0,7c-1.36424e-12,4.83169e-13 7,4.54747e-13 7,4.54747e-13" style="fill:none;stroke-width:2px;stroke:#c20;"/></g><g><path d="M293.659,266.341l-28.3163,28.3163" style="fill:none;stroke-width:2px;stroke:#c20;"/><path d="M265.343,287.657l0,7c-1.36424e-12,4.54747e-13 7,4.54747e-13 7,4.54747e-13" style="fill:none;stroke-width:2px;stroke:#c20;"/></g><g><path d="M173.659,266.341l-28.3163,28.3163" style="fill:none;stroke-width:2px;stroke:#c20;"/><path d="M145.343,287.657l0,7c-1.36424e-12,4.54747e-13 7,4.54747e-13 7,4.54747e-13" style="fill:none;stroke-width:2px;stroke:#c20;"/></g><g><path d="M113.659,326.341l-28.3163,28.3163" style="fill:none;stroke-width:2px;stroke-dasharray:2,2;stroke:#c20;"/><path d="M85.3431,347.657l-1.42109e-14,7c-1.35003e-12,4.54747e-13 7,4.54747e-13 7,4.54747e-13" style="fill:none;stroke-width:2px;stroke:#c20;"/></g><g><path d="M353.659,86.3405l-28.3163,28.3163" style="fill:none;stroke-width:2px;stroke-dasharray:2,2;stroke:#c20;"/><path d="M325.343,107.657l0,7c-1.36424e-12,4.9738e-13 7,4.68958e-13 7,4.68958e-13" style="fill:none;stroke-width:2px;stroke:#c20;"/></g><g><path d="M145.343,354.657l28.3163,-28.3163" style="fill:none;stroke-width:2px;stroke-dasharray:2,2;stroke:#c20;"/><path d="M173.659,333.341l5.68434e-14,-7c1.3074e-12,-5.11591e-13 -7,-5.11591e-13 -7,-5.11591e-13" style="fill:none;stroke-width:2px;stroke:#c20;"/></g><g><path d="M325.343,174.657l28.3163,-28.3163" style="fill:none;stroke-width:2px;stroke-dasharray:2,2;stroke:#c20;"/><path d="M353.659,153.341l5.68434e-14,-7c1.3074e-12,-5.11591e-13 -7,-4.83169e-13 -7,-4.83169e-13" style="fill:none;stroke-width:2px;stroke:#c20;"/></g><g><path d="M233.659,326.341l-28.3163,28.3163" style="fill:none;stroke-width:2px;stroke-dasharray:2,2;stroke:#c20;"/><path d="M205.343,347.657l0,7c-1.36424e-12,4.54747e-13 7,4.54747e-13 7,4.54747e-13" style="fill:none;stroke-width:2px;stroke:#c20;"/></g><g><path d="M353.659,206.341l-28.3163,28.3163" style="fill:none;stroke-width:2px;stroke-dasharray:2,2;stroke:#c20;"/><path d="M325.343,227.657l0,7c-1.36424e-12,4.83169e-13 7,4.54747e-13 7,4.54747e-13" style="fill:none;stroke-width:2px;stroke:#c20;"/></g><g><path d="M113.659,206.341l-28.3163,28.3163" style="fill:none;stroke-width:2px;stroke:#c20;"/><path d="M85.3431,227.657l-1.42109e-14,7c-1.35003e-12,4.83169e-13 7,4.54747e-13 7,4.54747e-13" style="fill:none;stroke-width:2px;stroke:#c20;"/></g><g><path d="M85.3431,174.657l88.3163,-88.3163" style="fill:none;stroke-width:2px;stroke:#c20;"/><path d="M173.659,93.3405l5.68434e-14,-7c1.3074e-12,-4.9738e-13 -7,-4.68958e-13 -7,-4.68958e-13" style="fill:none;stroke-width:2px;stroke:#c20;"/></g><g><path d="M265.343,354.657l88.3163,-88.3163" style="fill:none;stroke-width:2px;stroke-dasharray:2,2;stroke:#c20;"/><path d="M353.659,273.341l5.68434e-14,-7c1.3074e-12,-5.11591e-13 -7,-5.11591e-13 -7,-5.11591e-13" style="fill:none;stroke-width:2px;stroke:#c20;"/></g><g><path d="M205.343,294.657l88.3163,-88.3163" style="fill:none;stroke-width:2px;stroke:#c20;"/><path d="M293.659,213.341l5.68434e-14,-7c1.3074e-12,-5.11591e-13 -7,-4.83169e-13 -7,-4.83169e-13" style="fill:none;stroke-width:2px;stroke:#c20;"/></g><g><path d="M85.3431,294.657l208.316,-208.316" style="fill:none;stroke-width:2px;stroke:#c20;"/><path d="M293.659,93.3405l5.68434e-14,-7c1.3074e-12,-4.9738e-13 -7,-4.68958e-13 -7,-4.68958e-13" style="fill:none;stroke-width:2px;stroke:#c20;"/></g></g></svg>