<?xml version="1.0" standalone="no"?><!DOCTYPE svg PUBLIC "-//W3C//DTD SVG 1.1//EN" "http://www.w3.org/Graphics/SVG/1.1/DTD/svg11.dtd"><svg width="100%" height="100%" viewBox="0 0 720 345" version="1.1" xmlns="http://www.w3.org/2000/svg" xmlns:xlink="http://www.w3.org/1999/xlink" xml:space="preserve" style="fill-rule:evenodd;clip-rule:evenodd;stroke-miterlimit:1.41421;"><g id="Layer1"><path d="M44.5,304c0,0 0.320907,-88.0117 79.5,-160c70.802,-64.372 220.5,-140 220.5,-140" style="fill:none;stroke-width:2px;stroke:#c20;"/><path d="M411.906,304c0,0 88.0117,-0.320907 160,-79.5c64.372,-70.802 140,-220.5 140,-220.5" style="fill:none;stroke-width:2px;stroke:#c20;"/><path d="M44.5,3l-4.26326e-14,300l300,-1.13687e-13" style="fill:none;stroke-width:2px;stroke:#000;"/><path d="M411.906,3l-5.68434e-14,300l300,-1.13687e-13" style="fill:none;stroke-width:2px;stroke:#000;"/><path d="M44.5,304l300,-300" style="fill:none;stroke-width:2px;stroke-dasharray:4,2,0,0;stroke:#000;"/><path d="M411.906,304l300,-300" style="fill:none;stroke-width:2px;stroke-dasharray:4,2,0,0;stroke:#000;"/><text x="97px" y="334.26px" style="font-family:Concourse T3;font-size:30px;font-weight:300;fill:#000;">ac<tspan x="122.8px 132.1px " y="334.26px 334.26px ">tu</tspan>al luminance</text><text x="486.156px" y="334.26px" style="font-family:Concourse T3;font-size:30px;font-weight:300;fill:#000;">input v<tspan x="565.356px 580.056px 586.956px 595.956px 609.456px " y="334.26px 334.26px 334.26px 334.26px 334.26px ">oltag</tspan>e</text><g transform="matrix(-1.60812e-16,-1,1,-1.60812e-16,-951.842,111.854)"><text x="-159.196px" y="978.602px" style="font-family:Concourse T3;font-size:30px;font-weight:300;fill:#000;">per<tspan x="-121.696px -109.696px " y="978.602px 978.602px ">ce</tspan>iv<tspan x="-76.3958px -62.8958px " y="978.602px 978.602px ">ed</tspan> luminance</text></g><g transform="matrix(-1.60812e-16,-1,1,-1.60812e-16,-567.336,462.16)"><text x="208.21px" y="961.502px" style="font-family:Concourse T3;font-size:30px;font-weight:300;fill:#000;">output luminance</text></g></g></svg>