<svg xmlns="http://www.w3.org/2000/svg" viewBox="-2.4 -1058.401 1475.237 1060.801"><defs><style>polyline { fill: none; stroke-linecap: square; stroke-width: 7.376; stroke: #63A100; }</style></defs><polyline points="0 0 13.258 -13.258 26.517 -26.517 39.775 -39.775 53.033 -53.033 66.291 -66.291 79.55 -79.55 92.808 -92.808 106.066 -106.066 119.324 -119.324 132.583 -132.583 145.841 -145.841 159.099 -159.099 172.357 -172.357 185.616 -185.616 198.874 -198.874 212.132 -212.132 218.545 -229.751 224.958 -247.371 231.371 -264.99 237.784 -282.609 244.196 -300.228 250.609 -317.847 257.022 -335.467 263.435 -353.086 261.801 -371.765 260.167 -390.443 258.533 -409.122 256.898 -427.801 247.523 -444.039 238.148 -460.276 222.789 -471.031"/><polyline points="222.789 -471.031"/><polyline points="222.789 -471.031 207.43 -481.786 198.055 -498.024"/><polyline points="207.43 -481.786"/><polyline points="238.148 -460.276 228.773 -476.514"/><polyline points="228.773 -476.514"/><polyline points="228.773 -476.514 219.398 -492.752 217.764 -511.431"/><polyline points="219.398 -492.752"/><polyline points="238.148 -460.276 228.773 -476.514 219.398 -492.752 217.764 -511.431 216.13 -530.11 214.496 -548.788"/><polyline points="214.496 -548.788"/><polyline points="214.496 -548.788 212.862 -567.467 219.275 -585.086"/><polyline points="212.862 -567.467"/><polyline points="219.398 -492.752 204.039 -503.507"/><polyline points="204.039 -503.507"/><polyline points="204.039 -503.507 188.68 -514.262 179.305 -530.5"/><polyline points="188.68 -514.262"/><polyline points="256.898 -427.801 255.264 -446.479 253.63 -465.158 244.255 -481.396"/><polyline points="244.255 -481.396"/><polyline points="244.255 -481.396 234.88 -497.634 233.246 -516.312"/><polyline points="234.88 -497.634"/><polyline points="253.63 -465.158 251.996 -483.836"/><polyline points="251.996 -483.836"/><polyline points="251.996 -483.836 250.362 -502.515 256.775 -520.134"/><polyline points="250.362 -502.515"/><polyline points="253.63 -465.158 251.996 -483.836 250.362 -502.515 256.775 -520.134 263.187 -537.754 269.6 -555.373"/><polyline points="269.6 -555.373"/><polyline points="269.6 -555.373 276.013 -572.992 289.271 -586.25"/><polyline points="276.013 -572.992"/><polyline points="250.362 -502.515 240.987 -518.753"/><polyline points="240.987 -518.753"/><polyline points="240.987 -518.753 231.612 -534.991 229.978 -553.67"/><polyline points="231.612 -534.991"/><polyline points="256.898 -427.801 255.264 -446.479 253.63 -465.158 251.996 -483.836 250.362 -502.515 256.775 -520.134 263.187 -537.754 269.6 -555.373 276.013 -572.992 282.426 -590.611 288.839 -608.231 287.205 -626.909"/><polyline points="287.205 -626.909"/><polyline points="287.205 -626.909 285.571 -645.588 291.983 -663.207"/><polyline points="285.571 -645.588"/><polyline points="288.839 -608.231 295.252 -625.85"/><polyline points="295.252 -625.85"/><polyline points="295.252 -625.85 301.665 -643.469 314.923 -656.727"/><polyline points="301.665 -643.469"/><polyline points="288.839 -608.231 295.252 -625.85 301.665 -643.469 314.923 -656.727 328.181 -669.986 341.439 -683.244"/><polyline points="341.439 -683.244"/><polyline points="341.439 -683.244 354.698 -696.502 372.317 -702.915"/><polyline points="354.698 -696.502"/><polyline points="301.665 -643.469 300.031 -662.148"/><polyline points="300.031 -662.148"/><polyline points="300.031 -662.148 298.396 -680.826 304.809 -698.446"/><polyline points="298.396 -680.826"/><polyline points="250.362 -502.515 240.987 -518.753 231.612 -534.991 216.253 -545.746"/><polyline points="216.253 -545.746"/><polyline points="216.253 -545.746 200.893 -556.5 191.518 -572.738"/><polyline points="200.893 -556.5"/><polyline points="231.612 -534.991 222.237 -551.229"/><polyline points="222.237 -551.229"/><polyline points="222.237 -551.229 212.862 -567.467 211.228 -586.146"/><polyline points="212.862 -567.467"/><polyline points="231.612 -534.991 222.237 -551.229 212.862 -567.467 211.228 -586.146 209.593 -604.824 207.959 -623.503"/><polyline points="207.959 -623.503"/><polyline points="207.959 -623.503 206.325 -642.182 212.738 -659.801"/><polyline points="206.325 -642.182"/><polyline points="212.862 -567.467 197.503 -578.222"/><polyline points="197.503 -578.222"/><polyline points="197.503 -578.222 182.143 -588.976 172.768 -605.214"/><polyline points="182.143 -588.976"/><polyline points="263.435 -353.086 269.848 -370.705 276.261 -388.324 282.674 -405.944 289.087 -423.563 287.452 -442.242 285.818 -460.92 276.443 -477.158"/><polyline points="276.443 -477.158"/><polyline points="276.443 -477.158 267.068 -493.396 265.434 -512.075"/><polyline points="267.068 -493.396"/><polyline points="285.818 -460.92 284.184 -479.599"/><polyline points="284.184 -479.599"/><polyline points="284.184 -479.599 282.55 -498.277 288.963 -515.897"/><polyline points="282.55 -498.277"/><polyline points="285.818 -460.92 284.184 -479.599 282.55 -498.277 288.963 -515.897 295.376 -533.516 301.789 -551.135"/><polyline points="301.789 -551.135"/><polyline points="301.789 -551.135 308.201 -568.754 321.46 -582.013"/><polyline points="308.201 -568.754"/><polyline points="282.55 -498.277 273.175 -514.515"/><polyline points="273.175 -514.515"/><polyline points="273.175 -514.515 263.8 -530.753 262.166 -549.432"/><polyline points="263.8 -530.753"/><polyline points="289.087 -423.563 295.499 -441.182 301.912 -458.801 300.278 -477.48"/><polyline points="300.278 -477.48"/><polyline points="300.278 -477.48 298.644 -496.159 305.057 -513.778"/><polyline points="298.644 -496.159"/><polyline points="301.912 -458.801 308.325 -476.421"/><polyline points="308.325 -476.421"/><polyline points="308.325 -476.421 314.738 -494.04 327.996 -507.298"/><polyline points="314.738 -494.04"/><polyline points="301.912 -458.801 308.325 -476.421 314.738 -494.04 327.996 -507.298 341.255 -520.556 354.513 -533.815"/><polyline points="354.513 -533.815"/><polyline points="354.513 -533.815 367.771 -547.073 385.39 -553.486"/><polyline points="367.771 -547.073"/><polyline points="314.738 -494.04 313.104 -512.718"/><polyline points="313.104 -512.718"/><polyline points="313.104 -512.718 311.47 -531.397 317.883 -549.016"/><polyline points="311.47 -531.397"/><polyline points="289.087 -423.563 295.499 -441.182 301.912 -458.801 308.325 -476.421 314.738 -494.04 327.996 -507.298 341.255 -520.556 354.513 -533.815 367.771 -547.073 381.029 -560.331 394.288 -573.589 400.7 -591.209"/><polyline points="400.7 -591.209"/><polyline points="400.7 -591.209 407.113 -608.828 420.372 -622.086"/><polyline points="407.113 -608.828"/><polyline points="394.288 -573.589 407.546 -586.848"/><polyline points="407.546 -586.848"/><polyline points="407.546 -586.848 420.804 -600.106 438.423 -606.519"/><polyline points="420.804 -600.106"/><polyline points="394.288 -573.589 407.546 -586.848 420.804 -600.106 438.423 -606.519 456.043 -612.932 473.662 -619.344"/><polyline points="473.662 -619.344"/><polyline points="473.662 -619.344 491.281 -625.757 509.96 -624.123"/><polyline points="491.281 -625.757"/><polyline points="420.804 -600.106 427.217 -617.725"/><polyline points="427.217 -617.725"/><polyline points="427.217 -617.725 433.63 -635.344 446.888 -648.603"/><polyline points="433.63 -635.344"/><polyline points="314.738 -494.04 313.104 -512.718 311.47 -531.397 302.095 -547.635"/><polyline points="302.095 -547.635"/><polyline points="302.095 -547.635 292.72 -563.873 291.086 -582.552"/><polyline points="292.72 -563.873"/><polyline points="311.47 -531.397 309.836 -550.076"/><polyline points="309.836 -550.076"/><polyline points="309.836 -550.076 308.201 -568.754 314.614 -586.374"/><polyline points="308.201 -568.754"/><polyline points="311.47 -531.397 309.836 -550.076 308.201 -568.754 314.614 -586.374 321.027 -603.993 327.44 -621.612"/><polyline points="327.44 -621.612"/><polyline points="327.44 -621.612 333.853 -639.231 347.111 -652.49"/><polyline points="333.853 -639.231"/><polyline points="308.201 -568.754 298.826 -584.992"/><polyline points="298.826 -584.992"/><polyline points="298.826 -584.992 289.451 -601.23 287.817 -619.909"/><polyline points="289.451 -601.23"/><polyline points="263.435 -353.086 269.848 -370.705 276.261 -388.324 282.674 -405.944 289.087 -423.563 295.499 -441.182 301.912 -458.801 308.325 -476.421 314.738 -494.04 327.996 -507.298 341.255 -520.556 354.513 -533.815 367.771 -547.073 381.029 -560.331 394.288 -573.589 407.546 -586.848 420.804 -600.106 434.062 -613.364 447.321 -626.622 460.579 -639.881 473.837 -653.139 480.25 -670.758 486.663 -688.377 485.029 -707.056"/><polyline points="485.029 -707.056"/><polyline points="485.029 -707.056 483.395 -725.735 489.807 -743.354"/><polyline points="483.395 -725.735"/><polyline points="486.663 -688.377 493.076 -705.997"/><polyline points="493.076 -705.997"/><polyline points="493.076 -705.997 499.489 -723.616 512.747 -736.874"/><polyline points="499.489 -723.616"/><polyline points="486.663 -688.377 493.076 -705.997 499.489 -723.616 512.747 -736.874 526.005 -750.132 539.263 -763.391"/><polyline points="539.263 -763.391"/><polyline points="539.263 -763.391 552.522 -776.649 570.141 -783.062"/><polyline points="552.522 -776.649"/><polyline points="499.489 -723.616 497.854 -742.294"/><polyline points="497.854 -742.294"/><polyline points="497.854 -742.294 496.22 -760.973 502.633 -778.592"/><polyline points="496.22 -760.973"/><polyline points="473.837 -653.139 487.095 -666.397 500.354 -679.655 506.766 -697.275"/><polyline points="506.766 -697.275"/><polyline points="506.766 -697.275 513.179 -714.894 526.438 -728.152"/><polyline points="513.179 -714.894"/><polyline points="500.354 -679.655 513.612 -692.914"/><polyline points="513.612 -692.914"/><polyline points="513.612 -692.914 526.87 -706.172 544.489 -712.585"/><polyline points="526.87 -706.172"/><polyline points="500.354 -679.655 513.612 -692.914 526.87 -706.172 544.489 -712.585 562.109 -718.998 579.728 -725.41"/><polyline points="579.728 -725.41"/><polyline points="579.728 -725.41 597.347 -731.823 616.026 -730.189"/><polyline points="597.347 -731.823"/><polyline points="526.87 -706.172 533.283 -723.791"/><polyline points="533.283 -723.791"/><polyline points="533.283 -723.791 539.696 -741.41 552.954 -754.669"/><polyline points="539.696 -741.41"/><polyline points="473.837 -653.139 487.095 -666.397 500.354 -679.655 513.612 -692.914 526.87 -706.172 544.489 -712.585 562.109 -718.998 579.728 -725.41 597.347 -731.823 614.966 -738.236 632.586 -744.649 645.844 -757.907"/><polyline points="645.844 -757.907"/><polyline points="645.844 -757.907 659.102 -771.166 676.721 -777.579"/><polyline points="659.102 -771.166"/><polyline points="632.586 -744.649 650.205 -751.062"/><polyline points="650.205 -751.062"/><polyline points="650.205 -751.062 667.824 -757.475 686.503 -755.841"/><polyline points="667.824 -757.475"/><polyline points="632.586 -744.649 650.205 -751.062 667.824 -757.475 686.503 -755.841 705.181 -754.207 723.86 -752.572"/><polyline points="723.86 -752.572"/><polyline points="723.86 -752.572 742.539 -750.938 758.777 -741.563"/><polyline points="742.539 -750.938"/><polyline points="667.824 -757.475 681.082 -770.733"/><polyline points="681.082 -770.733"/><polyline points="681.082 -770.733 694.341 -783.991 711.96 -790.404"/><polyline points="694.341 -783.991"/><polyline points="526.87 -706.172 533.283 -723.791 539.696 -741.41 538.062 -760.089"/><polyline points="538.062 -760.089"/><polyline points="538.062 -760.089 536.428 -778.768 542.84 -796.387"/><polyline points="536.428 -778.768"/><polyline points="539.696 -741.41 546.109 -759.03"/><polyline points="546.109 -759.03"/><polyline points="546.109 -759.03 552.522 -776.649 565.78 -789.907"/><polyline points="552.522 -776.649"/><polyline points="539.696 -741.41 546.109 -759.03 552.522 -776.649 565.78 -789.907 579.038 -803.165 592.296 -816.424"/><polyline points="592.296 -816.424"/><polyline points="592.296 -816.424 605.555 -829.682 623.174 -836.095"/><polyline points="605.555 -829.682"/><polyline points="552.522 -776.649 550.887 -795.327"/><polyline points="550.887 -795.327"/><polyline points="550.887 -795.327 549.253 -814.006 555.666 -831.625"/><polyline points="549.253 -814.006"/><polyline points="314.738 -494.04 313.104 -512.718 311.47 -531.397 309.836 -550.076 308.201 -568.754 298.826 -584.992 289.451 -601.23 274.092 -611.985"/><polyline points="274.092 -611.985"/><polyline points="274.092 -611.985 258.733 -622.739 249.358 -638.977"/><polyline points="258.733 -622.739"/><polyline points="289.451 -601.23 280.076 -617.468"/><polyline points="280.076 -617.468"/><polyline points="280.076 -617.468 270.701 -633.706 269.067 -652.385"/><polyline points="270.701 -633.706"/><polyline points="289.451 -601.23 280.076 -617.468 270.701 -633.706 269.067 -652.385 267.433 -671.064 265.799 -689.742"/><polyline points="265.799 -689.742"/><polyline points="265.799 -689.742 264.165 -708.421 270.578 -726.04"/><polyline points="264.165 -708.421"/><polyline points="270.701 -633.706 255.342 -644.461"/><polyline points="255.342 -644.461"/><polyline points="255.342 -644.461 239.983 -655.215 230.608 -671.453"/><polyline points="239.983 -655.215"/><polyline points="308.201 -568.754 306.567 -587.433 304.933 -606.112 295.558 -622.35"/><polyline points="295.558 -622.35"/><polyline points="295.558 -622.35 286.183 -638.588 284.549 -657.266"/><polyline points="286.183 -638.588"/><polyline points="304.933 -606.112 303.299 -624.79"/><polyline points="303.299 -624.79"/><polyline points="303.299 -624.79 301.665 -643.469 308.078 -661.088"/><polyline points="301.665 -643.469"/><polyline points="304.933 -606.112 303.299 -624.79 301.665 -643.469 308.078 -661.088 314.49 -678.707 320.903 -696.327"/><polyline points="320.903 -696.327"/><polyline points="320.903 -696.327 327.316 -713.946 340.574 -727.204"/><polyline points="327.316 -713.946"/><polyline points="301.665 -643.469 292.29 -659.707"/><polyline points="292.29 -659.707"/><polyline points="292.29 -659.707 282.915 -675.945 281.281 -694.624"/><polyline points="282.915 -675.945"/><polyline points="308.201 -568.754 306.567 -587.433 304.933 -606.112 303.299 -624.79 301.665 -643.469 308.078 -661.088 314.49 -678.707 320.903 -696.327 327.316 -713.946 333.729 -731.565 340.142 -749.184 338.508 -767.863"/><polyline points="338.508 -767.863"/><polyline points="338.508 -767.863 336.874 -786.542 343.287 -804.161"/><polyline points="336.874 -786.542"/><polyline points="340.142 -749.184 346.555 -766.804"/><polyline points="346.555 -766.804"/><polyline points="346.555 -766.804 352.968 -784.423 366.226 -797.681"/><polyline points="352.968 -784.423"/><polyline points="340.142 -749.184 346.555 -766.804 352.968 -784.423 366.226 -797.681 379.484 -810.939 392.742 -824.198"/><polyline points="392.742 -824.198"/><polyline points="392.742 -824.198 406.001 -837.456 423.62 -843.869"/><polyline points="406.001 -837.456"/><polyline points="352.968 -784.423 351.334 -803.102"/><polyline points="351.334 -803.102"/><polyline points="351.334 -803.102 349.699 -821.78 356.112 -839.399"/><polyline points="349.699 -821.78"/><polyline points="301.665 -643.469 292.29 -659.707 282.915 -675.945 267.556 -686.7"/><polyline points="267.556 -686.7"/><polyline points="267.556 -686.7 252.197 -697.454 242.822 -713.692"/><polyline points="252.197 -697.454"/><polyline points="282.915 -675.945 273.54 -692.183"/><polyline points="273.54 -692.183"/><polyline points="273.54 -692.183 264.165 -708.421 262.531 -727.1"/><polyline points="264.165 -708.421"/><polyline points="282.915 -675.945 273.54 -692.183 264.165 -708.421 262.531 -727.1 260.896 -745.778 259.262 -764.457"/><polyline points="259.262 -764.457"/><polyline points="259.262 -764.457 257.628 -783.136 264.041 -800.755"/><polyline points="257.628 -783.136"/><polyline points="264.165 -708.421 248.806 -719.175"/><polyline points="248.806 -719.175"/><polyline points="248.806 -719.175 233.447 -729.93 224.072 -746.168"/><polyline points="233.447 -729.93"/><polyline points="212.132 -212.132 225.39 -225.39 238.649 -238.649 251.907 -251.907 265.165 -265.165 278.423 -278.423 291.682 -291.682 304.94 -304.94 318.198 -318.198 324.611 -335.817 331.024 -353.437 337.437 -371.056 343.85 -388.675 342.215 -407.354 340.581 -426.032 331.206 -442.27"/><polyline points="331.206 -442.27"/><polyline points="331.206 -442.27 321.831 -458.508 320.197 -477.187"/><polyline points="321.831 -458.508"/><polyline points="340.581 -426.032 338.947 -444.711"/><polyline points="338.947 -444.711"/><polyline points="338.947 -444.711 337.313 -463.39 343.726 -481.009"/><polyline points="337.313 -463.39"/><polyline points="340.581 -426.032 338.947 -444.711 337.313 -463.39 343.726 -481.009 350.139 -498.628 356.552 -516.247"/><polyline points="356.552 -516.247"/><polyline points="356.552 -516.247 362.964 -533.867 376.223 -547.125"/><polyline points="362.964 -533.867"/><polyline points="337.313 -463.39 327.938 -479.628"/><polyline points="327.938 -479.628"/><polyline points="327.938 -479.628 318.563 -495.866 316.929 -514.544"/><polyline points="318.563 -495.866"/><polyline points="343.85 -388.675 350.262 -406.294 356.675 -423.913 355.041 -442.592"/><polyline points="355.041 -442.592"/><polyline points="355.041 -442.592 353.407 -461.271 359.82 -478.89"/><polyline points="353.407 -461.271"/><polyline points="356.675 -423.913 363.088 -441.533"/><polyline points="363.088 -441.533"/><polyline points="363.088 -441.533 369.501 -459.152 382.759 -472.41"/><polyline points="369.501 -459.152"/><polyline points="356.675 -423.913 363.088 -441.533 369.501 -459.152 382.759 -472.41 396.018 -485.668 409.276 -498.927"/><polyline points="409.276 -498.927"/><polyline points="409.276 -498.927 422.534 -512.185 440.153 -518.598"/><polyline points="422.534 -512.185"/><polyline points="369.501 -459.152 367.867 -477.831"/><polyline points="367.867 -477.831"/><polyline points="367.867 -477.831 366.233 -496.509 372.646 -514.128"/><polyline points="366.233 -496.509"/><polyline points="343.85 -388.675 350.262 -406.294 356.675 -423.913 363.088 -441.533 369.501 -459.152 382.759 -472.41 396.018 -485.668 409.276 -498.927 422.534 -512.185 435.792 -525.443 449.051 -538.701 455.463 -556.321"/><polyline points="455.463 -556.321"/><polyline points="455.463 -556.321 461.876 -573.94 475.135 -587.198"/><polyline points="461.876 -573.94"/><polyline points="449.051 -538.701 462.309 -551.96"/><polyline points="462.309 -551.96"/><polyline points="462.309 -551.96 475.567 -565.218 493.186 -571.631"/><polyline points="475.567 -565.218"/><polyline points="449.051 -538.701 462.309 -551.96 475.567 -565.218 493.186 -571.631 510.806 -578.044 528.425 -584.457"/><polyline points="528.425 -584.457"/><polyline points="528.425 -584.457 546.044 -590.869 564.723 -589.235"/><polyline points="546.044 -590.869"/><polyline points="475.567 -565.218 481.98 -582.837"/><polyline points="481.98 -582.837"/><polyline points="481.98 -582.837 488.393 -600.456 501.651 -613.715"/><polyline points="488.393 -600.456"/><polyline points="369.501 -459.152 367.867 -477.831 366.233 -496.509 356.858 -512.747"/><polyline points="356.858 -512.747"/><polyline points="356.858 -512.747 347.483 -528.985 345.849 -547.664"/><polyline points="347.483 -528.985"/><polyline points="366.233 -496.509 364.599 -515.188"/><polyline points="364.599 -515.188"/><polyline points="364.599 -515.188 362.964 -533.867 369.377 -551.486"/><polyline points="362.964 -533.867"/><polyline points="366.233 -496.509 364.599 -515.188 362.964 -533.867 369.377 -551.486 375.79 -569.105 382.203 -586.724"/><polyline points="382.203 -586.724"/><polyline points="382.203 -586.724 388.616 -604.343 401.874 -617.602"/><polyline points="388.616 -604.343"/><polyline points="362.964 -533.867 353.589 -550.105"/><polyline points="353.589 -550.105"/><polyline points="353.589 -550.105 344.214 -566.342 342.58 -585.021"/><polyline points="344.214 -566.342"/><polyline points="318.198 -318.198 331.456 -331.456 344.715 -344.715 357.973 -357.973 371.231 -371.231 377.644 -388.85 384.057 -406.47 382.423 -425.148"/><polyline points="382.423 -425.148"/><polyline points="382.423 -425.148 380.788 -443.827 387.201 -461.446"/><polyline points="380.788 -443.827"/><polyline points="384.057 -406.47 390.47 -424.089"/><polyline points="390.47 -424.089"/><polyline points="390.47 -424.089 396.883 -441.708 410.141 -454.966"/><polyline points="396.883 -441.708"/><polyline points="384.057 -406.47 390.47 -424.089 396.883 -441.708 410.141 -454.966 423.399 -468.225 436.657 -481.483"/><polyline points="436.657 -481.483"/><polyline points="436.657 -481.483 449.916 -494.741 467.535 -501.154"/><polyline points="449.916 -494.741"/><polyline points="396.883 -441.708 395.248 -460.387"/><polyline points="395.248 -460.387"/><polyline points="395.248 -460.387 393.614 -479.065 400.027 -496.685"/><polyline points="393.614 -479.065"/><polyline points="371.231 -371.231 384.489 -384.489 397.748 -397.748 404.16 -415.367"/><polyline points="404.16 -415.367"/><polyline points="404.16 -415.367 410.573 -432.986 423.832 -446.244"/><polyline points="410.573 -432.986"/><polyline points="397.748 -397.748 411.006 -411.006"/><polyline points="411.006 -411.006"/><polyline points="411.006 -411.006 424.264 -424.264 441.883 -430.677"/><polyline points="424.264 -424.264"/><polyline points="397.748 -397.748 411.006 -411.006 424.264 -424.264 441.883 -430.677 459.503 -437.09 477.122 -443.503"/><polyline points="477.122 -443.503"/><polyline points="477.122 -443.503 494.741 -449.916 513.42 -448.281"/><polyline points="494.741 -449.916"/><polyline points="424.264 -424.264 430.677 -441.883"/><polyline points="430.677 -441.883"/><polyline points="430.677 -441.883 437.09 -459.503 450.348 -472.761"/><polyline points="437.09 -459.503"/><polyline points="371.231 -371.231 384.489 -384.489 397.748 -397.748 411.006 -411.006 424.264 -424.264 441.883 -430.677 459.503 -437.09 477.122 -443.503 494.741 -449.916 512.36 -456.328 529.979 -462.741 543.238 -476"/><polyline points="543.238 -476"/><polyline points="543.238 -476 556.496 -489.258 574.115 -495.671"/><polyline points="556.496 -489.258"/><polyline points="529.979 -462.741 547.599 -469.154"/><polyline points="547.599 -469.154"/><polyline points="547.599 -469.154 565.218 -475.567 583.897 -473.933"/><polyline points="565.218 -475.567"/><polyline points="529.979 -462.741 547.599 -469.154 565.218 -475.567 583.897 -473.933 602.575 -472.299 621.254 -470.665"/><polyline points="621.254 -470.665"/><polyline points="621.254 -470.665 639.933 -469.03 656.171 -459.655"/><polyline points="639.933 -469.03"/><polyline points="565.218 -475.567 578.476 -488.825"/><polyline points="578.476 -488.825"/><polyline points="578.476 -488.825 591.734 -502.084 609.354 -508.496"/><polyline points="591.734 -502.084"/><polyline points="424.264 -424.264 430.677 -441.883 437.09 -459.503 435.456 -478.181"/><polyline points="435.456 -478.181"/><polyline points="435.456 -478.181 433.821 -496.86 440.234 -514.479"/><polyline points="433.821 -496.86"/><polyline points="437.09 -459.503 443.503 -477.122"/><polyline points="443.503 -477.122"/><polyline points="443.503 -477.122 449.916 -494.741 463.174 -507.999"/><polyline points="449.916 -494.741"/><polyline points="437.09 -459.503 443.503 -477.122 449.916 -494.741 463.174 -507.999 476.432 -521.258 489.69 -534.516"/><polyline points="489.69 -534.516"/><polyline points="489.69 -534.516 502.949 -547.774 520.568 -554.187"/><polyline points="502.949 -547.774"/><polyline points="449.916 -494.741 448.281 -513.42"/><polyline points="448.281 -513.42"/><polyline points="448.281 -513.42 446.647 -532.098 453.06 -549.718"/><polyline points="446.647 -532.098"/><polyline points="318.198 -318.198 331.456 -331.456 344.715 -344.715 357.973 -357.973 371.231 -371.231 384.489 -384.489 397.748 -397.748 411.006 -411.006 424.264 -424.264 441.883 -430.677 459.503 -437.09 477.122 -443.503 494.741 -449.916 512.36 -456.328 529.979 -462.741 547.599 -469.154 565.218 -475.567 582.837 -481.98 600.456 -488.393 618.076 -494.806 635.695 -501.219 648.953 -514.477 662.211 -527.735 668.624 -545.354"/><polyline points="668.624 -545.354"/><polyline points="668.624 -545.354 675.037 -562.974 688.295 -576.232"/><polyline points="675.037 -562.974"/><polyline points="662.211 -527.735 675.47 -540.993"/><polyline points="675.47 -540.993"/><polyline points="675.47 -540.993 688.728 -554.252 706.347 -560.664"/><polyline points="688.728 -554.252"/><polyline points="662.211 -527.735 675.47 -540.993 688.728 -554.252 706.347 -560.664 723.966 -567.077 741.586 -573.49"/><polyline points="741.586 -573.49"/><polyline points="741.586 -573.49 759.205 -579.903 777.884 -578.269"/><polyline points="759.205 -579.903"/><polyline points="688.728 -554.252 695.141 -571.871"/><polyline points="695.141 -571.871"/><polyline points="695.141 -571.871 701.554 -589.49 714.812 -602.748"/><polyline points="701.554 -589.49"/><polyline points="635.695 -501.219 653.314 -507.631 670.933 -514.044 684.192 -527.303"/><polyline points="684.192 -527.303"/><polyline points="684.192 -527.303 697.45 -540.561 715.069 -546.974"/><polyline points="697.45 -540.561"/><polyline points="670.933 -514.044 688.553 -520.457"/><polyline points="688.553 -520.457"/><polyline points="688.553 -520.457 706.172 -526.87 724.851 -525.236"/><polyline points="706.172 -526.87"/><polyline points="670.933 -514.044 688.553 -520.457 706.172 -526.87 724.851 -525.236 743.529 -523.602 762.208 -521.968"/><polyline points="762.208 -521.968"/><polyline points="762.208 -521.968 780.886 -520.333 797.124 -510.958"/><polyline points="780.886 -520.333"/><polyline points="706.172 -526.87 719.43 -540.128"/><polyline points="719.43 -540.128"/><polyline points="719.43 -540.128 732.688 -553.387 750.308 -559.799"/><polyline points="732.688 -553.387"/><polyline points="635.695 -501.219 653.314 -507.631 670.933 -514.044 688.553 -520.457 706.172 -526.87 724.851 -525.236 743.529 -523.602 762.208 -521.968 780.886 -520.333 799.565 -518.699 818.244 -517.065 835.863 -523.478"/><polyline points="835.863 -523.478"/><polyline points="835.863 -523.478 853.482 -529.891 872.161 -528.257"/><polyline points="853.482 -529.891"/><polyline points="818.244 -517.065 836.922 -515.431"/><polyline points="836.922 -515.431"/><polyline points="836.922 -515.431 855.601 -513.797 871.839 -504.422"/><polyline points="855.601 -513.797"/><polyline points="818.244 -517.065 836.922 -515.431 855.601 -513.797 871.839 -504.422 888.077 -495.047 904.315 -485.672"/><polyline points="904.315 -485.672"/><polyline points="904.315 -485.672 920.553 -476.297 931.308 -460.938"/><polyline points="920.553 -476.297"/><polyline points="855.601 -513.797 873.22 -520.21"/><polyline points="873.22 -520.21"/><polyline points="873.22 -520.21 890.84 -526.623 909.518 -524.988"/><polyline points="890.84 -526.623"/><polyline points="706.172 -526.87 719.43 -540.128 732.688 -553.387 739.101 -571.006"/><polyline points="739.101 -571.006"/><polyline points="739.101 -571.006 745.514 -588.625 758.772 -601.883"/><polyline points="745.514 -588.625"/><polyline points="732.688 -553.387 745.947 -566.645"/><polyline points="745.947 -566.645"/><polyline points="745.947 -566.645 759.205 -579.903 776.824 -586.316"/><polyline points="759.205 -579.903"/><polyline points="732.688 -553.387 745.947 -566.645 759.205 -579.903 776.824 -586.316 794.443 -592.729 812.063 -599.142"/><polyline points="812.063 -599.142"/><polyline points="812.063 -599.142 829.682 -605.555 848.36 -603.92"/><polyline points="829.682 -605.555"/><polyline points="759.205 -579.903 765.618 -597.522"/><polyline points="765.618 -597.522"/><polyline points="765.618 -597.522 772.031 -615.142 785.289 -628.4"/><polyline points="772.031 -615.142"/><polyline points="424.264 -424.264 430.677 -441.883 437.09 -459.503 443.503 -477.122 449.916 -494.741 448.281 -513.42 446.647 -532.098 437.272 -548.336"/><polyline points="437.272 -548.336"/><polyline points="437.272 -548.336 427.897 -564.574 426.263 -583.253"/><polyline points="427.897 -564.574"/><polyline points="446.647 -532.098 445.013 -550.777"/><polyline points="445.013 -550.777"/><polyline points="445.013 -550.777 443.379 -569.456 449.792 -587.075"/><polyline points="443.379 -569.456"/><polyline points="446.647 -532.098 445.013 -550.777 443.379 -569.456 449.792 -587.075 456.205 -604.694 462.618 -622.313"/><polyline points="462.618 -622.313"/><polyline points="462.618 -622.313 469.03 -639.933 482.289 -653.191"/><polyline points="469.03 -639.933"/><polyline points="443.379 -569.456 434.004 -585.694"/><polyline points="434.004 -585.694"/><polyline points="434.004 -585.694 424.629 -601.932 422.995 -620.61"/><polyline points="424.629 -601.932"/><polyline points="449.916 -494.741 456.328 -512.36 462.741 -529.979 461.107 -548.658"/><polyline points="461.107 -548.658"/><polyline points="461.107 -548.658 459.473 -567.337 465.886 -584.956"/><polyline points="459.473 -567.337"/><polyline points="462.741 -529.979 469.154 -547.599"/><polyline points="469.154 -547.599"/><polyline points="469.154 -547.599 475.567 -565.218 488.825 -578.476"/><polyline points="475.567 -565.218"/><polyline points="462.741 -529.979 469.154 -547.599 475.567 -565.218 488.825 -578.476 502.084 -591.734 515.342 -604.993"/><polyline points="515.342 -604.993"/><polyline points="515.342 -604.993 528.6 -618.251 546.219 -624.664"/><polyline points="528.6 -618.251"/><polyline points="475.567 -565.218 473.933 -583.897"/><polyline points="473.933 -583.897"/><polyline points="473.933 -583.897 472.299 -602.575 478.712 -620.194"/><polyline points="472.299 -602.575"/><polyline points="449.916 -494.741 456.328 -512.36 462.741 -529.979 469.154 -547.599 475.567 -565.218 488.825 -578.476 502.084 -591.734 515.342 -604.993 528.6 -618.251 541.858 -631.509 555.117 -644.767 561.529 -662.387"/><polyline points="561.529 -662.387"/><polyline points="561.529 -662.387 567.942 -680.006 581.201 -693.264"/><polyline points="567.942 -680.006"/><polyline points="555.117 -644.767 568.375 -658.026"/><polyline points="568.375 -658.026"/><polyline points="568.375 -658.026 581.633 -671.284 599.252 -677.697"/><polyline points="581.633 -671.284"/><polyline points="555.117 -644.767 568.375 -658.026 581.633 -671.284 599.252 -677.697 616.872 -684.11 634.491 -690.523"/><polyline points="634.491 -690.523"/><polyline points="634.491 -690.523 652.11 -696.935 670.789 -695.301"/><polyline points="652.11 -696.935"/><polyline points="581.633 -671.284 588.046 -688.903"/><polyline points="588.046 -688.903"/><polyline points="588.046 -688.903 594.459 -706.522 607.717 -719.781"/><polyline points="594.459 -706.522"/><polyline points="475.567 -565.218 473.933 -583.897 472.299 -602.575 462.924 -618.813"/><polyline points="462.924 -618.813"/><polyline points="462.924 -618.813 453.549 -635.051 451.915 -653.73"/><polyline points="453.549 -635.051"/><polyline points="472.299 -602.575 470.665 -621.254"/><polyline points="470.665 -621.254"/><polyline points="470.665 -621.254 469.03 -639.933 475.443 -657.552"/><polyline points="469.03 -639.933"/><polyline points="472.299 -602.575 470.665 -621.254 469.03 -639.933 475.443 -657.552 481.856 -675.171 488.269 -692.79"/><polyline points="488.269 -692.79"/><polyline points="488.269 -692.79 494.682 -710.41 507.94 -723.668"/><polyline points="494.682 -710.41"/><polyline points="469.03 -639.933 459.655 -656.171"/><polyline points="459.655 -656.171"/><polyline points="459.655 -656.171 450.28 -672.409 448.646 -691.087"/><polyline points="450.28 -672.409"/><polyline points="212.132 -212.132 225.39 -225.39 238.649 -238.649 251.907 -251.907 265.165 -265.165 278.423 -278.423 291.682 -291.682 304.94 -304.94 318.198 -318.198 331.456 -331.456 344.715 -344.715 357.973 -357.973 371.231 -371.231 384.489 -384.489 397.748 -397.748 411.006 -411.006 424.264 -424.264 441.883 -430.677 459.503 -437.09 477.122 -443.503 494.741 -449.916 512.36 -456.328 529.979 -462.741 547.599 -469.154 565.218 -475.567 582.837 -481.98 600.456 -488.393 618.076 -494.806 635.695 -501.219 653.314 -507.631 670.933 -514.044 688.553 -520.457 706.172 -526.87 723.791 -533.283 741.41 -539.696 759.03 -546.109 776.649 -552.522 794.268 -558.935 811.887 -565.347 829.507 -571.76 847.126 -578.173 860.384 -591.431 873.642 -604.69 886.901 -617.948 900.159 -631.206 906.572 -648.825 912.985 -666.445 911.35 -685.123"/><polyline points="911.35 -685.123"/><polyline points="911.35 -685.123 909.716 -703.802 916.129 -721.421"/><polyline points="909.716 -703.802"/><polyline points="912.985 -666.445 919.397 -684.064"/><polyline points="919.397 -684.064"/><polyline points="919.397 -684.064 925.81 -701.683 939.069 -714.941"/><polyline points="925.81 -701.683"/><polyline points="912.985 -666.445 919.397 -684.064 925.81 -701.683 939.069 -714.941 952.327 -728.2 965.585 -741.458"/><polyline points="965.585 -741.458"/><polyline points="965.585 -741.458 978.843 -754.716 996.463 -761.129"/><polyline points="978.843 -754.716"/><polyline points="925.81 -701.683 924.176 -720.362"/><polyline points="924.176 -720.362"/><polyline points="924.176 -720.362 922.542 -739.04 928.955 -756.66"/><polyline points="922.542 -739.04"/><polyline points="900.159 -631.206 913.417 -644.464 926.675 -657.723 933.088 -675.342"/><polyline points="933.088 -675.342"/><polyline points="933.088 -675.342 939.501 -692.961 952.759 -706.219"/><polyline points="939.501 -692.961"/><polyline points="926.675 -657.723 939.934 -670.981"/><polyline points="939.934 -670.981"/><polyline points="939.934 -670.981 953.192 -684.239 970.811 -690.652"/><polyline points="953.192 -684.239"/><polyline points="926.675 -657.723 939.934 -670.981 953.192 -684.239 970.811 -690.652 988.43 -697.065 1006.049 -703.478"/><polyline points="1006.049 -703.478"/><polyline points="1006.049 -703.478 1023.669 -709.891 1042.347 -708.256"/><polyline points="1023.669 -709.891"/><polyline points="953.192 -684.239 959.605 -701.858"/><polyline points="959.605 -701.858"/><polyline points="959.605 -701.858 966.018 -719.478 979.276 -732.736"/><polyline points="966.018 -719.478"/><polyline points="900.159 -631.206 913.417 -644.464 926.675 -657.723 939.934 -670.981 953.192 -684.239 970.811 -690.652 988.43 -697.065 1006.049 -703.478 1023.669 -709.891 1041.288 -716.304 1058.907 -722.716 1072.165 -735.975"/><polyline points="1072.165 -735.975"/><polyline points="1072.165 -735.975 1085.424 -749.233 1103.043 -755.646"/><polyline points="1085.424 -749.233"/><polyline points="1058.907 -722.716 1076.526 -729.129"/><polyline points="1076.526 -729.129"/><polyline points="1076.526 -729.129 1094.146 -735.542 1112.824 -733.908"/><polyline points="1094.146 -735.542"/><polyline points="1058.907 -722.716 1076.526 -729.129 1094.146 -735.542 1112.824 -733.908 1131.503 -732.274 1150.182 -730.64"/><polyline points="1150.182 -730.64"/><polyline points="1150.182 -730.64 1168.86 -729.005 1185.098 -719.63"/><polyline points="1168.86 -729.005"/><polyline points="1094.146 -735.542 1107.404 -748.8"/><polyline points="1107.404 -748.8"/><polyline points="1107.404 -748.8 1120.662 -762.059 1138.281 -768.472"/><polyline points="1120.662 -762.059"/><polyline points="953.192 -684.239 959.605 -701.858 966.018 -719.478 964.383 -738.156"/><polyline points="964.383 -738.156"/><polyline points="964.383 -738.156 962.749 -756.835 969.162 -774.454"/><polyline points="962.749 -756.835"/><polyline points="966.018 -719.478 972.43 -737.097"/><polyline points="972.43 -737.097"/><polyline points="972.43 -737.097 978.843 -754.716 992.102 -767.974"/><polyline points="978.843 -754.716"/><polyline points="966.018 -719.478 972.43 -737.097 978.843 -754.716 992.102 -767.974 1005.36 -781.233 1018.618 -794.491"/><polyline points="1018.618 -794.491"/><polyline points="1018.618 -794.491 1031.876 -807.749 1049.496 -814.162"/><polyline points="1031.876 -807.749"/><polyline points="978.843 -754.716 977.209 -773.395"/><polyline points="977.209 -773.395"/><polyline points="977.209 -773.395 975.575 -792.073 981.988 -809.693"/><polyline points="975.575 -792.073"/><polyline points="847.126 -578.173 864.745 -584.586 882.364 -590.999 899.983 -597.412 917.603 -603.825 930.861 -617.083 944.119 -630.341 950.532 -647.96"/><polyline points="950.532 -647.96"/><polyline points="950.532 -647.96 956.945 -665.58 970.203 -678.838"/><polyline points="956.945 -665.58"/><polyline points="944.119 -630.341 957.377 -643.599"/><polyline points="957.377 -643.599"/><polyline points="957.377 -643.599 970.636 -656.858 988.255 -663.271"/><polyline points="970.636 -656.858"/><polyline points="944.119 -630.341 957.377 -643.599 970.636 -656.858 988.255 -663.271 1005.874 -669.683 1023.493 -676.096"/><polyline points="1023.493 -676.096"/><polyline points="1023.493 -676.096 1041.113 -682.509 1059.791 -680.875"/><polyline points="1041.113 -682.509"/><polyline points="970.636 -656.858 977.049 -674.477"/><polyline points="977.049 -674.477"/><polyline points="977.049 -674.477 983.461 -692.096 996.72 -705.354"/><polyline points="983.461 -692.096"/><polyline points="917.603 -603.825 935.222 -610.238 952.841 -616.65 966.099 -629.909"/><polyline points="966.099 -629.909"/><polyline points="966.099 -629.909 979.358 -643.167 996.977 -649.58"/><polyline points="979.358 -643.167"/><polyline points="952.841 -616.65 970.46 -623.063"/><polyline points="970.46 -623.063"/><polyline points="970.46 -623.063 988.08 -629.476 1006.758 -627.842"/><polyline points="988.08 -629.476"/><polyline points="952.841 -616.65 970.46 -623.063 988.08 -629.476 1006.758 -627.842 1025.437 -626.208 1044.116 -624.574"/><polyline points="1044.116 -624.574"/><polyline points="1044.116 -624.574 1062.794 -622.939 1079.032 -613.564"/><polyline points="1062.794 -622.939"/><polyline points="988.08 -629.476 1001.338 -642.734"/><polyline points="1001.338 -642.734"/><polyline points="1001.338 -642.734 1014.596 -655.993 1032.215 -662.406"/><polyline points="1014.596 -655.993"/><polyline points="917.603 -603.825 935.222 -610.238 952.841 -616.65 970.46 -623.063 988.08 -629.476 1006.758 -627.842 1025.437 -626.208 1044.116 -624.574 1062.794 -622.939 1081.473 -621.305 1100.152 -619.671 1117.771 -626.084"/><polyline points="1117.771 -626.084"/><polyline points="1117.771 -626.084 1135.39 -632.497 1154.069 -630.863"/><polyline points="1135.39 -632.497"/><polyline points="1100.152 -619.671 1118.83 -618.037"/><polyline points="1118.83 -618.037"/><polyline points="1118.83 -618.037 1137.509 -616.403 1153.747 -607.028"/><polyline points="1137.509 -616.403"/><polyline points="1100.152 -619.671 1118.83 -618.037 1137.509 -616.403 1153.747 -607.028 1169.985 -597.653 1186.223 -588.278"/><polyline points="1186.223 -588.278"/><polyline points="1186.223 -588.278 1202.461 -578.903 1213.215 -563.544"/><polyline points="1202.461 -578.903"/><polyline points="1137.509 -616.403 1155.128 -622.816"/><polyline points="1155.128 -622.816"/><polyline points="1155.128 -622.816 1172.747 -629.229 1191.426 -627.594"/><polyline points="1172.747 -629.229"/><polyline points="988.08 -629.476 1001.338 -642.734 1014.596 -655.993 1021.009 -673.612"/><polyline points="1021.009 -673.612"/><polyline points="1021.009 -673.612 1027.422 -691.231 1040.68 -704.489"/><polyline points="1027.422 -691.231"/><polyline points="1014.596 -655.993 1027.854 -669.251"/><polyline points="1027.854 -669.251"/><polyline points="1027.854 -669.251 1041.113 -682.509 1058.732 -688.922"/><polyline points="1041.113 -682.509"/><polyline points="1014.596 -655.993 1027.854 -669.251 1041.113 -682.509 1058.732 -688.922 1076.351 -695.335 1093.97 -701.748"/><polyline points="1093.97 -701.748"/><polyline points="1093.97 -701.748 1111.59 -708.161 1130.268 -706.527"/><polyline points="1111.59 -708.161"/><polyline points="1041.113 -682.509 1047.526 -700.128"/><polyline points="1047.526 -700.128"/><polyline points="1047.526 -700.128 1053.938 -717.748 1067.197 -731.006"/><polyline points="1053.938 -717.748"/><polyline points="847.126 -578.173 864.745 -584.586 882.364 -590.999 899.983 -597.412 917.603 -603.825 935.222 -610.238 952.841 -616.65 970.46 -623.063 988.08 -629.476 1006.758 -627.842 1025.437 -626.208 1044.116 -624.574 1062.794 -622.939 1081.473 -621.305 1100.152 -619.671 1118.83 -618.037 1137.509 -616.403 1156.187 -614.769 1174.866 -613.134 1193.545 -611.5 1212.223 -609.866 1229.843 -616.279 1247.462 -622.692 1260.72 -635.95"/><polyline points="1260.72 -635.95"/><polyline points="1260.72 -635.95 1273.978 -649.208 1291.598 -655.621"/><polyline points="1273.978 -649.208"/><polyline points="1247.462 -622.692 1265.081 -629.105"/><polyline points="1265.081 -629.105"/><polyline points="1265.081 -629.105 1282.7 -635.518 1301.379 -633.883"/><polyline points="1282.7 -635.518"/><polyline points="1247.462 -622.692 1265.081 -629.105 1282.7 -635.518 1301.379 -633.883 1320.058 -632.249 1338.736 -630.615"/><polyline points="1338.736 -630.615"/><polyline points="1338.736 -630.615 1357.415 -628.981 1373.653 -619.606"/><polyline points="1357.415 -628.981"/><polyline points="1282.7 -635.518 1295.959 -648.776"/><polyline points="1295.959 -648.776"/><polyline points="1295.959 -648.776 1309.217 -662.034 1326.836 -668.447"/><polyline points="1309.217 -662.034"/><polyline points="1212.223 -609.866 1230.902 -608.232 1249.581 -606.598 1267.2 -613.011"/><polyline points="1267.2 -613.011"/><polyline points="1267.2 -613.011 1284.819 -619.424 1303.498 -617.789"/><polyline points="1284.819 -619.424"/><polyline points="1249.581 -606.598 1268.259 -604.964"/><polyline points="1268.259 -604.964"/><polyline points="1268.259 -604.964 1286.938 -603.329 1303.176 -593.954"/><polyline points="1286.938 -603.329"/><polyline points="1249.581 -606.598 1268.259 -604.964 1286.938 -603.329 1303.176 -593.954 1319.414 -584.579 1335.652 -575.204"/><polyline points="1335.652 -575.204"/><polyline points="1335.652 -575.204 1351.89 -565.829 1362.645 -550.47"/><polyline points="1351.89 -565.829"/><polyline points="1286.938 -603.329 1304.557 -609.742"/><polyline points="1304.557 -609.742"/><polyline points="1304.557 -609.742 1322.177 -616.155 1340.855 -614.521"/><polyline points="1322.177 -616.155"/><polyline points="1212.223 -609.866 1230.902 -608.232 1249.581 -606.598 1268.259 -604.964 1286.938 -603.329 1303.176 -593.954 1319.414 -584.579 1335.652 -575.204 1351.89 -565.829 1368.128 -556.454 1384.366 -547.079 1403.045 -545.445"/><polyline points="1403.045 -545.445"/><polyline points="1403.045 -545.445 1421.723 -543.811 1437.961 -534.436"/><polyline points="1421.723 -543.811"/><polyline points="1384.366 -547.079 1400.604 -537.704"/><polyline points="1400.604 -537.704"/><polyline points="1400.604 -537.704 1416.842 -528.329 1427.596 -512.97"/><polyline points="1416.842 -528.329"/><polyline points="1384.366 -547.079 1400.604 -537.704 1416.842 -528.329 1427.596 -512.97 1438.351 -497.611 1449.106 -482.252"/><polyline points="1449.106 -482.252"/><polyline points="1449.106 -482.252 1459.86 -466.893 1463.116 -448.428"/><polyline points="1459.86 -466.893"/><polyline points="1416.842 -528.329 1435.521 -526.695"/><polyline points="1435.521 -526.695"/><polyline points="1435.521 -526.695 1454.199 -525.061 1470.437 -515.686"/><polyline points="1454.199 -525.061"/><polyline points="1286.938 -603.329 1304.557 -609.742 1322.177 -616.155 1335.435 -629.413"/><polyline points="1335.435 -629.413"/><polyline points="1335.435 -629.413 1348.693 -642.672 1366.312 -649.085"/><polyline points="1348.693 -642.672"/><polyline points="1322.177 -616.155 1339.796 -622.568"/><polyline points="1339.796 -622.568"/><polyline points="1339.796 -622.568 1357.415 -628.981 1376.094 -627.347"/><polyline points="1357.415 -628.981"/><polyline points="1322.177 -616.155 1339.796 -622.568 1357.415 -628.981 1376.094 -627.347 1394.772 -625.713 1413.451 -624.078"/><polyline points="1413.451 -624.078"/><polyline points="1413.451 -624.078 1432.13 -622.444 1448.368 -613.069"/><polyline points="1432.13 -622.444"/><polyline points="1357.415 -628.981 1370.673 -642.239"/><polyline points="1370.673 -642.239"/><polyline points="1370.673 -642.239 1383.932 -655.497 1401.551 -661.91"/><polyline points="1383.932 -655.497"/><polyline points="988.08 -629.476 1001.338 -642.734 1014.596 -655.993 1027.854 -669.251 1041.113 -682.509 1047.526 -700.128 1053.938 -717.748 1052.304 -736.426"/><polyline points="1052.304 -736.426"/><polyline points="1052.304 -736.426 1050.67 -755.105 1057.083 -772.724"/><polyline points="1050.67 -755.105"/><polyline points="1053.938 -717.748 1060.351 -735.367"/><polyline points="1060.351 -735.367"/><polyline points="1060.351 -735.367 1066.764 -752.986 1080.022 -766.244"/><polyline points="1066.764 -752.986"/><polyline points="1053.938 -717.748 1060.351 -735.367 1066.764 -752.986 1080.022 -766.244 1093.281 -779.503 1106.539 -792.761"/><polyline points="1106.539 -792.761"/><polyline points="1106.539 -792.761 1119.797 -806.019 1137.416 -812.432"/><polyline points="1119.797 -806.019"/><polyline points="1066.764 -752.986 1065.13 -771.665"/><polyline points="1065.13 -771.665"/><polyline points="1065.13 -771.665 1063.496 -790.343 1069.909 -807.963"/><polyline points="1063.496 -790.343"/><polyline points="1041.113 -682.509 1054.371 -695.767 1067.629 -709.026 1074.042 -726.645"/><polyline points="1074.042 -726.645"/><polyline points="1074.042 -726.645 1080.455 -744.264 1093.713 -757.522"/><polyline points="1080.455 -744.264"/><polyline points="1067.629 -709.026 1080.887 -722.284"/><polyline points="1080.887 -722.284"/><polyline points="1080.887 -722.284 1094.146 -735.542 1111.765 -741.955"/><polyline points="1094.146 -735.542"/><polyline points="1067.629 -709.026 1080.887 -722.284 1094.146 -735.542 1111.765 -741.955 1129.384 -748.368 1147.003 -754.781"/><polyline points="1147.003 -754.781"/><polyline points="1147.003 -754.781 1164.623 -761.194 1183.301 -759.56"/><polyline points="1164.623 -761.194"/><polyline points="1094.146 -735.542 1100.559 -753.161"/><polyline points="1100.559 -753.161"/><polyline points="1100.559 -753.161 1106.971 -770.781 1120.23 -784.039"/><polyline points="1106.971 -770.781"/><polyline points="1041.113 -682.509 1054.371 -695.767 1067.629 -709.026 1080.887 -722.284 1094.146 -735.542 1111.765 -741.955 1129.384 -748.368 1147.003 -754.781 1164.623 -761.194 1182.242 -767.607 1199.861 -774.019 1213.119 -787.278"/><polyline points="1213.119 -787.278"/><polyline points="1213.119 -787.278 1226.378 -800.536 1243.997 -806.949"/><polyline points="1226.378 -800.536"/><polyline points="1199.861 -774.019 1217.48 -780.432"/><polyline points="1217.48 -780.432"/><polyline points="1217.48 -780.432 1235.1 -786.845 1253.778 -785.211"/><polyline points="1235.1 -786.845"/><polyline points="1199.861 -774.019 1217.48 -780.432 1235.1 -786.845 1253.778 -785.211 1272.457 -783.577 1291.136 -781.943"/><polyline points="1291.136 -781.943"/><polyline points="1291.136 -781.943 1309.814 -780.309 1326.052 -770.934"/><polyline points="1309.814 -780.309"/><polyline points="1235.1 -786.845 1248.358 -800.103"/><polyline points="1248.358 -800.103"/><polyline points="1248.358 -800.103 1261.616 -813.362 1279.235 -819.775"/><polyline points="1261.616 -813.362"/><polyline points="1094.146 -735.542 1100.559 -753.161 1106.971 -770.781 1105.337 -789.459"/><polyline points="1105.337 -789.459"/><polyline points="1105.337 -789.459 1103.703 -808.138 1110.116 -825.757"/><polyline points="1103.703 -808.138"/><polyline points="1106.971 -770.781 1113.384 -788.4"/><polyline points="1113.384 -788.4"/><polyline points="1113.384 -788.4 1119.797 -806.019 1133.055 -819.277"/><polyline points="1119.797 -806.019"/><polyline points="1106.971 -770.781 1113.384 -788.4 1119.797 -806.019 1133.055 -819.277 1146.314 -832.536 1159.572 -845.794"/><polyline points="1159.572 -845.794"/><polyline points="1159.572 -845.794 1172.83 -859.052 1190.449 -865.465"/><polyline points="1172.83 -859.052"/><polyline points="1119.797 -806.019 1118.163 -824.698"/><polyline points="1118.163 -824.698"/><polyline points="1118.163 -824.698 1116.529 -843.376 1122.942 -860.996"/><polyline points="1116.529 -843.376"/><polyline points="424.264 -424.264 430.677 -441.883 437.09 -459.503 443.503 -477.122 449.916 -494.741 456.328 -512.36 462.741 -529.979 469.154 -547.599 475.567 -565.218 473.933 -583.897 472.299 -602.575 470.665 -621.254 469.03 -639.933 459.655 -656.171 450.28 -672.409 434.921 -683.163"/><polyline points="434.921 -683.163"/><polyline points="434.921 -683.163 419.562 -693.918 410.187 -710.156"/><polyline points="419.562 -693.918"/><polyline points="450.28 -672.409 440.905 -688.646"/><polyline points="440.905 -688.646"/><polyline points="440.905 -688.646 431.53 -704.884 429.896 -723.563"/><polyline points="431.53 -704.884"/><polyline points="450.28 -672.409 440.905 -688.646 431.53 -704.884 429.896 -723.563 428.262 -742.242 426.628 -760.92"/><polyline points="426.628 -760.92"/><polyline points="426.628 -760.92 424.994 -779.599 431.407 -797.218"/><polyline points="424.994 -779.599"/><polyline points="431.53 -704.884 416.171 -715.639"/><polyline points="416.171 -715.639"/><polyline points="416.171 -715.639 400.812 -726.394 391.437 -742.632"/><polyline points="400.812 -726.394"/><polyline points="469.03 -639.933 467.396 -658.611 465.762 -677.29 456.387 -693.528"/><polyline points="456.387 -693.528"/><polyline points="456.387 -693.528 447.012 -709.766 445.378 -728.444"/><polyline points="447.012 -709.766"/><polyline points="465.762 -677.29 464.128 -695.969"/><polyline points="464.128 -695.969"/><polyline points="464.128 -695.969 462.494 -714.647 468.907 -732.266"/><polyline points="462.494 -714.647"/><polyline points="465.762 -677.29 464.128 -695.969 462.494 -714.647 468.907 -732.266 475.319 -749.886 481.732 -767.505"/><polyline points="481.732 -767.505"/><polyline points="481.732 -767.505 488.145 -785.124 501.403 -798.382"/><polyline points="488.145 -785.124"/><polyline points="462.494 -714.647 453.119 -730.885"/><polyline points="453.119 -730.885"/><polyline points="453.119 -730.885 443.744 -747.123 442.11 -765.802"/><polyline points="443.744 -747.123"/><polyline points="469.03 -639.933 467.396 -658.611 465.762 -677.29 464.128 -695.969 462.494 -714.647 468.907 -732.266 475.319 -749.886 481.732 -767.505 488.145 -785.124 494.558 -802.743 500.971 -820.363 499.337 -839.041"/><polyline points="499.337 -839.041"/><polyline points="499.337 -839.041 497.703 -857.72 504.116 -875.339"/><polyline points="497.703 -857.72"/><polyline points="500.971 -820.363 507.384 -837.982"/><polyline points="507.384 -837.982"/><polyline points="507.384 -837.982 513.797 -855.601 527.055 -868.859"/><polyline points="513.797 -855.601"/><polyline points="500.971 -820.363 507.384 -837.982 513.797 -855.601 527.055 -868.859 540.313 -882.118 553.572 -895.376"/><polyline points="553.572 -895.376"/><polyline points="553.572 -895.376 566.83 -908.634 584.449 -915.047"/><polyline points="566.83 -908.634"/><polyline points="513.797 -855.601 512.163 -874.28"/><polyline points="512.163 -874.28"/><polyline points="512.163 -874.28 510.528 -892.958 516.941 -910.578"/><polyline points="510.528 -892.958"/><polyline points="462.494 -714.647 453.119 -730.885 443.744 -747.123 428.385 -757.878"/><polyline points="428.385 -757.878"/><polyline points="428.385 -757.878 413.026 -768.632 403.651 -784.87"/><polyline points="413.026 -768.632"/><polyline points="443.744 -747.123 434.369 -763.361"/><polyline points="434.369 -763.361"/><polyline points="434.369 -763.361 424.994 -779.599 423.36 -798.278"/><polyline points="424.994 -779.599"/><polyline points="443.744 -747.123 434.369 -763.361 424.994 -779.599 423.36 -798.278 421.725 -816.956 420.091 -835.635"/><polyline points="420.091 -835.635"/><polyline points="420.091 -835.635 418.457 -854.314 424.87 -871.933"/><polyline points="418.457 -854.314"/><polyline points="424.994 -779.599 409.635 -790.354"/><polyline points="409.635 -790.354"/><polyline points="409.635 -790.354 394.276 -801.108 384.901 -817.346"/><polyline points="394.276 -801.108"/><polyline points="475.567 -565.218 481.98 -582.837 488.393 -600.456 494.806 -618.076 501.219 -635.695 499.584 -654.374 497.95 -673.052 488.575 -689.29"/><polyline points="488.575 -689.29"/><polyline points="488.575 -689.29 479.2 -705.528 477.566 -724.207"/><polyline points="479.2 -705.528"/><polyline points="497.95 -673.052 496.316 -691.731"/><polyline points="496.316 -691.731"/><polyline points="496.316 -691.731 494.682 -710.41 501.095 -728.029"/><polyline points="494.682 -710.41"/><polyline points="497.95 -673.052 496.316 -691.731 494.682 -710.41 501.095 -728.029 507.508 -745.648 513.921 -763.267"/><polyline points="513.921 -763.267"/><polyline points="513.921 -763.267 520.333 -780.886 533.592 -794.145"/><polyline points="520.333 -780.886"/><polyline points="494.682 -710.41 485.307 -726.647"/><polyline points="485.307 -726.647"/><polyline points="485.307 -726.647 475.932 -742.885 474.298 -761.564"/><polyline points="475.932 -742.885"/><polyline points="501.219 -635.695 507.631 -653.314 514.044 -670.933 512.41 -689.612"/><polyline points="512.41 -689.612"/><polyline points="512.41 -689.612 510.776 -708.291 517.189 -725.91"/><polyline points="510.776 -708.291"/><polyline points="514.044 -670.933 520.457 -688.553"/><polyline points="520.457 -688.553"/><polyline points="520.457 -688.553 526.87 -706.172 540.128 -719.43"/><polyline points="526.87 -706.172"/><polyline points="514.044 -670.933 520.457 -688.553 526.87 -706.172 540.128 -719.43 553.387 -732.688 566.645 -745.947"/><polyline points="566.645 -745.947"/><polyline points="566.645 -745.947 579.903 -759.205 597.522 -765.618"/><polyline points="579.903 -759.205"/><polyline points="526.87 -706.172 525.236 -724.851"/><polyline points="525.236 -724.851"/><polyline points="525.236 -724.851 523.602 -743.529 530.015 -761.148"/><polyline points="523.602 -743.529"/><polyline points="501.219 -635.695 507.631 -653.314 514.044 -670.933 520.457 -688.553 526.87 -706.172 540.128 -719.43 553.387 -732.688 566.645 -745.947 579.903 -759.205 593.161 -772.463 606.42 -785.721 612.833 -803.341"/><polyline points="612.833 -803.341"/><polyline points="612.833 -803.341 619.245 -820.96 632.504 -834.218"/><polyline points="619.245 -820.96"/><polyline points="606.42 -785.721 619.678 -798.98"/><polyline points="619.678 -798.98"/><polyline points="619.678 -798.98 632.936 -812.238 650.555 -818.651"/><polyline points="632.936 -812.238"/><polyline points="606.42 -785.721 619.678 -798.98 632.936 -812.238 650.555 -818.651 668.175 -825.064 685.794 -831.477"/><polyline points="685.794 -831.477"/><polyline points="685.794 -831.477 703.413 -837.889 722.092 -836.255"/><polyline points="703.413 -837.889"/><polyline points="632.936 -812.238 639.349 -829.857"/><polyline points="639.349 -829.857"/><polyline points="639.349 -829.857 645.762 -847.476 659.02 -860.735"/><polyline points="645.762 -847.476"/><polyline points="526.87 -706.172 525.236 -724.851 523.602 -743.529 514.227 -759.767"/><polyline points="514.227 -759.767"/><polyline points="514.227 -759.767 504.852 -776.005 503.218 -794.684"/><polyline points="504.852 -776.005"/><polyline points="523.602 -743.529 521.968 -762.208"/><polyline points="521.968 -762.208"/><polyline points="521.968 -762.208 520.333 -780.886 526.746 -798.506"/><polyline points="520.333 -780.886"/><polyline points="523.602 -743.529 521.968 -762.208 520.333 -780.886 526.746 -798.506 533.159 -816.125 539.572 -833.744"/><polyline points="539.572 -833.744"/><polyline points="539.572 -833.744 545.985 -851.363 559.243 -864.622"/><polyline points="545.985 -851.363"/><polyline points="520.333 -780.886 510.958 -797.124"/><polyline points="510.958 -797.124"/><polyline points="510.958 -797.124 501.583 -813.362 499.949 -832.041"/><polyline points="501.583 -813.362"/><polyline points="475.567 -565.218 481.98 -582.837 488.393 -600.456 494.806 -618.076 501.219 -635.695 507.631 -653.314 514.044 -670.933 520.457 -688.553 526.87 -706.172 540.128 -719.43 553.387 -732.688 566.645 -745.947 579.903 -759.205 593.161 -772.463 606.42 -785.721 619.678 -798.98 632.936 -812.238 646.194 -825.496 659.453 -838.754 672.711 -852.013 685.969 -865.271 692.382 -882.89 698.795 -900.509 697.161 -919.188"/><polyline points="697.161 -919.188"/><polyline points="697.161 -919.188 695.527 -937.867 701.939 -955.486"/><polyline points="695.527 -937.867"/><polyline points="698.795 -900.509 705.208 -918.129"/><polyline points="705.208 -918.129"/><polyline points="705.208 -918.129 711.621 -935.748 724.879 -949.006"/><polyline points="711.621 -935.748"/><polyline points="698.795 -900.509 705.208 -918.129 711.621 -935.748 724.879 -949.006 738.137 -962.264 751.395 -975.523"/><polyline points="751.395 -975.523"/><polyline points="751.395 -975.523 764.654 -988.781 782.273 -995.194"/><polyline points="764.654 -988.781"/><polyline points="711.621 -935.748 709.986 -954.426"/><polyline points="709.986 -954.426"/><polyline points="709.986 -954.426 708.352 -973.105 714.765 -990.724"/><polyline points="708.352 -973.105"/><polyline points="685.969 -865.271 699.227 -878.529 712.486 -891.787 718.899 -909.407"/><polyline points="718.899 -909.407"/><polyline points="718.899 -909.407 725.311 -927.026 738.57 -940.284"/><polyline points="725.311 -927.026"/><polyline points="712.486 -891.787 725.744 -905.046"/><polyline points="725.744 -905.046"/><polyline points="725.744 -905.046 739.002 -918.304 756.621 -924.717"/><polyline points="739.002 -918.304"/><polyline points="712.486 -891.787 725.744 -905.046 739.002 -918.304 756.621 -924.717 774.241 -931.13 791.86 -937.543"/><polyline points="791.86 -937.543"/><polyline points="791.86 -937.543 809.479 -943.955 828.158 -942.321"/><polyline points="809.479 -943.955"/><polyline points="739.002 -918.304 745.415 -935.923"/><polyline points="745.415 -935.923"/><polyline points="745.415 -935.923 751.828 -953.542 765.086 -966.801"/><polyline points="751.828 -953.542"/><polyline points="685.969 -865.271 699.227 -878.529 712.486 -891.787 725.744 -905.046 739.002 -918.304 756.621 -924.717 774.241 -931.13 791.86 -937.543 809.479 -943.955 827.098 -950.368 844.718 -956.781 857.976 -970.039"/><polyline points="857.976 -970.039"/><polyline points="857.976 -970.039 871.234 -983.298 888.853 -989.711"/><polyline points="871.234 -983.298"/><polyline points="844.718 -956.781 862.337 -963.194"/><polyline points="862.337 -963.194"/><polyline points="862.337 -963.194 879.956 -969.607 898.635 -967.973"/><polyline points="879.956 -969.607"/><polyline points="844.718 -956.781 862.337 -963.194 879.956 -969.607 898.635 -967.973 917.313 -966.339 935.992 -964.704"/><polyline points="935.992 -964.704"/><polyline points="935.992 -964.704 954.671 -963.07 970.909 -953.695"/><polyline points="954.671 -963.07"/><polyline points="879.956 -969.607 893.214 -982.865"/><polyline points="893.214 -982.865"/><polyline points="893.214 -982.865 906.473 -996.123 924.092 -1002.536"/><polyline points="906.473 -996.123"/><polyline points="739.002 -918.304 745.415 -935.923 751.828 -953.542 750.194 -972.221"/><polyline points="750.194 -972.221"/><polyline points="750.194 -972.221 748.56 -990.9 754.972 -1008.519"/><polyline points="748.56 -990.9"/><polyline points="751.828 -953.542 758.241 -971.162"/><polyline points="758.241 -971.162"/><polyline points="758.241 -971.162 764.654 -988.781 777.912 -1002.039"/><polyline points="764.654 -988.781"/><polyline points="751.828 -953.542 758.241 -971.162 764.654 -988.781 777.912 -1002.039 791.17 -1015.297 804.428 -1028.556"/><polyline points="804.428 -1028.556"/><polyline points="804.428 -1028.556 817.687 -1041.814 835.306 -1048.227"/><polyline points="817.687 -1041.814"/><polyline points="764.654 -988.781 763.019 -1007.459"/><polyline points="763.019 -1007.459"/><polyline points="763.019 -1007.459 761.385 -1026.138 767.798 -1043.757"/><polyline points="761.385 -1026.138"/><polyline points="526.87 -706.172 525.236 -724.851 523.602 -743.529 521.968 -762.208 520.333 -780.886 510.958 -797.124 501.583 -813.362 486.224 -824.117"/><polyline points="486.224 -824.117"/><polyline points="486.224 -824.117 470.865 -834.872 461.49 -851.11"/><polyline points="470.865 -834.872"/><polyline points="501.583 -813.362 492.208 -829.6"/><polyline points="492.208 -829.6"/><polyline points="492.208 -829.6 482.833 -845.838 481.199 -864.517"/><polyline points="482.833 -845.838"/><polyline points="501.583 -813.362 492.208 -829.6 482.833 -845.838 481.199 -864.517 479.565 -883.196 477.931 -901.874"/><polyline points="477.931 -901.874"/><polyline points="477.931 -901.874 476.297 -920.553 482.71 -938.172"/><polyline points="476.297 -920.553"/><polyline points="482.833 -845.838 467.474 -856.593"/><polyline points="467.474 -856.593"/><polyline points="467.474 -856.593 452.115 -867.347 442.74 -883.585"/><polyline points="452.115 -867.347"/><polyline points="520.333 -780.886 518.699 -799.565 517.065 -818.244 507.69 -834.482"/><polyline points="507.69 -834.482"/><polyline points="507.69 -834.482 498.315 -850.72 496.681 -869.398"/><polyline points="498.315 -850.72"/><polyline points="517.065 -818.244 515.431 -836.922"/><polyline points="515.431 -836.922"/><polyline points="515.431 -836.922 513.797 -855.601 520.21 -873.22"/><polyline points="513.797 -855.601"/><polyline points="517.065 -818.244 515.431 -836.922 513.797 -855.601 520.21 -873.22 526.623 -890.84 533.035 -908.459"/><polyline points="533.035 -908.459"/><polyline points="533.035 -908.459 539.448 -926.078 552.707 -939.336"/><polyline points="539.448 -926.078"/><polyline points="513.797 -855.601 504.422 -871.839"/><polyline points="504.422 -871.839"/><polyline points="504.422 -871.839 495.047 -888.077 493.413 -906.756"/><polyline points="495.047 -888.077"/><polyline points="520.333 -780.886 518.699 -799.565 517.065 -818.244 515.431 -836.922 513.797 -855.601 520.21 -873.22 526.623 -890.84 533.035 -908.459 539.448 -926.078 545.861 -943.697 552.274 -961.316 550.64 -979.995"/><polyline points="550.64 -979.995"/><polyline points="550.64 -979.995 549.006 -998.674 555.419 -1016.293"/><polyline points="549.006 -998.674"/><polyline points="552.274 -961.316 558.687 -978.936"/><polyline points="558.687 -978.936"/><polyline points="558.687 -978.936 565.1 -996.555 578.358 -1009.813"/><polyline points="565.1 -996.555"/><polyline points="552.274 -961.316 558.687 -978.936 565.1 -996.555 578.358 -1009.813 591.616 -1023.071 604.875 -1036.33"/><polyline points="604.875 -1036.33"/><polyline points="604.875 -1036.33 618.133 -1049.588 635.752 -1056.001"/><polyline points="618.133 -1049.588"/><polyline points="565.1 -996.555 563.466 -1015.234"/><polyline points="563.466 -1015.234"/><polyline points="563.466 -1015.234 561.831 -1033.912 568.244 -1051.531"/><polyline points="561.831 -1033.912"/><polyline points="513.797 -855.601 504.422 -871.839 495.047 -888.077 479.688 -898.832"/><polyline points="479.688 -898.832"/><polyline points="479.688 -898.832 464.329 -909.586 454.954 -925.824"/><polyline points="464.329 -909.586"/><polyline points="495.047 -888.077 485.672 -904.315"/><polyline points="485.672 -904.315"/><polyline points="485.672 -904.315 476.297 -920.553 474.663 -939.232"/><polyline points="476.297 -920.553"/><polyline points="495.047 -888.077 485.672 -904.315 476.297 -920.553 474.663 -939.232 473.028 -957.91 471.394 -976.589"/><polyline points="471.394 -976.589"/><polyline points="471.394 -976.589 469.76 -995.268 476.173 -1012.887"/><polyline points="469.76 -995.268"/><polyline points="476.297 -920.553 460.938 -931.308"/><polyline points="460.938 -931.308"/><polyline points="460.938 -931.308 445.579 -942.062 436.204 -958.3"/><polyline points="445.579 -942.062"/></svg>