<?xml version="1.0" encoding="UTF-8" standalone="no"?><!DOCTYPE svg PUBLIC "-//W3C//DTD SVG 1.1//EN" "http://www.w3.org/Graphics/SVG/1.1/DTD/svg11.dtd"><svg width="100%" height="100%" viewBox="0 0 880 385" version="1.1" xmlns="http://www.w3.org/2000/svg" xmlns:xlink="http://www.w3.org/1999/xlink" xml:space="preserve" xmlns:serif="http://www.serif.com/" style="fill-rule:evenodd;clip-rule:evenodd;stroke-linecap:round;stroke-linejoin:round;stroke-miterlimit:1.5;"><text x="387.41px" y="138.274px" style="font-family:'ConcourseT3-Bold', 'Concourse T3';font-weight:600;font-size:30px;">R<tspan x="404.21px 417.41px 432.11px " y="138.274px 138.274px 138.274px ">abb</tspan>itMQ</text><text x="7.94px" y="24.712px" style="font-family:'ConcourseT3-Bold', 'Concourse T3';font-weight:600;font-size:30px;">ide<tspan x="42.74px 56.24px " y="24.712px 24.712px ">a </tspan>pr<tspan x="86.84px 101.54px " y="24.712px 24.712px ">od</tspan>ucer</text><text x="699.661px" y="24.712px" style="font-family:'ConcourseT3-Bold', 'Concourse T3';font-weight:600;font-size:30px;">consumers</text><g><text x="2.665px" y="202.985px" style="font-family:'ConcourseT3', 'Concourse T3';font-weight:300;font-size:25px;">primar<tspan x="67.165px " y="202.985px ">y</tspan></text><text x="2.665px" y="99.072px" style="font-family:'ConcourseT3', 'Concourse T3';font-weight:300;font-size:25px;">b<tspan x="14.665px 25.915px " y="99.072px 99.072px ">ac</tspan>kup</text><text x="2.665px" y="307.249px" style="font-family:'ConcourseT3', 'Concourse T3';font-weight:300;font-size:25px;">b<tspan x="14.665px 25.915px " y="307.249px 307.249px ">ac</tspan>kup</text><circle cx="134.386" cy="92.972" r="30" style="fill:none;stroke:#000;stroke-width:1px;"/><circle cx="134.386" cy="301.149" r="30" style="fill:none;stroke:#000;stroke-width:1px;"/><path d="M134.386,163.141l11.021,22.331l24.644,3.581l-17.833,17.382l4.21,24.545l-22.042,-11.589l-22.042,11.589l4.21,-24.545l-17.833,-17.382l24.644,-3.581l11.021,-22.331Z" style="fill:none;stroke:#000;stroke-width:1px;"/></g><g><circle cx="260.879" cy="161.324" r="17.5" style="fill:none;stroke:#000;stroke-width:2px;"/><path d="M260.879,148.361l0,12.963l9.326,9.001" style="fill:none;stroke:#000;stroke-width:1.5px;"/></g><text x="436.772px" y="292.147px" style="font-family:'ConcourseT3', 'Concourse T3';font-weight:300;font-size:25px;">queued ide<tspan x="542.272px 553.522px " y="292.147px 292.147px ">as</tspan></text><g><path d="M874.21,289.773c0.75,-0.725 1.5,-2.525 1.5,-4.575c0,-3.025 -1.3,-4.825 -3.425,-4.825c-1.7,0 -2.825,0.9 -4,3.775c-1.025,2.525 -1.5,3.3 -2.4,3.3c-0.8,0 -1.525,-0.95 -1.525,-2.55c0,-1.35 0.425,-2.55 1.175,-3.575l-1.45,-0.625c-0.7,0.85 -1.375,2.275 -1.375,4.225c0,2.85 1.675,4.3 3.3,4.3c1.625,0 2.4,-0.975 3.65,-3.875c0.925,-2.125 1.4,-3.125 2.5,-3.125c0.975,0 1.9,0.8 1.9,2.95c0,1.625 -0.55,2.9 -1.35,3.9l1.5,0.7Z" style="fill-rule:nonzero;"/><path d="M864.01,259.748c-0.675,0.95 -1.3,2.45 -1.3,4.275c0,3.425 2.475,6.65 6.65,6.65c3.5,0 6.35,-2.7 6.35,-6.6c0,-1.75 -0.55,-3.325 -1.45,-4.6l-1.5,0.7c0.625,0.775 1.3,2.25 1.3,3.85c0,2.8 -1.95,4.8 -4.75,4.8c-3.475,0 -4.95,-2.475 -4.95,-4.825c0,-1.725 0.675,-3.025 1.15,-3.625l-1.5,-0.625Z" style="fill-rule:nonzero;"/><path d="M875.585,240.373l-0.25,-1.8l-12.5,5.9l0,0.3l12.5,5.85l0.25,-1.775l-3.025,-1.35l0,-5.75l3.025,-1.375Zm-9.275,4.3l0,-0.075l4.625,-2.1l0,4.275l-4.625,-2.1Z" style="fill-rule:nonzero;"/><path d="M862.96,226.973l0,1.75l12.5,0l0,-7.675l-1.6,0l0,5.925l-10.9,0Z" style="fill-rule:nonzero;"/><path d="M862.96,202.773l0,8.2l12.5,0l0,-8.45l-1.6,0l0,6.7l-3.975,0l0,-5.7l-1.6,0l0,5.7l-3.725,0l0,-6.45l-1.6,0Z" style="fill-rule:nonzero;"/><path d="M869.36,166.273c-4.1,0 -6.65,3.15 -6.65,6.55c0,3.5 2.625,6.6 6.65,6.6c3.575,0 6.35,-2.825 6.35,-6.6c0,-3.775 -2.95,-6.55 -6.35,-6.55Zm-0.05,1.85c2.5,0 4.75,1.825 4.75,4.65c0,3.075 -2.25,4.8 -4.75,4.8c-3.125,0 -4.95,-2.225 -4.95,-4.725c0,-2.625 2.025,-4.725 4.95,-4.725Z" style="fill-rule:nonzero;"/><path d="M862.96,145.223l0,1.75l6.85,0c3.075,0 4.25,1.55 4.25,3.625c0,2.15 -1.15,3.625 -4.25,3.625l-6.85,0l0,1.75l7.2,0c2.775,0 5.55,-1.15 5.55,-5.375c0,-3.775 -2.725,-5.375 -5.625,-5.375l-7.125,0Z" style="fill-rule:nonzero;"/><path d="M864.56,124.348l-1.6,0l0,10.5l1.6,0l0,-4.35l10.9,0l0,-1.75l-10.9,0l0,-4.4Z" style="fill-rule:nonzero;"/></g><text x="217.892px" y="128.449px" style="font-family:'ConcourseT3', 'Concourse T3';font-weight:300;font-size:25px;">e<tspan x="228.892px 239.642px 250.892px 259.392px 270.392px " y="128.449px 128.449px 128.449px 128.449px 128.449px ">very </tspan>5 s</text><path d="M318.2,197.76l-8.311,8.311l0.99,0.99l10,-10.001l-10,-10l-0.99,0.99l8.311,8.31l-117.321,0l0,1.4l117.321,0Z"/><g><path d="M581.01,197.76l0,-1.4l117.32,0l-8.31,-8.31l0.99,-0.99l10,10l-10,10.001l-0.99,-0.99l8.31,-8.311l-117.32,0Z"/><path d="M581.396,176.78l-0.32,-1.349l113.152,-36.456l-9.707,-5.494l0.705,-1.254l11.68,6.611l-7.117,12.667l-1.156,-0.654l5.914,-10.527l-113.151,36.456Z"/><path d="M581.396,217.341l-0.32,1.349l113.152,36.456l-9.707,5.494l0.705,1.254l11.68,-6.611l-7.117,-12.667l-1.156,0.654l5.914,10.527l-113.151,-36.456Z"/></g><rect x="731.386" y="62.972" width="60" height="60" style="fill:none;stroke:#000;stroke-width:1px;"/><rect x="731.386" y="167.06" width="60" height="60" style="fill:none;stroke:#000;stroke-width:1px;"/><rect x="731.386" y="271.149" width="60" height="60" style="fill:none;stroke:#000;stroke-width:1px;"/><g><rect x="349.885" y="167.06" width="200" height="60" style="fill:none;stroke:#000;stroke-width:1px;"/><rect x="449.885" y="167.06" width="100" height="60" style="fill:#d9d9d9;stroke:#000;stroke-width:1px;"/><path d="M399.885,167.06l0,60" style="fill:none;stroke:#000;stroke-width:1px;"/><path d="M499.372,167.06l0,60" style="fill:none;stroke:#000;stroke-width:1px;"/></g><path d="M846.46,356.048l16.25,0l-25,25l-25,-25l16.25,0l0,-293.076l17.5,0l0,293.076Z" style="fill:url(#_Linear1);stroke:#000;stroke-width:1.5px;"/><path d="M449.885,237.06l0,8.787l100,0l0,-8.787" style="fill:none;stroke:#000;stroke-width:1px;"/><path d="M499.885,245.847l0,19" style="fill:none;stroke:#000;stroke-width:1px;"/><defs><linearGradient id="_Linear1" x1="0" y1="0" x2="1" y2="0" gradientUnits="userSpaceOnUse" gradientTransform="matrix(1.94765e-14,-318.076,50,3.06162e-15,837.71,381.048)"><stop offset="0" style="stop-color:#fff;stop-opacity:1"/><stop offset="1" style="stop-color:#a6a6a6;stop-opacity:1"/></linearGradient></defs></svg>