<svg viewBox="0 0 535 280" xmlns="http://www.w3.org/2000/svg" fill-rule="evenodd" clip-rule="evenodd" stroke-miterlimit="1.414"><path d="M0 159h535M0 99h535m0-60H0m0 180h535M104 0v280M319 0v280M211 0v280M426 0v280" fill="none" stroke-width="2" stroke="#ccc"/><text x="149.4" y="78.51" font-family="Concourse T3" font-size="30" font-weight="300">2</text><text x="149.7" y="138.51" font-family="Concourse T3" font-size="30" font-weight="300">3</text><text x="137.25" y="198.51" font-family="Concourse T3" font-size="30" font-weight="300">2.5</text><text x="149.4" y="258.51" font-family="Concourse T3" font-size="30" font-weight="300">2</text><text x="256.15" y="78.51" font-family="Concourse T3" font-size="30" font-weight="300">0</text><text x="258.25" y="138.51" font-family="Concourse T3" font-size="30" font-weight="300">1</text><text x="244.3" y="198.51" font-family="Concourse T3" font-size="30" font-weight="300">0<tspan x="261.4 269.5" y="198.51 198.51">.5</tspan></text><text x="258.25" y="258.51" font-family="Concourse T3" font-size="30" font-weight="300">1</text><text x="365.75" y="78.51" font-family="Concourse T3" font-size="30" font-weight="300">1</text><text x="364.4" y="138.51" font-family="Concourse T3" font-size="30" font-weight="300">2</text><text x="353.6" y="198.51" font-family="Concourse T3" font-size="30" font-weight="300">1.5</text><text x="353.6" y="258.51" font-family="Concourse T3" font-size="30" font-weight="300">1.5</text><text x="471.9" y="78.51" font-family="Concourse T3" font-size="30" font-weight="300">2</text><text x="473.25" y="138.51" font-family="Concourse T3" font-size="30" font-weight="300">1</text><text x="461.1" y="198.51" font-family="Concourse T3" font-size="30" font-weight="300">1.5</text><text x="471.9" y="258.51" font-family="Concourse T3" font-size="30" font-weight="300">2</text><text x="33" y="75.425" font-family="Concourse T3" font-size="25" font-weight="600">nice</text><text x="26" y="135.425" font-family="Concourse T3" font-size="25" font-weight="600">me<tspan x="55.75 67" y="135.425 135.425">an</tspan></text><text x="9.5" y="195.425" font-family="Concourse T3" font-size="25" font-weight="600">alterna<tspan x="76.5 84.25" y="195.425 195.425">te</tspan></text><text x="9.25" y="255.363" font-family="Concourse T3" font-size="25" font-weight="600">tit f<tspan x="43.75 56" y="255.363 255.363">or</tspan> t<tspan x="77" y="255.363">a</tspan>t</text><text x="138" y="25.595" font-family="Concourse T3" font-size="25" font-weight="600">nice</text><text x="238.5" y="25.595" font-family="Concourse T3" font-size="25" font-weight="600">me<tspan x="268.25 279.5" y="25.595 25.595">an</tspan></text><text x="329.5" y="25.595" font-family="Concourse T3" font-size="25" font-weight="600">alterna<tspan x="396.5 404.25" y="25.595 25.595">te</tspan></text><text x="436.75" y="25.595" font-family="Concourse T3" font-size="25" font-weight="600">tit f<tspan x="471.25 483.5" y="25.595 25.595">or</tspan> t<tspan x="504.5" y="25.595">a</tspan>t</text></svg>
