<svg xmlns="http://www.w3.org/2000/svg" fill-rule="evenodd" stroke-miterlimit="1.414" viewBox="0 0 1001 307" clip-rule="evenodd" stroke-linejoin="round"><path d="M.5 306.5V.5h306v306h-6V6.5H6.5v300h-6zm347 0v-6h100v-94h-100V.5h106v100h94V.5h106v206h-100v94h100v6h-106v-106h100V6.5h-94v100h-106V6.5h-94v194h100v106h-106zm347 0v-48.857h48.857V300.5h79.714v-36.857h-42.85v-48.857h42.857V177.93H743.36v42.856H694.5V129.07h42.857V92.215H694.5V.5h48.857v42.857h36.857V.5h48.857v91.714h-42.85v36.857h122.57V92.22h-42.86V.5h48.856v42.857h36.857V.5h48.857v91.714h-42.857v36.857h42.857v91.72h-48.857v-42.86H871.93v36.858h42.856v48.857H871.93V300.5h79.713v-42.857h48.857V306.5h-6v-42.857h-36.857V306.5H865.93v-48.857h42.856v-36.857H865.93V171.93h91.713v42.856H994.5V135.07h-42.857V86.215H994.5V6.5h-36.857v42.857h-48.857V6.5H871.93v79.714h42.856v48.857H780.214V86.22h42.857V6.5h-36.85v42.857h-48.86V6.5H700.5v79.714h42.857v48.857H700.5v79.72h36.857v-42.86h91.714v48.858h-42.85v36.857h42.857V306.5H737.36v-42.857H700.5V306.5h-6z"/></svg>