<svg xmlns="http://www.w3.org/2000/svg" viewBox="0 0 650 800"><g stroke="#000" stroke-width=".01"><path d="M263.985 180.1V62.703m167.2 180.8l59-81.2m30.8 209.4l80.2-31.6m-70.2 168.798l73.8 9.81m-122.2 101.2l53.6 35.8m-133.6 34.8l30.4 47.4m-119.4-16.8l9.6 48.2m-93-49.993l-5.8 42.6m-63.8-67l-16 34.2m-37-72.6l-21.8 25.4m-15.2-70.202l-24 17m1-63.396l-23.8 10m12.4-54.8l-22.4 4.8m20-45.8l-20.4.6m24.2-37l-17.8-2.4m26.2-29.2l-15.4-4.4m26.8-22.6l-13.2-5.6m26-17l-11-6.4m24.8-12.6l-9.2-6.6m23.2-9l-7.6-6.8m21.2-6l-6.2-6.6m19.4-3.803l-5.2-6.4m17.6-2.196l-4.2-6m16-.8l-3.6-5.6m14.2 0l-2.8-5.2m12.8.8l-2.2-4.8m11.4 1.198l-2-4.4m10.2 1.603l-1.4-4m9 1.6l-1.2-3.6m8 1.8l-1-3.2m7.2 1.8l-.8-3m6.4 2l-.6-2.8m5.6 1.8l-.4-2.4" stroke-width="2"/><path d="M222.785 264.102l-.4-2.2 41.6.4z" stroke="none"/><path stroke-width="1.8" d="M263.985 297.502v-57.4"/><path stroke-width="1.6" d="M317.785 307.302l15.6-47.8m28.2 70.2l25.6-37.6"/><path d="M394.185 359.302l36-31.4m-14.2 64.4l37.4-19.8m-24.8 52.8l36-10.4m-30.6 41.8l33-3.4m-33.2 31.8l29.4 2m-33.8 23.2l25.6 5.6m-32.4 16.198l21.8 8m-30.6 10.6l18.4 9.4m-28.2 6.202l15.6 10.2m-25.6 2.8l12.8 10.4m-23 .398l10.6 10.4m-20.6-1.4l8.8 10m-18.2-2.798l7 9.6m-16-3.6l5.8 9m-14.2-4l4.8 8.2m-12.6-4.402l4 7.6m-11-4.398l3.2 7m-9.8-4.4l2.6 6.4m-8.6-4.202l2.2 5.6m-7.6-4l1.8 5.2m-6.6-3.8l1.2 4.6m-5.8-3.6l1.2 4.4m-5.2-3.598l1 4m-4.6-3.202l.6 3.4m-4-2.798l.6 3" stroke-width="2"/><path d="M290.985 635.7l.4 2.8-27.4-1.4z" stroke="none"/><path d="M263.985 615.302v43.6m-22.2-45.002l-6.2 38.2m-13.4-42.4l-10.2 33m-7-39.198l-12.6 28m-1.8-35.402l-14.2 23.4m1.8-31.598l-14.6 19.6m4.2-27.802l-14.6 16.2m6-24.598l-14.2 13.4m7.2-21.4l-13.6 10.8m7.6-18.6l-12.8 9m8-16.2l-12 7.2m8-14l-11 5.8m7.8-12.202l-10.2 4.8m7.6-10.598l-9.2 4m7-9.202l-8.4 3.2m6.6-8.2l-7.6 2.6m6.2-7l-7 2.2m5.8-6.198l-6.2 1.8m5.4-5.4l-5.8 1.4m5-4.6l-5.2 1m4.6-4l-4.8.8m4.2-3.6l-4.2.8m3.8-3.2l-3.8.6" stroke-width="2"/><path d="M121.385 493.502l-3.4.4 2-20.4z" stroke="none"/><path d="M135.385 473.502h-30.8m30.4-10.2l-27.4-2.2m27.8-7l-24.2-3.6m25.2-4.6l-21.4-4.6m22.8-2.8l-19-5.2m20.4-1.4l-16.6-5.6m18.4-.2l-14.8-5.8m16.6.6l-13-5.8m14.8 1l-11.6-5.4m13.4 1.4l-10.2-5.4m11.8 1.6l-9-5m10.6 1.798l-7.8-4.8m9.4 2.002l-7-4.4m8.4 1.8l-6.2-4.2m7.6 1.8l-5.4-3.8m6.8 1.8l-5-3.4m6.2 1.6l-4.4-3.2m5.4 1.6l-3.8-3m4.8 1.6l-3.4-2.8m4.4 1.4l-3.2-2.4" stroke-width="2"/><path d="M160.385 387.902l-2.8-2.2 10.8-7.8z" stroke="none"/><path d="M176.585 386.1l-16.2-16.2m19.2 12.402l-14-15.2m16.8 11.6l-12-14m14.8 11l-10.6-13m13 10.398l-9-11.8m11.4 9.402l-8-10.8m10.2 8.8l-7-10m9 8.2l-6-9m7.8 7.4l-5.2-8.2m6.8 6.8l-4.6-7.4m6.2 6.2l-4-6.8m5.4 5.8l-3.6-6.2m4.8 5.2l-3-5.6m4.2 4.6l-2.8-5m3.8 4.4l-2.4-4.6m3.4 3.8l-2.2-4m3 3.4l-1.8-3.6" stroke-width="2"/><path d="M206.585 357.302l-1.6-3.4 9-1.2z" stroke="none"/><path d="M217.385 360.902l-6.8-16.6m8.8 15l-6-15m7.8 13.6l-5.2-13.4m6.8 12.2l-4.4-12.2m5.8 11.2l-3.6-11m5 10l-3.2-9.8m4.6 9l-2.8-9m3.8 8.4l-2.4-8.2m3.6 7.4l-2.2-7.2m3 6.8l-1.8-6.6m2.8 6l-1.8-6m2.4 5.6l-1.4-5.4m2.2 5l-1.2-4.8m1.8 4.4l-1-4.4m1.6 4l-1-3.8" stroke-width="2"/><path d="M234.185 349.702l-1-3.6 5.6 1z" stroke="none"/><path d="M240.185 354.102l-2.6-13.8m3.8 13l-2.4-12.4m3.2 11.6l-2-11.2m3 10.6l-1.8-10m2.6 9.4l-1.6-9m2.2 8.4l-1.2-8m2 7.6l-1.2-7.4m1.8 7l-1-6.6m1.4 6.2l-.8-6m1.4 5.8l-.8-5.4m1.2 5l-.6-4.8m1 4.6l-.6-4.4m1 4.2l-.6-4" stroke-width="2"/><path d="M248.385 348.302l-.4-3.6 3.4 1.6z" stroke="none"/><path d="M251.985 351.902l-1-11m1.6 10.4l-1-10m1.4 9.6l-.8-9m1.4 8.4l-.8-8m1.2 7.6l-.6-7.2m1 7l-.6-6.6m.8 6.2l-.4-6m.8 5.798l-.4-5.4m.6 5.002l-.4-4.8m.6 4.6l-.2-4.2" stroke-width="2"/><path d="M255.585 348.302l-.2-3.8 2.4 2zm2.4 2.6l-.4-9 6.4 4.8z" stroke="none"/><path d="M263.985 367.9v-42.197m16.6 42.8l6-37.2m8.8 40l9.8-32m3.2 36.2l12.2-27m-1 32.398l13.6-22.79m-4.2 28.6l14.2-19m-6.2 25.2l14.2-15.792m-7.4 21.997l13.8-13m-8.2 19l13.2-10.6m-8.6 16.4l12.4-8.797m-8.6 14.2l11.6-7m-8.4 12.2l10.6-5.8m-8 10.4l9.8-4.6m-7.8 9.2l9-3.8m-7.2 7.8l8.2-3.2m-6.8 6.8l7.6-2.4m-6.4 5.8l6.8-2m-5.8 5.196l6.2-1.797m-5.4 4.6l5.6-1.4m-5 3.8l5-1m-4.4 3.4l4.4-1m-4 3l4-.6m-3.6 2.4l3.6-.4" stroke-width="2"/><path d="M373.985 458.102l3.4-.4-1.8 15.8z" stroke="none"/><path d="M360.585 473.502h29.8m-29.2 7.6l26.6 2.2m-26.6 4.8l23.6 3.6m-24 2.8l20.8 4.4m-21.6 1.2l18.4 5m-19.4 0l16.2 5.4m-17.4-.8l14.4 5.6m-15.6-1.602l12.6 5.6m-13.8-1.998l11.2 5.4m-12.4-2.2l9.8 5.2m-11-2.2l8.6 4.8m-9.8-2.4l7.6 4.6m-8.8-2.2l6.8 4.2m-7.8-2.2l6 4m-7-2.202l5.4 3.6m-6.2-2l4.6 3.4m-5.6-2l4.2 3.2m-5-1.798l3.8 2.8m-4.4-1.8l3.2 2.8m-4-1.602l3 2.4" stroke-width="2"/><path d="M343.985 539.502l2.6 2.2-8.6 5.8z" stroke="none"/><path d="M330.185 539.502l15.6 15.8m-17.8-12.602l13.6 14.8m-15.6-11.998l11.8 13.6m-13.8-11.2l10.2 12.6m-12-10.402l8.8 11.6m-10.4-9.6l7.6 10.4m-9.2-8.8l6.6 9.6m-8-8.2l5.8 8.8m-7.2-7.398l5 8m-6.2-6.802l4.4 7.2m-5.6-6.2l4 6.6m-5-5.798l3.4 6m-4.4-5.2l3 5.4m-3.8-4.602l2.6 4.8m-3.4-4.2l2.4 4.4m-3-3.798l2 4m-2.8-3.4l1.8 3.6" stroke-width="2"/><path d="M308.185 563.302l1.6 3.2-7 .6z" stroke="none"/><path d="M299.385 559.1l6.6 16m-8-14.598l5.8 14.4m-7-13.202l4.8 13m-6-12l4 11.8m-5.2-10.8l3.6 10.6m-4.6-9.798l3 9.6m-4-8.8l2.8 8.6m-3.6-8l2.4 7.8m-3.2-7.2l2 7m-2.6-6.6l1.6 6.4m-2.4-5.8l1.6 5.6m-2.2-5.2l1.4 5.2m-1.8-4.8l1.2 4.6m-1.8-4.4l1.2 4.2m-1.6-3.8l1 3.8" stroke-width="2"/><path d="M286.985 569.1l.8 3.4-4.4-1.2z" stroke="none"/><path d="M282.185 564.7l2.6 13.4m-3.4-12.598l2.2 12m-3-11.402l2 10.8m-2.6-10.2l1.6 9.8m-2.2-9.198l1.4 8.8m-2-8.402l1.2 8m-1.6-7.6l1 7.2m-1.6-6.798l1 6.4m-1.4-6l1 5.8m-1.2-5.4l.6 5.2m-1-5l.6 4.8m-1-4.602l.6 4.2" stroke-width="2"/><path d="M276.185 569.902l.4 3.8-2.8-1.8z" stroke="none"/><path d="M273.185 566.7l1 10.6m-1.4-10.2l.8 9.8m-1.2-9.2l.8 8.6m-1.2-8.2l.8 7.8m-1-7.398l.6 7m-1-6.6l.6 6.2m-.8-6.002l.4 5.8m-.6-5.398l.4 5m-.6-4.802l.2 4.6m-.4-4.398l.2 4.2" stroke-width="2"/><path d="M270.385 570.1l.2 3.8-1.8-2zm-1.8-2.4l.4 8.6-5-4.598z" stroke="none"/><path d="M263.985 558.502v26.2m-6.8-25.602l-1.8 23.4m-4.2-23.4l-3.2 20.6m-2.4-21l-4 18.2m-1-18.998l-4.4 16.2m0-17.002l-4.8 14.2m.8-15.2l-5 12.6m1.4-13.6l-4.8 11m1.6-12.198l-4.6 9.8m1.8-10.8l-4.6 8.6m2-9.802l-4.2 7.8m2-8.8l-4 6.8m2-7.8l-3.8 6m2-6.798l-3.4 5.2m1.8-6.2l-3.2 4.8m1.8-5.602l-3 4.2m1.8-4.798l-2.8 3.6m1.6-4.402l-2.6 3.2" stroke-width="2"/><path d="M207.585 545.1l-2.4 2.8-6.4-9.2z" stroke="none"/><path d="M205.785 531.7l-13.8 13.8m11-15.598l-12.8 11.8m10.4-13.602l-12 10.2m9.8-11.998l-11 9m9.2-10.602l-10.2 7.8m8.6-9.198l-9.4 6.8m7.8-8.2l-8.4 5.8m7.2-7.002l-7.8 5m6.6-6.198l-7 4.4m6-5.6l-6.4 4m5.4-5l-5.8 3.4m5-4.2l-5.2 3m4.6-3.802l-4.8 2.6m4.2-3.398l-4.4 2.2m3.8-3.002l-4 2.2m3.4-2.798l-3.4 1.8" stroke-width="2"/><path d="M185.385 512.902l-3.2 1.6-.6-6.8z" stroke="none"/><path d="M188.585 504.702l-14 5.8m12.8-7l-12.8 5m11.8-6.2l-11.6 4.2m10.6-5.2l-10.4 3.6m9.6-4.6l-9.4 3.2m8.8-4.2l-8.6 2.8m7.8-3.6l-7.6 2.4m7-3.2l-6.8 2.2m6.4-2.8l-6.2 1.8m5.8-2.4l-5.6 1.6m5.2-2.2l-5.2 1.4m4.8-1.8l-4.6 1.2m4.2-1.8l-4 1.2" stroke-width="2"/><path d="M180.385 494.502l-3.8 1 1.2-4.8z" stroke="none"/><path d="M183.785 489.502l-11.8 2.2m11-3l-10.4 2m9.8-2.6l-9.4 1.8m9-2.4l-8.6 1.6m8-2l-7.6 1.2m7.2-1.8l-7 1.2m6.6-1.6l-6.2 1m6-1.4l-5.8.8m5.4-1.2l-5 .8m4.8-1l-4.6.6m4.2-1l-4 .6" stroke-width="2"/><path d="M179.185 484.502l-3.6.4 1.8-2.8z" stroke="none"/><path d="M181.985 481.502l-9.4 1m9-1.2l-8.6.8m8.2-1.2l-7.8.6m7.4-1l-7 .6m6.6-.8l-6.2.6m6-.8l-5.6.4m5.2-.6l-5 .4m4.8-.6l-4.6.2m4.4-.4l-4.2.2" stroke-width="2"/><path d="M179.185 479.302l-3.8.2 2-1.8z" stroke="none"/><path d="M181.185 477.502l-7.6.4 4-4.4z" stroke="none"/><path d="M186.785 473.502h-18.4m17.8-3l-16.6-.8m16.2-2l-14.8-1.2m14.4-1.4l-13.2-1.4m13-.8l-11.8-1.8m11.8-.4l-10.6-1.8m10.4 0l-9.4-1.8m9.4 0l-8.4-1.8m8.4.2l-7.6-1.6m7.8.2l-6.8-1.6m6.8.4l-6.2-1.6m6.2.4l-5.4-1.4m5.6.4l-5-1.4m5 .6l-4.4-1.4m4.6.4l-4-1.2" stroke-width="2"/><path d="M185.585 448.302l-3.6-1.2 4.6-5.6z" stroke="none"/><path d="M193.185 444.302l-13.2-5.6m13.4 3.8l-11.8-5m11.8 3.6l-10.4-4.8m10.4 3.6l-9.2-4.6m9.4 3.4l-8.4-4.2m8.6 3l-7.6-3.8m7.6 2.8l-6.6-3.4m6.8 2.6l-6-3.2m6 2.4l-5.2-3m5.4 2.2l-4.8-2.6m4.8 2l-4.2-2.4m4.4 1.8l-3.8-2.2m3.8 1.8l-3.4-2" stroke-width="2"/><path d="M194.585 431.9l-3.2-1.797 4.2-2.4z" stroke="none"/><path d="M200.185 430.9l-9.4-6.197m9.4 5.198l-8.4-5.59m8.4 4.8l-7.4-5.2m7.4 4.6l-6.6-4.8m6.6 4l-6-4.2m6.2 3.6l-5.4-3.8m5.4 3.207l-4.8-3.4m4.8 3l-4.4-3.2m4.4 2.8l-3.8-3m3.8 2.6l-3.4-2.6" stroke-width="2"/><path d="M200.385 424.9l-3-2.397 3.4-.8z" stroke="none"/><path d="M204.185 424.502l-6.8-5.6m6.8 5l-6.2-5m6.2 4.6l-5.6-4.6m5.4 4l-4.8-4.2m4.8 3.8l-4.4-3.8m4.4 3.6l-4-3.6m4 3.2l-3.6-3.2m3.6 2.8l-3.2-2.8" stroke-width="2"/><path d="M203.985 421.302l-3-2.6 2.8.2zm2.4 0l-5.4-4.8 5.6-.4z" stroke="none"/><path d="M211.585 421.1l-9.8-9.8m10.4 8.402l-8.6-9m9.2 7.6l-7.6-8.2m8.2 7.2l-6.8-7.6m7.4 6.4l-6-6.8m6.4 6l-5.2-6.2m5.8 5.4l-4.8-5.6m5.2 4.8l-4.2-5m4.6 4.4l-3.8-4.6m4 4l-3.2-4.2m3.6 3.6l-2.8-3.8m3.2 3.4l-2.6-3.4" stroke-width="2"/><path d="M216.985 410.9l-2.4-2.997 5-.8z" stroke="none"/><path d="M222.785 411.702l-6.2-9m6.4 8.2l-5.4-8.2m5.8 7.4l-4.8-7.4m5 6.8l-4.2-6.6m4.6 6l-3.8-6m4 5.6l-3.4-5.6m3.6 5l-3-5m3.2 4.6l-2.6-4.4m2.8 3.998l-2.4-4m2.6 3.602l-2.2-3.6" stroke-width="2"/><path d="M225.185 406.502l-2-3.4 3.4.6z" stroke="none"/><path d="M228.785 407.502l-4.2-7.6m4.2 7l-3.6-6.8m3.8 6.4l-3.2-6.2m3.4 5.798l-3-5.6m3 5.202l-2.6-5m2.8 4.6l-2.4-4.4m2.4 4.198l-2-4.2m2 3.802l-1.8-3.6" stroke-width="2"/><path d="M229.585 404.502l-1.6-3.4 2.2 1.2zm2.2.8l-3-6.2 5.2 1.8z" stroke="none"/><path d="M235.985 405.9l-4-9.797m4.4 9.2l-3.6-9m4.2 8.2l-3.2-8m3.6 7.4l-2.8-7.2m3.2 6.8l-2.6-6.6m2.8 6.2l-2.2-6m2.6 5.6l-2-5.4m2.2 5l-1.6-4.8m2 4.4l-1.6-4.4m1.8 4.2l-1.4-4" stroke-width="2"/><path d="M239.385 401.302l-1.2-3.4 3.2 1z" stroke="none"/><path d="M242.585 403.102l-2.4-8.2m2.6 7.6l-2.2-7.2m2.4 6.8l-1.8-6.6m2 6.2l-1.6-6m1.8 5.6l-1.4-5.2m1.6 5l-1.4-4.8m1.6 4.4l-1.2-4.2m1.2 4l-1-3.8" stroke-width="2"/><path d="M243.985 400.302l-1-3.6 2.2 1.6zm2 1.2l-1.6-6.6 4.6 2.8z" stroke="none"/><path d="M249.785 401.902l-1.6-8.4m1.8 8l-1.4-7.6m1.6 7l-1.2-6.6m1.6 6.4l-1.2-6.2m1.4 5.8l-1-5.4m1.2 5.198l-1-5m1 4.602l-.6-4.4m.8 4.2l-.6-4" stroke-width="2"/><path d="M251.385 399.302l-.6-3.6 2 1.6z" stroke="none"/><path d="M253.185 400.702l-1-6.6 4.2 3.2zm3.6-.2l-.6-6.6 4 3.4zm3.6-.6l-.2-5.4 3.8 3z" stroke="none"/><path d="M263.985 410.102v-25.4m5 24.8l1.8-22.6m2.8 22.4l3-20.2m1.2 20.2l4-17.8m-.2 18.2l4.4-15.8m-.8 16.2l4.6-13.8m-1.6 14.4l4.8-12.2m-2 13l4.6-10.8m-2.2 11.4l4.6-9.4m-2.4 10.2l4.4-8.4m-2.4 9l4.2-7.4m-2.4 8.2l4-6.6m-2.4 7.2l3.6-5.6m-2.2 6.4l3.4-5.2m-2.2 5.8l3.2-4.6m-2 5.2l2.8-4m-1.8 4.4l2.6-3.4m-1.8 4l2.6-3.2" stroke-width="2"/><path d="M307.385 418.302l2.4-2.8 4.6 7.6z" stroke="none"/><path d="M307.785 429.702l13.4-13.4m-11.2 14.8l12.4-11.6m-10.4 12.8l11.6-10m-10 11.2l10.8-8.8m-9.2 9.8l9.8-7.4m-8.4 8.4l9-6.4m-7.8 7.4l8.2-5.6m-7 6.6l7.4-5m-6.6 5.8l6.8-4.2m-5.8 5l6.2-3.8m-5.6 4.6l5.6-3.4m-4.8 4l5-2.8m-4.4 3.4l4.6-2.6m-4.2 3.2l4.2-2.2m-3.6 2.6l3.8-1.8" stroke-width="2"/><path d="M324.185 442.702l3.4-1.8.2 6.2z" stroke="none"/><path d="M320.985 449.9l13.6-5.597m-12.6 6.4l12.4-4.8m-11.4 5.8l11.2-4.2m-10.4 4.8l10.2-3.4m-9.4 4.2l9-3m-8.4 3.6l8.2-2.6m-7.6 3.2l7.4-2.2m-6.8 2.798l6.6-1.99m-6.2 2.4l6-1.6m-5.6 2.2l5.4-1.592m-5 2l4.8-1.4m-4.6 1.8l4.4-1.2m-4 1.398l4-.996" stroke-width="2"/><path d="M328.385 457.302l3.6-.8-1.4 3.8z" stroke="none"/><path d="M324.985 461.302l11.4-2.2m-10.8 2.8l10.2-2m-9.6 2.4l9.2-1.6m-8.6 2l8.2-1.4m-7.8 1.8l7.4-1.2m-7 1.6l6.8-1m-6.4 1.4l6-1m-5.8 1.2l5.6-.8m-5.2 1l4.8-.6m-4.6 1l4.4-.6m-4.2.8l4-.6" stroke-width="2"/><path d="M329.185 465.102l3.6-.6-1.6 2.4z" stroke="none"/><path d="M326.585 467.302l9.2-.8m-8.8 1.2l8.2-.8m-7.8 1l7.4-.8m-7 1l6.6-.6m-6.2.8l6-.6m-5.8.8l5.4-.4m-5 .6l4.8-.4m-4.6.4l4.4-.2m-4.2.4l4-.2" stroke-width="2"/><path d="M329.385 469.102l3.6-.4-1.8 1.6z" stroke="none"/><path d="M327.385 470.302l7.4-.2-3.8 3.4z" stroke="none"/><path d="M321.985 473.502h17.8m-17.2 2.4l16 .6m-15.4 1.4l14.2 1m-13.8 1l12.8 1.4m-12.6.4l11.6 1.4m-11.4.2l10.4 1.6m-10.2-.2l9.2 1.8m-9-.4l8.2 1.6m-8.2-.4l7.4 1.6m-7.4-.6l6.6 1.6m-6.6-.6l6 1.6m-6-.6l5.4 1.4m-5.4-.6l4.8 1.2m-4.8-.6l4.2 1.4m-4.2-.8l3.8 1.2" stroke-width="2"/><path d="M324.385 492.9l3.4 1.203-4 4.2z" stroke="none"/><path d="M317.585 495.702l12.6 5.2m-12.6-4l11.4 5m-11.4-3.8l10.2 4.6m-10-3.6l9 4.4m-9-3.4l8 4m-8-3.2l7.2 3.8m-7.2-3l6.4 3.4m-6.6-2.6l5.8 3.2m-5.8-2.6l5.2 2.8m-5.2-2.2l4.6 2.6m-4.6-2l4.2 2.2m-4.2-1.8l3.6 2.2" stroke-width="2"/><path d="M317.585 505.102l3.2 2-3.8 1.8z" stroke="none"/><path d="M312.585 505.9l9 6.003m-9-5.2l8 5.4m-8-4.8l7.4 5m-7.2-4.402l6.4 4.61m-6.4-4l5.8 4.2m-5.8-3.6l5.2 3.8m-5.2-3.4l4.6 3.4m-4.6-3l4.2 3.208m-4.2-2.8l3.8 2.8m-3.8-2.4l3.4 2.4" stroke-width="2"/><path d="M312.985 510.9l3 2.403-3 .4z" stroke="none"/><path d="M309.585 510.9l6.6 5.403m-6.4-5l5.8 5m-5.8-4.402l5.4 4.41m-5.2-4l4.8 4m-4.8-3.8l4.4 3.8m-4.4-3.4l4 3.4m-3.8-3.2l3.4 3m-3.4-2.593l3.2 2.6" stroke-width="2"/><path d="M310.185 513.7l2.8 2.4-2.2-.2zm-2-.198l5 4.6-4.8-.2z" stroke="none"/><path d="M303.585 513.1l9.6 9.6m-10-8.398l8.4 8.8m-8.6-7.6l7.2 7.8m-7.6-7l6.4 7.4m-6.8-6.4l5.8 6.6m-6.2-5.802l5.2 5.8m-5.4-5.2l4.4 5.4m-4.8-4.798l4.2 5m-4.4-4.4l3.6 4.4m-3.8-4l3.2 4.2m-3.4-3.6l2.8 3.6m-3-3.2l2.4 3.2" stroke-width="2"/><path d="M300.185 521.7l2.2 3-4 .2z" stroke="none"/><path d="M295.385 520.502l5.8 8.8m-6-8l5.2 7.8m-5.4-7.2l4.6 7.2m-4.8-6.6l4.2 6.4m-4.4-6l3.8 5.8m-3.8-5.4l3.2 5.4m-3.4-4.8l2.8 4.6m-3-4.402l2.6 4.4m-2.6-3.998l2.2 4m-2.4-3.6l2 3.4" stroke-width="2"/><path d="M293.785 525.1l2 3.2-3-.798z" stroke="none"/><path d="M290.985 523.902l3.8 7.4m-4-7l3.6 6.8m-3.6-6.402l3.2 6m-3.2-5.6l2.8 5.4m-3-4.998l2.6 5m-2.6-4.6l2.2 4.4m-2.2-4.202l2 4m-2-3.798l1.8 3.6" stroke-width="2"/><path d="M290.585 526.7l1.6 3.2-2-1.198zm-2-1l3 6-4.4-2z" stroke="none"/><path d="M285.185 524.902l4 9.6m-4.2-9l3.4 8.6m-3.8-8.002l3.2 7.8m-3.4-7.2l2.6 7m-2.8-6.6l2.2 6.4m-2.6-5.998l2.2 5.8m-2.4-5.4l2 5.2m-2.2-4.8l1.8 4.6m-2-4.4l1.6 4.2m-1.6-3.8l1.2 3.6" stroke-width="2"/><path d="M282.985 529.1l1.2 3.4-2.6-1.2z" stroke="none"/><path d="M280.385 527.302l2.4 7.8m-2.6-7.402l2 7.2m-2.2-6.8l1.8 6.4m-2-5.998l1.8 5.8m-1.8-5.4l1.4 5.2m-1.6-5.002l1.4 4.8m-1.4-4.398l1.2 4.2" stroke-width="2"/><path d="M279.385 529.7l1.2 3.8-2-1.8zm-1.6-1l1.6 6.2-3.8-2.798z" stroke="none"/><path d="M274.785 528.1l1.6 8.2m-1.8-7.6l1.4 7.2m-1.4-6.8l1.2 6.4m-1.4-6.198l1 6m-1.2-5.602l1 5.2m-1.2-4.998l1 4.8m-1-4.4l.6 4.2" stroke-width="2"/><path d="M273.785 530.5l.6 3.8-1.6-1.8zm-1.6-1.198l1 6.4-3.4-3.2zm-2.6 0l.6 6.6-3.2-3.4zm-2.8.6l.2 5.2-3-2.6z" stroke="none"/><path d="M263.985 524.502v15.8m-2-15.202l-.6 14.2m-1.2-13.798l-1 12.6m-.8-12.2l-1.2 11.4m-.4-11.202l-1.4 10.2m0-9.998l-1.4 9.2m.2-9l-1.6 8m.4-7.802l-1.6 7.2m.6-7.2l-1.6 6.4m.6-6.4l-1.4 5.8m.4-5.8l-1.2 5.2m.6-5.2l-1.4 4.6m.6-4.6l-1.2 4.2m.6-4.2l-1.2 3.8" stroke-width="2"/><path d="M247.385 526.7l-1 3.4-4.2-3.8z" stroke="none"/><path d="M244.385 520.502l-4.6 11.4m3.6-11.202l-4.4 10m3.4-10l-4.2 9m3.2-9l-3.8 8m3-8l-3.6 7.2m2.8-7.2l-3.2 6.4m2.6-6.4l-3 5.8m2.2-5.8l-2.6 5.2m2.2-5.2l-2.6 4.6m2-4.6l-2.2 4m1.8-4l-2.2 3.6" stroke-width="2"/><path d="M236.585 520.7l-2 3.2-1.8-3.798z" stroke="none"/><path d="M235.385 516.302l-5.2 7.8m4.6-7.8l-4.8 7m4.2-7l-4.4 6.4m3.8-6.4l-4 5.8m3.6-5.6l-3.6 5m3.2-5l-3.4 4.6m3-4.6l-3 4m2.6-4l-2.8 3.6m2.4-3.6l-2.4 3.4" stroke-width="2"/><path d="M231.385 516.502l-2.2 3-.6-3z" stroke="none"/><path d="M230.985 513.7l-4.8 5.8m4.4-5.8l-4.4 5.4m4-5.198l-3.8 4.6m3.6-4.6l-3.6 4.2m3.2-4.2l-3.2 3.8m3-3.602l-3 3.4m2.6-3.4l-2.6 3" stroke-width="2"/><path d="M228.785 514.1l-2.4 2.8.4-2.2zm0-1.798l-4 4.6.2-4.4z" stroke="none"/><path d="M228.985 508.502l-8.2 8.2m7.2-8.602l-7.6 7.4m6.8-7.798l-7 6.6m6-6.8l-6.2 5.6m5.6-6l-5.8 5m5-5.2l-5.2 4.4m4.6-4.8l-4.8 4m4.2-4.2l-4.2 3.6m3.8-3.8l-4 3.2m3.6-3.4l-3.6 2.8m3.2-3l-3.2 2.4" stroke-width="2"/><path d="M221.985 505.502l-3 2.2-.2-4z" stroke="none"/><path d="M222.585 501.102l-7.6 5.2m7-5.4l-7 4.6m6.4-4.8l-6.2 4.2m5.8-4.2l-5.8 3.6m5.2-3.8l-5 3.2m4.6-3.4l-4.6 3m4.4-3l-4.2 2.4m3.8-2.6l-3.8 2.2m3.4-2.2l-3.4 2" stroke-width="2"/><path d="M218.785 499.9l-3 1.803.6-2.8z" stroke="none"/><path d="M219.585 497.102l-6.4 3.6m6-3.6l-5.8 3.2m5.4-3.2l-5.2 2.8m5-2.8l-4.8 2.4m4.4-2.6l-4.2 2.2m4-2.2l-4 2" stroke-width="2"/><path d="M217.585 496.9l-3.4 1.803 1.2-2.2zm.4-1.598l-5.2 2.4 1.8-3.8z" stroke="none"/><path d="M218.785 492.302l-8.4 3.4m7.8-3.8l-7.6 3.2m7-3.4l-6.8 2.6m6.4-2.8l-6.2 2.4m5.8-2.6l-5.6 2m5.2-2.4l-5 2m4.8-2.2l-4.6 1.8m4.2-1.8l-4 1.4" stroke-width="2"/><path d="M215.585 490.502l-3.8 1.2 1.4-2.8z" stroke="none"/><path d="M216.585 487.9l-6.8 2.003m6.4-2.2l-6.2 1.8m6-1.8l-5.8 1.6m5.4-1.8l-5 1.4m4.6-1.6l-4.4 1.4m4.2-1.4l-4 1.2" stroke-width="2"/><path d="M214.785 487.102l-3.8 1.2 1.8-2zm.8-1.4l-5.8 1.4 2.6-3.4z" stroke="none"/><path d="M215.785 483.102l-7 1.4m6.6-1.6l-6.2 1.2m6-1.4l-5.8 1.2m5.4-1.2l-5.2.8m5-1l-4.6.8m4.4-1l-4.2.8" stroke-width="2"/><path d="M213.985 482.302l-3.6.6 1.8-1.8z" stroke="none"/><path d="M214.985 480.702l-5.8 1 2.8-3zm-.2-2.4l-5.6.6 2.8-2.8zm-.6-2.4l-4.4.2 2.4-2.6z" stroke="none"/><path d="M217.585 473.502h-11m10.6-1l-10-.2m9.6-.6l-9-.2m8.6-.6l-8-.4m7.8-.2l-7.2-.6m6.8 0l-6.4-.6m6.2 0l-5.8-.6m5.6 0l-5.2-.6m5 .2l-4.6-.6m4.6 0l-4.2-.4" stroke-width="2"/><path d="M214.985 467.302l-3.8-.6 2.8-3.2z" stroke="none"/><path d="M218.185 464.302l-8.6-1.6m8.4 1.2l-7.8-1.6m7.4 1l-6.8-1.4m6.6 1l-6.2-1.4m6 1l-5.6-1.2m5.4.8l-5-1.2m4.8 1l-4.4-1.2m4.4.8l-4-1" stroke-width="2"/><path d="M216.585 461.302l-3.6-1 2.6-1.4z" stroke="none"/><path d="M218.785 459.9l-6.6-1.997m6.4 1.6l-6-1.8m5.8 1.6l-5.4-1.8m5.2 1.398l-4.8-1.39m4.6 1.2l-4.2-1.4m4 1.2l-3.8-1.2" stroke-width="2"/><path d="M217.785 458.302l-3.6-1.2 2.4-.6zm1.4-.8l-5.2-2 3.6-1.2z" stroke="none"/><path d="M221.585 455.9l-8-3.197m7.8 2.6l-7.2-3m7 2.598l-6.4-2.79m6.2 2.2l-5.6-2.4m5.6 2l-5.2-2.192m5 1.8l-4.6-2m4.6 1.8l-4.2-2m4 1.598l-3.6-1.796" stroke-width="2"/><path d="M220.585 452.702l-3.2-1.6 2.6-1z" stroke="none"/><path d="M222.985 451.702l-6-3.2m5.8 2.8l-5.2-3m5.2 2.6l-4.8-2.6m4.6 2.4l-4.4-2.4m4.2 2l-3.8-2m3.8 1.8l-3.6-1.8" stroke-width="2"/><path d="M222.185 449.9l-3-1.797 2.2-.2zm1.6-.598l-4.6-2.6 3.8-.6z" stroke="none"/><path d="M225.785 447.9l-5.6-3.797m5.4 3.4l-5-3.4m4.8 3.2l-4.4-3.2m4.4 2.798l-4-2.79m3.8 2.6l-3.6-2.6m3.6 2.4l-3.2-2.4" stroke-width="2"/><path d="M224.985 446.102l-2.8-2h2.2zm1.6-.4l-4.2-3.2h3.8zm1.6-1.6l-4.2-3.4h3.8zm1.2-2l-3.2-2.8 3.4-.2z" stroke="none"/><path d="M232.585 442.102l-6-6m6 5.4l-5.2-5.4m5.2 4.8l-4.6-4.8m4.6 4.4l-4-4.4m4.2 4l-3.8-4m3.8 3.6l-3.4-3.6m3.4 3.2l-3-3.2m3 3l-2.6-3" stroke-width="2"/><path d="M232.985 438.702l-2.4-2.6 2.8.2z" stroke="none"/><path d="M235.385 438.702l-4-5m4 4.6l-3.6-4.6m3.6 4.4l-3.4-4.2m3.4 3.8l-3-3.8m3 3.6l-2.6-3.4" stroke-width="2"/><path d="M235.385 437.102l-2.4-3 2.4.8zm1.6 0l-3.2-4.4 3.6 1z" stroke="none"/><path d="M239.185 436.502l-3.6-5.6m3.6 5.2l-3.2-5m3.2 4.6l-2.8-4.4m2.8 4l-2.6-3.8m2.6 3.6l-2.2-3.6" stroke-width="2"/><path d="M239.185 434.9l-2-3.197 2.2 1zm1.6 0l-2.6-4.597 3.4 1.4zm2-1l-2.4-4.597 3.4 1.4zm1.8-1.198l-1.8-3.8 3.2 1z" stroke="none"/><path d="M247.185 432.9l-2.4-5.797m2.4 5.4l-2.2-5.2m2.4 5l-2-4.8m2 4.398l-1.6-4.19m1.8 4l-1.6-4" stroke-width="2"/><path d="M247.585 431.502l-1.4-3.6 2 1.4zm1.4.2l-1.6-4.8 3 1.8zm2.2-.4l-1.6-5 3 2zm2-1l-1-4 2.8 1.8z" stroke="none"/><path d="M255.385 430.502l-1-5 2.8 2.4zm2.2-.6l-.6-4 2.4 1.8zm2-.2l-.4-4 2.6 2z" stroke="none"/><path d="M261.785 429.302l-.2-3.2 2.4 1.8z" stroke="none"/><path d="M263.985 435.502v-15.2m1.6 14.6l.4-13.6m1 13l.8-12.2m.4 11.8l1.2-10.8m0 10.6l1.4-9.8m-.2 9.6l1.4-8.8m-.6 8.6l1.6-8m-.6 7.798l1.4-7m-.6 6.8l1.4-6.197m-.6 6.198l1.4-5.59m-.8 5.4l1.4-5m-.8 5l1.4-4.4m-.8 4.4l1.2-4" stroke-width="2"/><path d="M276.385 432.702l1-3.6 3.6 3.6z" stroke="none"/><path d="M278.585 438.102l4.6-10.8m-3.6 10.6l4.2-9.6m-3.4 9.4l4-8.6m-3.2 8.6l3.6-7.8m-3 7.6l3.4-6.8m-2.8 6.8l3.2-6.2m-2.6 6.2l2.8-5.6m-2.4 5.4l2.8-4.8m-2.2 4.8l2.4-4.4m-2 4.4l2.2-3.8m-1.8 3.8l2-3.6" stroke-width="2"/><path d="M284.985 437.302l2-3.2 1.2 3.2z" stroke="none"/><path d="M285.585 441.102l5.2-7.6m-4.6 7.6l4.6-7m-4.2 6.8l4.4-6.2m-3.8 6.2l3.8-5.6m-3.4 5.4l3.4-4.8m-3 4.8l3.2-4.4m-3 4.2l3-3.8m-2.6 3.8l2.6-3.6m-2.4 3.6l2.4-3.2" stroke-width="2"/><path d="M288.985 440.502l2.2-3 .2 2.6z" stroke="none"/><path d="M288.985 442.9l4.8-5.597m-4.4 5.598l4.2-5.19m-3.8 5l3.8-4.6m-3.6 4.4l3.6-4m-3.2 4l3-3.6m-2.8 3.6l2.8-3.4" stroke-width="2"/><path d="M290.785 442.302l2.6-3-.6 2.4z" stroke="none"/><path d="M290.785 443.9l4-4.397-.6 3.8z" stroke="none"/><path d="M290.185 447.302l8.2-8.2m-7.2 8.4l7.4-7.2m-6.6 7.4l6.6-6.4m-6 6.4l6.2-5.4m-5.6 5.6l5.6-4.8m-5 5l5.2-4.4m-4.6 4.6l4.6-3.8m-4.2 4l4.2-3.4m-3.8 3.4l3.8-3m-3.4 3.2l3.4-2.8m-3 3l3-2.4" stroke-width="2"/><path d="M296.185 448.9l2.8-2.197v3.4z" stroke="none"/><path d="M295.185 452.502l7.6-5m-7 5.2l6.8-4.4m-6.2 4.4l6-3.8m-5.6 4l5.6-3.6m-5.2 3.6l5-3m-4.6 3l4.4-2.6m-4.2 2.8l4.2-2.6m-3.8 2.6l3.6-2.2" stroke-width="2"/><path d="M298.385 453.102l3.4-1.8-1 2.4z" stroke="none"/><path d="M297.785 455.502l6.2-3.4m-6 3.4l5.8-3m-5.4 3l5.2-2.6m-4.8 2.6l4.6-2.4m-4.4 2.4l4.2-2.2m-3.8 2.2l3.6-1.8" stroke-width="2"/><path d="M299.585 455.502l3.4-1.6-1.4 1.8zm-.6 1.4l5.2-2.4-1.8 3.2z" stroke="none"/><path d="M298.185 459.302l8.2-3.4m-7.6 3.6l7.4-3m-7 3.2l6.6-2.6m-6.2 2.8l6-2.4m-5.6 2.4l5.4-2m-5 2.2l4.8-1.8m-4.6 2l4.4-1.6m-4 1.6l3.8-1.4" stroke-width="2"/><path d="M301.185 460.502l3.6-1.2-1.4 2.2z" stroke="none"/><path d="M299.985 462.502l6.8-2m-6.4 2.2l6-1.8m-5.6 1.8l5.4-1.6m-5.2 1.8l5-1.6m-4.8 1.6l4.6-1.2m-4.2 1.2l4-1" stroke-width="2"/><path d="M301.785 462.9l3.6-.997-1.6 1.6zm-.8 1.402l5.4-1.4-2.4 2.6z" stroke="none"/><path d="M300.585 466.302l6.8-1.4m-6.4 1.4l6.2-1.2m-6 1.4l5.6-1.2m-5.2 1.2l5-.8m-4.8 1l4.6-.8m-4.4.8l4.2-.8" stroke-width="2"/><path d="M302.185 466.702l3.8-.6-1.8 1.4zm-.8 1.2l5.6-.8-2.8 2.4zm.2 2l5.4-.6-2.8 2.2zm.4 1.8l4.4-.2-2.2 2z" stroke="none"/><path d="M298.785 473.502h10.8m-10.4.6l9.6.2m-9.2.6l8.8.2m-8.4.4l7.8.4m-7.4 0l7 .6m-6.8 0l6.2.4m-6 0l5.6.6m-5.4-.2l5.2.6m-5-.2l4.6.4m-4.4 0l4.2.4" stroke-width="2"/><path d="M301.585 478.302l3.6.6-2.4 2.4z" stroke="none"/><path d="M298.585 480.302l8.2 1.8m-7.8-1.2l7.4 1.4m-7.2-1.2l6.6 1.6m-6.4-1.2l6 1.4m-5.8-1l5.4 1.2m-5.2-1l5 1.2m-4.8-.8l4.4 1m-4.2-.8l4 1" stroke-width="2"/><path d="M300.385 482.9l3.4.803-2.2 1.2z" stroke="none"/><path d="M298.385 483.9l6.4 2.003m-6.2-1.8l5.8 1.8m-5.6-1.4l5.2 1.6m-5-1.4l4.6 1.4m-4.4-1.202l4.2 1.21m-4-1l3.6 1.2" stroke-width="2"/><path d="M299.385 485.102l3.4 1.2-2 .4z" stroke="none"/><path d="M298.185 485.702l5 1.8-3.2.8z" stroke="none"/><path d="M296.185 486.702l7.6 3.2m-7.4-2.6l6.8 2.8m-6.6-2.4l6 2.6m-6-2.2l5.6 2.4m-5.4-2l5 2.2m-4.8-2l4.4 2m-4.4-1.6l4 1.8m-3.8-1.6l3.6 1.6" stroke-width="2"/><path d="M297.185 489.502l3.2 1.6-2.4.6z" stroke="none"/><path d="M295.185 490.102l5.8 3.2m-5.6-2.8l5.2 2.8m-5.2-2.6l4.8 2.6m-4.6-2.4l4.2 2.4m-4-2.2l3.8 2.2" stroke-width="2"/><path d="M295.985 491.302l3.2 2h-2.2zm-1.2.6l4.4 2.8h-3.4z" stroke="none"/><path d="M293.185 492.9l5.4 3.603m-5.4-3.2l5 3.2m-4.8-3l4.4 3m-4.2-2.602l3.8 2.61m-3.8-2.4l3.6 2.4" stroke-width="2"/><path d="M293.785 494.302l3.2 2.2-2.4-.2zm-1.2.4l4.2 3-3.4-.2zm-1.2 1.2l4 3.4-3.4-.4zm-1 1.6l3.2 2.8-3-.2z" stroke="none"/><path d="M287.785 497.302l5.6 5.6m-5.6-5.2l5 5.2m-5-4.6l4.6 4.6m-4.6-4.2l4 4.2m-4-3.8l3.6 3.8m-3.6-3.6l3.2 3.6m-3.2-3.2l3 3.2" stroke-width="2"/><path d="M287.785 499.9l2.6 2.803-2.6-.4z" stroke="none"/><path d="M285.585 499.9l4.2 5.003m-4-4.6l3.6 4.4m-3.6-4.2l3.2 4m-3.2-3.602l3 3.61m-3-3.4l2.6 3.2" stroke-width="2"/><path d="M285.985 501.302l2.2 3-2-1zm-1.4 0l3 4.2-3-1.2z" stroke="none"/><path d="M282.785 501.702l3.6 5.2m-3.6-4.8l3.2 4.6m-3.2-4.4l2.8 4.4m-2.6-4l2.4 3.8m-2.4-3.6l2.2 3.4" stroke-width="2"/><path d="M282.985 503.102l2 3.2-2-1.2zm-1.4 0l2.6 4.2-2.8-1.4zm-1.4.6l2.4 4.4-3-1.4zm-1.4 1.2l1.8 3.6-2.6-1.2z" stroke="none"/><path d="M276.785 504.302l2.4 5.8m-2.4-5.4l2 5.2m-2.2-5l2 4.8m-2-4.4l1.8 4.2m-1.8-4l1.6 3.8" stroke-width="2"/><path d="M276.585 505.702l1.4 3.4-1.8-1.4zm-1.2-.4l1.6 4.8-2.4-2zm-1.6.4l1.4 4.8-2.4-2zm-1.6.8l1 3.8-2.2-1.6zm-1.6-.2l.8 4.8-2.2-2.2zm-1.6.6l.6 4-2.2-2zm-1.6.2l.2 3.8-1.8-2zm-1.8.2l.2 3.2-1.8-1.6z" stroke="none"/><path d="M263.985 504.102v9.4m-.6-9l-.2 8.6m-.4-8.2l-.2 7.6m-.2-7.2l-.4 6.8m-.2-6.6l-.4 6.2m0-6l-.4 5.6m0-5.4l-.4 5m0-4.8l-.4 4.4m.2-4.2l-.6 4" stroke-width="2"/><path d="M259.985 506.502l-.4 3.6-2.4-2.4z" stroke="none"/><path d="M257.985 503.9l-1.6 7.403m1.2-7l-1.4 6.4m1-6.2l-1.2 5.8m1-5.6l-1.2 5.2m.8-5.002l-1 4.81m.8-4.6l-1 4.2m.8-4l-1 3.8" stroke-width="2"/><path d="M255.985 505.302l-1 3.4-1-2.2z" stroke="none"/><path d="M254.785 503.702l-1.6 5.6m1.4-5.4l-1.6 5m1.4-4.8l-1.4 4.6m1.2-4.4l-1.2 4" stroke-width="2"/><path d="M253.985 504.502l-1.2 3.6-.4-2.2zm-.8-.8l-1.6 4.4-.6-3z" stroke="none"/><path d="M252.185 501.702l-2.6 6.8m2.2-6.6l-2.4 6m2.2-5.8l-2.4 5.4m2-5.2l-2.2 4.8m1.8-4.6l-2 4.2m1.8-4.2l-1.8 4" stroke-width="2"/><path d="M250.385 502.702l-1.8 3.4-.6-2.6z" stroke="none"/><path d="M249.385 500.9l-2.8 5.203m2.4-5l-2.4 4.6m2.2-4.4l-2.2 4m2-4l-2 3.8" stroke-width="2"/><path d="M248.385 501.502l-1.8 3.2v-2.2z" stroke="none"/><path d="M247.785 500.502l-2.4 4-.2-3z" stroke="none"/><path d="M246.785 499.102l-3.2 4.8m3-4.6l-2.8 4.2m2.6-4.2l-2.6 4m2.4-3.8l-2.4 3.4" stroke-width="2"/><path d="M245.985 499.702l-2.2 3 .2-2.2zm-.6-1l-2.8 3.6.2-3zm-1.2-1.2l-2.8 3.6.2-3zm-1.4-.6l-2.4 2.6.2-2.6z" stroke="none"/><path d="M242.985 494.502l-5 5m4.6-5l-4.6 4.4m4.2-4.4l-4.2 4m3.8-4l-3.6 3.6m3.4-3.6l-3.4 3.2m3-3.2l-3 2.8" stroke-width="2"/><path d="M240.985 494.502l-2.8 2.6.4-2.8z" stroke="none"/><path d="M240.785 492.502l-4.4 3.6m4-3.4l-3.8 3.2m3.6-3.2l-3.6 2.8m3.4-2.8l-3.2 2.6" stroke-width="2"/><path d="M239.785 492.702l-3 2.4.8-2zm-.4-1l-3.6 2.6 1-2.6z" stroke="none"/><path d="M239.185 490.102l-4.6 3m4.2-3l-4 2.8m3.8-2.8l-3.8 2.4m3.6-2.4l-3.4 2.2" stroke-width="2"/><path d="M238.185 490.102l-3.2 2 1.2-1.8zm-.2-1l-3.8 2.2 1.2-2.6zm-.6-1.4l-3.8 2.2 1.2-2.6zm-1-1.2l-3.2 1.6 1.2-2.4z" stroke="none"/><path d="M236.785 484.702l-5 2.2m4.8-2.2l-4.6 1.8m4.2-1.8l-4 1.6m3.8-1.6l-3.6 1.4" stroke-width="2"/><path d="M235.785 484.702l-3.4 1.2 1.4-1.6zm.2-1.2l-4.2 1.6 1.8-2.4zm-.4-1.4l-4.2 1.2 1.8-2zm-.6-1.4l-3.4 1 1.4-2zm.2-1.4l-4.4.8 2-2z" stroke="none"/><path d="M234.585 477.9l-3.4.403 1.6-1.8z" stroke="none"/><path d="M234.585 476.502l-3.6.2 1.8-1.6zm-.4-1.6l-2.8.2 1.4-1.6z" stroke="none"/><path d="M236.185 473.502h-6.6m6.4-.2l-6-.2m5.6-.2h-5.4m5.2-.2h-4.8m4.6-.2l-4.4-.2" stroke-width="2"/><path d="M234.985 472.302l-4-.2 2.2-1.6z" stroke="none"/><path d="M235.985 470.702l-5.4-.4m5 .2l-4.6-.4m4.4.4l-4.2-.6" stroke-width="2"/><path d="M235.185 470.302l-3.8-.4 2.2-1zm.4-1l-4-.6 2.4-1.2z" stroke="none"/><path d="M236.585 468.102l-5.2-1m5 .8l-4.6-1m4.4.8l-4.2-.8" stroke-width="2"/><path d="M235.985 467.502l-3.8-.8 2.2-.6zm.4-1l-4-1 2.6-.8zm.6-1.2l-4-1.2 2.6-.8zm0-1.4l-3-1.2 2.2-.8z" stroke="none"/><path d="M238.585 462.9l-4.8-1.997m4.6 1.8l-4.2-1.8m4 1.6l-3.8-1.6" stroke-width="2"/><path d="M237.985 462.302l-3.4-1.4 2.2-.2zm.8-.8l-3.8-1.8 2.6-.2zm.6-1.2l-3.6-1.8 2.6-.4zm.4-1.2l-2.8-1.8 2.4-.2zm1.2-1l-3.4-2.2h2.6zm.6-1.2l-2.6-2h2.2zm1-1l-2.6-2h2.2zm.6-1.2l-1.8-1.8h2z" stroke="none"/><path d="M245.185 454.702l-3.6-3.6m3.4 3.2l-3.2-3.2m3.2 3l-2.8-2.8" stroke-width="2"/><path d="M244.985 453.9l-2.6-2.597 2 .6zm.8-.398l-2.6-3 2.4.6zm1-.8l-2.4-3.2 2.4.8zm1-1l-2-2.6 2.2.6zm1.4-.4l-2.2-3.4 2.2 1zm.8-1l-1.6-2.6 2.2.6zm1.4-.6l-1.6-2.6 2 .8zm1-.8l-1-2.2 1.8.6zm1.6.2l-1.6-3.4 2.2 1.2zm1-.6l-1-3 1.8 1.2zm1.4-.4l-1-2.8 1.8 1.2zm1.2-.6l-.6-2.2 1.6 1z" stroke="none"/><path d="M258.785 447.702l-.6-3 1.8 1.4z" stroke="none"/><path d="M260.185 447.302l-.4-2.4 1.4 1.2zm1.2 0l-.2-2.4 1.4 1.2zm1.2-.2v-2l1.4 1z" stroke="none"/><path d="M263.985 450.702v-9.2" stroke-width="2"/><path d="M263.533 473.44c-.507.388.06 1.09.47 1.252 1.113.442 2.163-.605 2.36-1.633.36-1.87-1.31-3.43-3.063-3.6-2.69-.27-4.818 2.11-4.945 4.67-.176 3.57 3.004 6.32 6.43 6.38 4.496.07 7.92-3.96 7.893-8.31-.034-5.47-4.967-9.6-10.28-9.48-6.49.15-11.355 6.024-11.126 12.35.272 7.544 7.13 13.172 14.506 12.83 8.635-.4 15.053-8.277 14.59-16.738-.533-9.758-9.46-16.99-19.04-16.4-10.91.672-18.98 10.68-18.257 21.41.82 12.093 11.94 21.02 23.84 20.16 13.31-.96 23.11-13.216 22.11-26.33-1.11-14.54-14.52-25.24-28.87-24.09-4.86.39-9.59 2.08-13.61 4.838" fill="none" stroke-width="1.146"/></g><text style="line-height:125%" x="248.678" y="52.122" font-size="56" letter-spacing="0" word-spacing="0" font-family="Sans"><tspan x="248.678" y="52.122" style="-inkscape-font-specification:Sans Bold" font-weight="bold">0</tspan></text><text style="line-height:125%" x="108.577" y="477.987" transform="rotate(-52.199)" font-size="56" letter-spacing="0" word-spacing="0" opacity=".8" font-family="Sans"><tspan x="108.577" y="477.987">1</tspan></text><text style="line-height:125%" x="371.352" y="532.265" transform="rotate(-22.108)" font-size="56" letter-spacing="0" word-spacing="0" opacity=".6" font-family="Sans"><tspan x="371.352" y="532.265">2</tspan></text><text style="line-height:125%" x="608.588" y="437.995" transform="rotate(6.597)" font-size="56" letter-spacing="0" word-spacing="0" opacity=".4" font-family="Sans"><tspan x="608.588" y="437.995">3</tspan></text><text style="line-height:125%" x="240.379" y="229.922" font-size="40" letter-spacing="0" word-spacing="0" font-family="Sans"><tspan x="240.379" y="229.922" style="-inkscape-font-specification:Sans Bold" font-size="56" font-weight="bold">ω</tspan></text><text style="line-height:125%" x="-171.59" y="399.099" transform="rotate(-69.156)" font-size="36" letter-spacing="0" word-spacing="0" opacity=".8" font-family="Sans"><tspan x="-171.59" y="399.099">ω+1</tspan></text><text y="478.899" x="-62.477" style="line-height:125%" transform="rotate(-54.545)" font-size="36" letter-spacing="0" word-spacing="0" opacity=".6" font-family="Sans"><tspan y="478.899" x="-62.477">ω+2</tspan></text><text style="line-height:125%" x="43.079" y="525.401" transform="rotate(-43.081)" font-size="40" letter-spacing="0" word-spacing="0" opacity=".4" font-family="Sans"><tspan x="43.079" y="525.401" font-size="28">ω+3</tspan></text><text style="line-height:125%" x="234.144" y="685.965" font-size="40" letter-spacing="0" word-spacing="0" opacity=".8" font-family="Sans"><tspan x="234.144" y="685.965" font-size="36">ω·2</tspan></text><text y="483.108" x="57.246" style="line-height:125%" font-size="24" letter-spacing="0" word-spacing="0" opacity=".6" font-family="Sans"><tspan y="483.108" x="57.246">ω·3</tspan></text><text y="453.25" x="-535.083" style="line-height:125%" transform="matrix(.338 -1.026 .885 .272 0 0)" font-size="19.739" letter-spacing="0" word-spacing="0" opacity=".6" font-family="Sans"><tspan y="453.25" x="-535.083">ω·2+1</tspan></text><text style="line-height:125%" x="-450.379" y="505.815" transform="matrix(.425 -1.136 .77 .294 0 0)" font-size="15.499" letter-spacing="0" word-spacing="0" opacity=".4" font-family="Sans"><tspan x="-450.379" y="505.815">ω·2+2</tspan></text><text style="line-height:125%" x="343.99" y="125.228" transform="rotate(50.063)" font-size="24" letter-spacing="0" word-spacing="0" opacity=".4" font-family="Sans"><tspan x="343.99" y="125.228">ω·4</tspan></text><text y="321.353" x="242.582" style="line-height:125%" font-size="40" letter-spacing="0" word-spacing="0" font-family="Sans"><tspan style="-inkscape-font-specification:Sans Bold" y="321.353" x="242.582" font-size="36" font-weight="bold">ω²</tspan></text><text style="line-height:125%" x="-244.47" y="375.76" transform="matrix(.213 -1.081 .871 .275 0 0)" font-size="35.453" letter-spacing="0" word-spacing="0" opacity=".6" font-family="Sans"><tspan x="-244.47" y="375.76" font-size="17.727">ω²+1</tspan></text><text y="441.146" x="-224.643" style="line-height:125%" transform="matrix(.323 -1.101 .827 .28 0 0)" font-size="34.837" letter-spacing="0" word-spacing="0" opacity=".4" font-family="Sans"><tspan y="441.146" x="-224.643" font-size="17.418">ω²+2</tspan></text><path d="M401.153 470.404a25.92 10.85 0 1 1-51.84 0 25.92 10.85 0 1 1 51.84 0z" opacity=".8" fill="#fff"/><text style="line-height:125%" x="365.705" y="477.419" font-size="40" letter-spacing="0" word-spacing="0" opacity=".8" font-family="Sans"><tspan x="365.705" y="477.419" font-size="20">ω²+ω</tspan></text><path d="M365.624 569.366c-5.646 6.156-25.093-4.598-35.004-19.356-4.6-6.85-5.82-12.83-3.2-15.686 5.647-6.155 25.094 4.598 35.005 19.357 4.6 6.85 5.82 12.83 3.2 15.69z" opacity=".8" fill="#fff"/><text y="179.047" x="608.35" style="line-height:125%" transform="rotate(42.528)" font-size="40" letter-spacing="0" word-spacing="0" opacity=".6" font-family="Sans"><tspan y="179.047" x="608.35" font-size="16">ω²+ω·2</tspan></text><text style="line-height:125%" x="239.103" y="605.476" font-size="40" letter-spacing="0" word-spacing="0" opacity=".8" font-family="Sans"><tspan x="239.103" y="605.476" font-size="24">ω²·2</tspan></text><text y="478.204" x="137.951" style="line-height:125%" font-size="40" letter-spacing="0" word-spacing="0" opacity=".6" font-family="Sans"><tspan y="478.204" x="137.951" font-size="14">ω²·3</tspan></text><text style="line-height:125%" x="407.133" y="142.254" transform="rotate(46.299)" font-size="40" letter-spacing="0" word-spacing="0" opacity=".4" font-family="Sans"><tspan x="407.133" y="142.254" font-size="14">ω²·4</tspan></text><path d="M278.708 382.398a15.43 12.18 0 1 1-30.86 0 15.43 12.18 0 1 1 30.86 0z" opacity=".8" fill="#fff"/><text style="line-height:125%" x="248.502" y="391.933" font-size="40" letter-spacing="0" word-spacing="0" font-family="Sans"><tspan x="248.502" y="391.933" style="-inkscape-font-specification:Sans Bold" font-size="28" font-weight="bold">ω³</tspan></text><path d="M331.613 402.755c5.335 5.236-5.576 23.024-19.64 32.018-6.526 4.174-12.073 5.25-14.55 2.82-5.334-5.237 5.577-23.025 19.64-32.02 6.528-4.173 12.074-5.248 14.55-2.818z" opacity=".8" fill="#fff"/><text y="524.27" x="-99.61" style="line-height:125%" transform="rotate(-45.538)" font-size="40" letter-spacing="0" word-spacing="0" opacity=".6" font-family="Sans"><tspan y="524.27" x="-99.61" font-size="16">ω³+ω</tspan></text><path d="M352.652 472.19a21.93 9.18 0 1 1-43.86 0 21.93 9.18 0 1 1 43.86 0z" opacity=".8" fill="#fff"/><text style="line-height:125%" x="314.275" y="476.791" font-size="40" letter-spacing="0" word-spacing="0" opacity=".4" font-family="Sans"><tspan x="314.275" y="476.791" font-size="12">ω³+ω²</tspan></text><text y="-97.273" x="345.748" style="line-height:125%" transform="rotate(73.929)" font-size="24" letter-spacing="0" word-spacing="0" opacity=".2" font-family="Sans"><tspan y="-97.273" x="345.748">ω·5</tspan></text><text y="266.268" x="754.129" style="line-height:125%" transform="rotate(31.855)" font-size="56" letter-spacing="0" word-spacing="0" opacity=".2" font-family="Sans"><tspan y="266.268" x="754.129" font-size="48">4</tspan></text><text style="line-height:125%" x="811.423" y="88.021" transform="rotate(52.978)" font-size="40" letter-spacing="0" word-spacing="0" opacity=".1" font-family="Sans"><tspan x="811.423" y="88.021" font-size="48">5</tspan></text><text y="536.58" x="177.207" style="line-height:125%" transform="rotate(-28.309)" font-size="40" letter-spacing="0" word-spacing="0" opacity=".2" font-family="Sans"><tspan y="536.58" x="177.207" font-size="28">ω+4</tspan></text><path d="M305.208 475.398a42.43 42.43 0 1 1-84.86 0 42.43 42.43 0 1 1 84.86 0z" opacity=".6" fill="#fff"/><text y="497.863" x="230.269" style="line-height:125%;-inkscape-font-specification:Sans Bold" font-size="58.5" font-weight="bold" letter-spacing="0" word-spacing="0" font-family="Sans"><tspan y="497.863" x="230.269">ω</tspan></text><text style="line-height:125%;-inkscape-font-specification:Sans Bold" x="270.232" y="467.74" font-size="41.701" font-weight="bold" letter-spacing="0" word-spacing="0" font-family="Sans"><tspan x="270.232" y="467.74" style="-inkscape-font-specification:Sans Bold" font-size="25.021">ω</tspan></text><path d="M280.244 424.062a16.582 11.93 0 1 1-33.164 0 16.582 11.93 0 1 1 33.164 0z" opacity=".8" fill="#fff"/><text y="431.659" x="251.268" style="line-height:125%" font-size="40" letter-spacing="0" word-spacing="0" font-family="Sans"><tspan style="-inkscape-font-specification:Sans Bold" y="431.659" x="251.268" font-size="24" font-weight="bold">ω⁴</tspan></text><path d="M284.59 543.288a21.93 9.18 0 1 1-43.86 0 21.93 9.18 0 1 1 43.86 0z" opacity=".8" fill="#fff"/><text y="552.611" x="244.094" style="line-height:125%" font-size="40" letter-spacing="0" word-spacing="0" opacity=".8" font-family="Sans"><tspan y="552.611" x="244.094" font-size="20">ω³·2</tspan></text><text transform="matrix(.574 -1.069 .723 .395 0 0)" y="561.4" x="-399.241" style="line-height:125%" font-size="15.499" letter-spacing="0" word-spacing="0" opacity=".2" font-family="Sans"><tspan y="561.4" x="-399.241">ω·2+3</tspan></text></svg>
