<svg viewBox="0 0 535 280" xmlns="http://www.w3.org/2000/svg" fill-rule="evenodd" clip-rule="evenodd" stroke-miterlimit="1.414"><path d="M0 159h535M294 0v280M114 0v280M535 39H0" fill="none" stroke-width="2" stroke="#ccc"/><text x="156.125" y="25.595" font-family="Concourse T3" font-size="25" font-weight="600">cooper<tspan x="221.875 232.875 240.625" y="25.595 25.595 25.595">ate</tspan></text><text x="164.55" y="91.556" font-family="Concourse T3" font-size="30" font-weight="300">r<tspan x="173.85" y="91.556">e</tspan>wa<tspan x="219.45 228.75" y="91.556 91.556">rd</tspan></text><text x="171" y="124.631" font-family="Concourse T3" font-size="25" font-weight="300" fill="#777">(<tspan x="179.25 191.5" y="124.631 124.631">go</tspan>od)</text><text x="147.375" y="244.214" font-family="Concourse T3" font-size="25" font-weight="300" fill="#777">(<tspan x="155.875 166.625 177.875 186.375 197.375" y="244.214 244.214 244.214 244.214 244.214">very </tspan>good)</text><text x="388" y="244.214" font-family="Concourse T3" font-size="25" font-weight="300" fill="#777">(b<tspan x="408.75 420" y="244.214 244.214">ad</tspan>)</text><text x="364.625" y="124.631" font-family="Concourse T3" font-size="25" font-weight="300" fill="#777">(<tspan x="373.125 383.875 395.125 403.625 414.625 420.125 432.125 443.375" y="124.631 124.631 124.631 124.631 124.631 124.631 124.631 124.631">very bad</tspan>)</text><text x="140.25" y="211.556" font-family="Concourse T3" font-size="30" font-weight="300">tempt<tspan x="209.25 222.45 231.75" y="211.556 211.556 211.556">ati</tspan>on</text><text x="346.85" y="211.556" font-family="Concourse T3" font-size="30" font-weight="300">punishmen<tspan x="472.85" y="211.556">t</tspan></text><text x="328.1" y="91.556" font-family="Concourse T3" font-size="30" font-weight="300">suck<tspan x="378.5 392 402.5 408.8 419.9 426.5 440.9" y="91.556 91.556 91.556 91.556 91.556 91.556 91.556">er’s pa</tspan>yo<tspan x="481.7" y="91.556">f</tspan>f</text><text x="7.313" y="106.595" font-family="Concourse T3" font-size="25" font-weight="600">cooper<tspan x="73.063 84.063 91.813" y="106.595 106.595 106.595">ate</tspan></text><text x="384.25" y="25.595" font-family="Concourse T3" font-size="25" font-weight="600">def<tspan x="415.5 426.75 437" y="25.595 25.595 25.595">ect</tspan></text><text x="24.938" y="226.595" font-family="Concourse T3" font-size="25" font-weight="600">def<tspan x="56.188 67.438 77.688" y="226.595 226.595 226.595">ect</tspan></text></svg>
