<svg viewBox="0 0 880 385" xmlns="http://www.w3.org/2000/svg" xml:space="preserve" style="fill-rule:evenodd;clip-rule:evenodd;stroke-linecap:round;stroke-linejoin:round;stroke-miterlimit:1.5"><text x="387.41" y="71.712" style="font-family:'ConcourseT3-Bold','Concourse T3';font-weight:600;font-size:30px">ZooK<tspan x="452.21px 465.71px" y="71.712px 71.712px">ee</tspan>per</text><text x="36.29" y="24.712" style="font-family:'ConcourseT3-Bold','Concourse T3';font-weight:600;font-size:30px">Balancer</text><text x="706.411" y="24.712" style="font-family:'ConcourseT3-Bold','Concourse T3';font-weight:600;font-size:30px">Ev<tspan x="734.611px 748.111px" y="24.712px 24.712px">al</tspan>ua<tspan x="782.611px 791.911px" y="24.712px 24.712px">to</tspan>r</text><text x="2.665" y="202.985" style="font-family:'ConcourseT3','Concourse T3';font-weight:300;font-size:25px">primar<tspan x="67.165" y="202.985">y</tspan></text><text x="2.665" y="99.072" style="font-family:'ConcourseT3','Concourse T3';font-weight:300;font-size:25px">b<tspan x="14.665px 25.915px" y="99.072px 99.072px">ac</tspan>kup</text><text x="2.665" y="307.249" style="font-family:'ConcourseT3','Concourse T3';font-weight:300;font-size:25px">b<tspan x="14.665px 25.915px" y="307.249px 307.249px">ac</tspan>kup</text><circle cx="134.386" cy="92.972" r="30" style="fill:none;stroke:#000;stroke-width:1px"/><circle cx="134.386" cy="301.149" r="30" style="fill:none;stroke:#000;stroke-width:1px"/><path d="m134.386 163.141 11.021 22.331 24.644 3.581-17.833 17.382 4.21 24.545-22.042-11.589-22.042 11.589 4.21-24.545-17.833-17.382 24.644-3.581 11.021-22.331Z" style="fill:none;stroke:#000;stroke-width:1px"/><path d="M874.21 289.773c.75-.725 1.5-2.525 1.5-4.575 0-3.025-1.3-4.825-3.425-4.825-1.7 0-2.825.9-4 3.775-1.025 2.525-1.5 3.3-2.4 3.3-.8 0-1.525-.95-1.525-2.55 0-1.35.425-2.55 1.175-3.575l-1.45-.625c-.7.85-1.375 2.275-1.375 4.225 0 2.85 1.675 4.3 3.3 4.3 1.625 0 2.4-.975 3.65-3.875.925-2.125 1.4-3.125 2.5-3.125.975 0 1.9.8 1.9 2.95 0 1.625-.55 2.9-1.35 3.9l1.5.7ZM864.01 259.748c-.675.95-1.3 2.45-1.3 4.275 0 3.425 2.475 6.65 6.65 6.65 3.5 0 6.35-2.7 6.35-6.6 0-1.75-.55-3.325-1.45-4.6l-1.5.7c.625.775 1.3 2.25 1.3 3.85 0 2.8-1.95 4.8-4.75 4.8-3.475 0-4.95-2.475-4.95-4.825 0-1.725.675-3.025 1.15-3.625l-1.5-.625ZM875.585 240.373l-.25-1.8-12.5 5.9v.3l12.5 5.85.25-1.775-3.025-1.35v-5.75l3.025-1.375Zm-9.275 4.3v-.075l4.625-2.1v4.275l-4.625-2.1ZM862.96 226.973v1.75h12.5v-7.675h-1.6v5.925h-10.9ZM862.96 202.773v8.2h12.5v-8.45h-1.6v6.7h-3.975v-5.7h-1.6v5.7h-3.725v-6.45h-1.6ZM869.36 166.273c-4.1 0-6.65 3.15-6.65 6.55 0 3.5 2.625 6.6 6.65 6.6 3.575 0 6.35-2.825 6.35-6.6 0-3.775-2.95-6.55-6.35-6.55Zm-.05 1.85c2.5 0 4.75 1.825 4.75 4.65 0 3.075-2.25 4.8-4.75 4.8-3.125 0-4.95-2.225-4.95-4.725 0-2.625 2.025-4.725 4.95-4.725ZM862.96 145.223v1.75h6.85c3.075 0 4.25 1.55 4.25 3.625 0 2.15-1.15 3.625-4.25 3.625h-6.85v1.75h7.2c2.775 0 5.55-1.15 5.55-5.375 0-3.775-2.725-5.375-5.625-5.375h-7.125ZM864.56 124.348h-1.6v10.5h1.6v-4.35h10.9v-1.75h-10.9v-4.4Z" style="fill-rule:nonzero"/><path d="m318.2 197.76-8.311 8.311.99.99 10-10.001-10-10-.99.99 8.311 8.31H200.879v1.4H318.2ZM583.69 197.76l8.31 8.311-.99.99-10-10.001 10-10 .99.99-8.31 8.31h117.32v1.4H583.69ZM583.914 175.969l9.707 5.494-.705 1.254-11.68-6.611 7.117-12.668 1.156.655-5.914 10.526 113.151-36.456.32 1.35-113.152 36.456ZM583.914 218.152l9.707-5.494-.705-1.254-11.68 6.611 7.117 12.668 1.156-.655-5.914-10.526 113.151 36.456.32-1.35-113.152-36.456Z"/><path style="fill:none;stroke:#000;stroke-width:1px" d="M731.386 62.972h60v60h-60zM731.386 167.06h60v60h-60zM731.386 271.149h60v60h-60z"/><path d="M846.46 356.048h16.25l-25 25-25-25h16.25V62.972h17.5v293.076Z" style="fill:url(#a);stroke:#000;stroke-width:1.5px"/><g><path d="M357.27 266.06v-138h190v138c0 15.04-42.568 27.25-95 27.25s-95-12.21-95-27.25" style="fill:#ebebeb;stroke:#000;stroke-width:1px"/><path d="M547.27 174.06c0 15.04-42.568 27.25-95 27.25s-95-12.21-95-27.25M547.27 220.06c0 15.04-42.568 27.25-95 27.25s-95-12.21-95-27.25" style="fill:none;stroke:#000;stroke-width:1px"/><ellipse cx="452.27" cy="128.06" rx="95" ry="27.25" style="fill:#ebebeb;stroke:#000;stroke-width:1px"/></g><defs><linearGradient id="a" x1="0" y1="0" x2="1" y2="0" gradientUnits="userSpaceOnUse" gradientTransform="matrix(0 -318.076 50 0 837.71 381.048)"><stop offset="0" style="stop-color:#fff;stop-opacity:1"/><stop offset="1" style="stop-color:#a6a6a6;stop-opacity:1"/></linearGradient></defs></svg>
